<mxfile host="app.diagrams.net" agent="Mozilla/5.0 (Macintosh; Intel Mac OS X 10_15_7) AppleWebKit/537.36 (KHTML, like Gecko) Chrome/131.0.0.0 Safari/537.36" version="25.0.3" pages="7">
  <diagram name="9.1" id="iVJIESvXYlGfIRGYjgWM">
    <mxGraphModel dx="862" dy="594" grid="1" gridSize="10" guides="1" tooltips="1" connect="1" arrows="1" fold="1" page="1" pageScale="1" pageWidth="850" pageHeight="1100" math="0" shadow="0">
      <root>
        <mxCell id="0" />
        <mxCell id="1" parent="0" />
        <mxCell id="RPptzQqUfsC-ALQ0HFax-17" value="" style="rounded=0;whiteSpace=wrap;html=1;fillColor=#f5f5f5;strokeColor=#666666;fontColor=#333333;" vertex="1" parent="1">
          <mxGeometry x="470" y="33" width="120" height="87" as="geometry" />
        </mxCell>
        <mxCell id="RPptzQqUfsC-ALQ0HFax-15" value="" style="rounded=0;whiteSpace=wrap;html=1;fillColor=#f5f5f5;strokeColor=#666666;fontColor=#333333;" vertex="1" parent="1">
          <mxGeometry x="260" y="277.5" width="130" height="112.5" as="geometry" />
        </mxCell>
        <mxCell id="RPptzQqUfsC-ALQ0HFax-20" style="edgeStyle=orthogonalEdgeStyle;rounded=1;orthogonalLoop=1;jettySize=auto;html=1;curved=0;" edge="1" parent="1" source="RPptzQqUfsC-ALQ0HFax-13" target="RPptzQqUfsC-ALQ0HFax-1">
          <mxGeometry relative="1" as="geometry" />
        </mxCell>
        <mxCell id="RPptzQqUfsC-ALQ0HFax-13" value="" style="rounded=0;whiteSpace=wrap;html=1;fillColor=#f5f5f5;strokeColor=#666666;fontColor=#333333;" vertex="1" parent="1">
          <mxGeometry x="251" y="80" width="118" height="130" as="geometry" />
        </mxCell>
        <mxCell id="RPptzQqUfsC-ALQ0HFax-22" style="edgeStyle=orthogonalEdgeStyle;rounded=1;orthogonalLoop=1;jettySize=auto;html=1;curved=0;" edge="1" parent="1" source="RPptzQqUfsC-ALQ0HFax-1" target="RPptzQqUfsC-ALQ0HFax-15">
          <mxGeometry relative="1" as="geometry">
            <Array as="points">
              <mxPoint x="450" y="334" />
            </Array>
          </mxGeometry>
        </mxCell>
        <mxCell id="RPptzQqUfsC-ALQ0HFax-25" style="edgeStyle=orthogonalEdgeStyle;rounded=1;orthogonalLoop=1;jettySize=auto;html=1;entryX=0;entryY=0.5;entryDx=0;entryDy=0;curved=0;" edge="1" parent="1" source="RPptzQqUfsC-ALQ0HFax-1" target="RPptzQqUfsC-ALQ0HFax-3">
          <mxGeometry relative="1" as="geometry" />
        </mxCell>
        <mxCell id="RPptzQqUfsC-ALQ0HFax-26" style="edgeStyle=orthogonalEdgeStyle;rounded=1;orthogonalLoop=1;jettySize=auto;html=1;entryX=0;entryY=0.5;entryDx=0;entryDy=0;curved=0;" edge="1" parent="1" source="RPptzQqUfsC-ALQ0HFax-1" target="RPptzQqUfsC-ALQ0HFax-4">
          <mxGeometry relative="1" as="geometry" />
        </mxCell>
        <mxCell id="RPptzQqUfsC-ALQ0HFax-27" style="edgeStyle=orthogonalEdgeStyle;rounded=1;orthogonalLoop=1;jettySize=auto;html=1;curved=0;" edge="1" parent="1" source="RPptzQqUfsC-ALQ0HFax-1" target="RPptzQqUfsC-ALQ0HFax-5">
          <mxGeometry relative="1" as="geometry" />
        </mxCell>
        <mxCell id="RPptzQqUfsC-ALQ0HFax-1" value="API gateway" style="rounded=0;whiteSpace=wrap;html=1;fillColor=#e1d5e7;strokeColor=#9673a6;" vertex="1" parent="1">
          <mxGeometry x="420" y="140" width="100" height="170" as="geometry" />
        </mxCell>
        <mxCell id="RPptzQqUfsC-ALQ0HFax-19" style="edgeStyle=orthogonalEdgeStyle;rounded=1;orthogonalLoop=1;jettySize=auto;html=1;entryX=0;entryY=0.5;entryDx=0;entryDy=0;curved=0;" edge="1" parent="1" source="RPptzQqUfsC-ALQ0HFax-2" target="RPptzQqUfsC-ALQ0HFax-13">
          <mxGeometry relative="1" as="geometry" />
        </mxCell>
        <mxCell id="RPptzQqUfsC-ALQ0HFax-2" value="API client" style="sketch=0;aspect=fixed;pointerEvents=1;shadow=0;dashed=0;html=1;strokeColor=none;labelPosition=center;verticalLabelPosition=bottom;verticalAlign=top;align=center;fillColor=#00188D;shape=mxgraph.azure.laptop" vertex="1" parent="1">
          <mxGeometry x="120" y="210" width="50" height="30" as="geometry" />
        </mxCell>
        <mxCell id="RPptzQqUfsC-ALQ0HFax-3" value="Payments API&lt;div&gt;(REST API)&lt;/div&gt;" style="rounded=0;whiteSpace=wrap;html=1;fillColor=#d5e8d4;strokeColor=#82b366;" vertex="1" parent="1">
          <mxGeometry x="610" y="110" width="120" height="60" as="geometry" />
        </mxCell>
        <mxCell id="RPptzQqUfsC-ALQ0HFax-4" value="Orders API&lt;div&gt;(GrapQL API)&lt;/div&gt;" style="rounded=0;whiteSpace=wrap;html=1;fillColor=#dae8fc;strokeColor=#6c8ebf;" vertex="1" parent="1">
          <mxGeometry x="610" y="195" width="120" height="60" as="geometry" />
        </mxCell>
        <mxCell id="RPptzQqUfsC-ALQ0HFax-5" value="Inventory API&lt;div&gt;(AsyncAPI)&lt;/div&gt;" style="rounded=0;whiteSpace=wrap;html=1;fillColor=#ffe6cc;strokeColor=#d79b00;" vertex="1" parent="1">
          <mxGeometry x="610" y="280" width="120" height="60" as="geometry" />
        </mxCell>
        <mxCell id="RPptzQqUfsC-ALQ0HFax-7" value="" style="sketch=0;outlineConnect=0;fontColor=#232F3E;gradientColor=none;fillColor=#E7157B;strokeColor=none;dashed=0;verticalLabelPosition=bottom;verticalAlign=top;align=center;html=1;fontSize=12;fontStyle=0;aspect=fixed;pointerEvents=1;shape=mxgraph.aws4.cloudwatch_logs;" vertex="1" parent="1">
          <mxGeometry x="503" y="72.5" width="53.79" height="40" as="geometry" />
        </mxCell>
        <mxCell id="RPptzQqUfsC-ALQ0HFax-8" value="" style="image;aspect=fixed;html=1;points=[];align=center;fontSize=12;image=img/lib/azure2/security/Multifactor_Authentication.svg;" vertex="1" parent="1">
          <mxGeometry x="299" y="130" width="24.44" height="30" as="geometry" />
        </mxCell>
        <mxCell id="RPptzQqUfsC-ALQ0HFax-9" value="" style="outlineConnect=0;dashed=0;verticalLabelPosition=bottom;verticalAlign=top;align=center;html=1;shape=mxgraph.aws3.workdocs;fillColor=#D16A28;gradientColor=#F58435;gradientDirection=north;" vertex="1" parent="1">
          <mxGeometry x="290" y="327.5" width="40" height="50" as="geometry" />
        </mxCell>
        <mxCell id="RPptzQqUfsC-ALQ0HFax-10" value="" style="shape=image;verticalLabelPosition=bottom;verticalAlign=top;imageAspect=0;aspect=fixed;image=data:image/svg+xml,PHN2ZyB4bWxucz0iaHR0cDovL3d3dy53My5vcmcvMjAwMC9zdmciIHdpZHRoPSIyNTAwIiB2aWV3Qm94PSItNDguNTgzMTMxNzQgLTEzNi4yMjg1MzIgODc5LjQ5NTgyMDYyIDc3My45ODI0MTg4OCIgaGVpZ2h0PSIyNDUyIj48cGF0aCBmaWxsPSIjOTNkNTAwIiBkPSJtMTU4LjU3IDM0NC45M2gtMTU4LjI5Yy4wMy43OC4wNSAxLjU1LjA5IDIuMzIuMDYgMS40OS4xNyAyLjk3LjI2IDQuNDYuMDQuNjQuMDcgMS4yOC4xMiAxLjkxLjEyIDEuNzIuMjcgMy40NC40MyA1LjE1LjA0LjM5LjA3Ljc4LjExIDEuMTUuMTggMS45MS4zOSAzLjgyLjYxIDUuNzEuMDEuMTguMDMuMzcuMDYuNTUuMjUgMi4wNC41MSA0LjA5LjgxIDYuMTIgMCAuMDMgMCAuMDYuMDEuMDhhMjY2LjA1IDI2Ni4wNSAwIDAgMCA4LjE4IDM3LjRjLjAyLjA1LjA0LjEuMDUuMTUuNTcgMS45NCAxLjE3IDMuODYgMS43OCA1Ljc3LjA0LjExLjA4LjIzLjExLjM0cy4wNy4yMi4xMS4zNGMuNTYgMS43MyAxLjE1IDMuNDUgMS43NCA1LjE4LjE1LjQzLjMuODcuNDYgMS4zMS41MyAxLjQ5IDEuMDcgMi45OCAxLjYzIDQuNDguMjYuNjcuNTEgMS4zNC43NiAyLjAyLjQ5IDEuMjQuOTYgMi40NyAxLjQ1IDMuNy4zNy45My43NSAxLjg2IDEuMTQgMi43OC40Ljk3LjggMS45MiAxLjIxIDIuODkuNSAxLjE4IDEuMDMgMi4zNSAxLjU1IDMuNTMuMzEuNy42MyAxLjM5Ljk0IDIuMDkuNjQgMS40MSAxLjMgMi44MiAxLjk3IDQuMjIuMjIuNDUuNDMuOS42NSAxLjM0Ljc4IDEuNjIgMS41NyAzLjIxIDIuMzcgNC44LjE0LjI0LjI1LjQ5LjM4LjczLjkgMS43NiAxLjgyIDMuNTEgMi43NyA1LjI1LjA0LjA4LjA5LjE1LjEyLjI0LjIuMzYuNDIuNzEuNjIgMS4wN2wxMzUuMTktODEuNDMuNS0uM2MtNS4zMy0xMS4yNC04LjY1LTIzLjItOS44OS0zNS4zNXoiLz48cGF0aCBmaWxsPSIjNGQ1YTMxIiBkPSJtMTk3LjQ4IDQxNy42LS4zOC4zOC0xMTEuNSAxMTEuNDljLjU3LjUzIDEuMTQgMS4wOCAxLjczIDEuNTkgMS4wNC45NSAyLjEgMS44OCAzLjE1IDIuODEuNTUuNDggMS4wOC45NiAxLjYzIDEuNDQgMS4yNiAxLjA5IDIuNTQgMi4xNSAzLjgxIDMuMjIuMzUuMjkuNjguNTcgMS4wMy44NmEyNTUuNTc2IDI1NS41NzYgMCAwIDAgNC45MSAzLjk0YzEuNTggMS4yNSAzLjE3IDIuNDYgNC43OSAzLjY4LjA3LjA0LjEyLjA4LjE4LjEzYTI2Ni40OCAyNjYuNDggMCAwIDAgMjAuODYgMTQuMWMuMjQuMTYuNDkuMy43NC40NiAxLjM3LjgxIDIuNzMgMS42MiA0LjExIDIuNDJsMi41MiAxLjQ0Yy44LjQ2IDEuNTkuOSAyLjM5IDEuMzQgMS40NS43OSAyLjkgMS41OCA0LjM2IDIuMzUuMi4xMS40LjIyLjYxLjMyIDQuMDUgMi4xMiA4LjE3IDQuMDkgMTIuMzMgNS45OWwzLjk2LTkuNjEgNTYuMDgtMTM2LjE3LjItLjVjLTYuMTItMy4yOC0xMS45OS03LjE2LTE3LjUxLTExLjY4eiIvPjxwYXRoIGZpbGw9IiM2YmE0M2EiIGQ9Im0xODUuODcgNDA2LjQ5YTk1LjQ5MiA5NS40OTIgMCAwIDEgLTMuNDgtNC4xYy0xLTEuMjMtMS45Ni0yLjQ3LTIuODktMy43My0xLjA3LTEuNDQtMi4xMS0yLjktMy4xLTQuMzgtLjk5LTEuNDktMS45Ny0yLjk5LTIuODktNC41MWwtMTM1LjM2IDgxLjUzYzIuMDggMy40NiA0LjI0IDYuODIgNi40NiAxMC4xNC4wNy4xMi4xNC4yNC4yMi4zNS4wMi4wNS4wNS4wOC4wOC4xMy4wNy4xLjE0LjIyLjIxLjMzLjAxLjAxLjAyLjAyLjAyLjA0LjE4LjI2LjM2LjUyLjU0Ljc5LjAxLjAxLjAyLjAzLjA0LjA1cy4wMS4wMS4wMS4wMmMyLjM1IDMuNDcgNC43NyA2Ljg5IDcuMjYgMTAuMjMuMDUuMDcuMTEuMTQuMTYuMjEuMDYuMDcuMTEuMTQuMTYuMjEgMS4wOSAxLjQzIDIuMTcgMi44NiAzLjI5IDQuMjguMTUuMTkuMjkuMzcuNDUuNTUgMS4xNCAxLjQ3IDIuMzEgMi45MiAzLjUgNC4zNS4yOC4zNC41Ny42OC44NSAxLjAzIDEuMDcgMS4yOCAyLjE0IDIuNTUgMy4yMyAzLjgxLjQ3LjU0Ljk1IDEuMDkgMS40MyAxLjYyLjkzIDEuMDYgMS44NSAyLjEyIDIuOCAzLjE2LjUyLjU3IDEuMDYgMS4xNSAxLjU5IDEuNzIuMjQuMjcuNDguNTIuNzMuNzkuNjkuNzUgMS4zOCAxLjUgMi4wOCAyLjI0LjI4LjI5LjU4LjU4Ljg2Ljg4IDEuMjMgMS4yOCAyLjQ4IDIuNTcgMy43NCAzLjgzbDExMS42Ny0xMTEuNjVjLTEuMjgtMS4yOC0yLjQ4LTIuNi0zLjY2LTMuOTJ6Ii8+PHBhdGggZmlsbD0iIzRkNWEzMSIgZD0ibTMzMy44OCA0MTcuNTRjLTEuMjMuOTktMi40NyAxLjk2LTMuNzMgMi44OWwuMjcuNDcgODEuNDIgMTM1LjEzYzMuNzctMi40NiA3LjUtNSAxMS4xNC03LjY3IDcuODgtNS44MSAxNS41LTEyLjExIDIyLjg1LTE4Ljg5bC0xMTEuNTEtMTExLjQ5eiIvPjxwYXRoIGZpbGw9IiM5M2Q1MDAiIGQ9Im00MDAuMDEgNTU3LjE0LTIuNzYtNC41OS03Ni0xMjYuMTNjLTEuNTQuOTItMy4xMSAxLjc2LTQuNjggMi42LTEuNTkuODYtMy4xOCAxLjY1LTQuOCAyLjQyLTE0LjYgNi45Mi0zMC40IDEwLjQ2LTQ2LjIzIDEwLjQ2LTEwLjM3IDAtMjAuNzMtMS41LTMwLjc1LTQuNDktMS43MS0uNTEtMy4zOC0xLjE4LTUuMDYtMS43OC0xLjY5LS41OS0zLjQtMS4xMS01LjA2LTEuNzlsLTU2LjA0IDEzNi4wOC0yLjE5IDUuMzMtMS44OCA0LjU3LS4wMS4wMmMuMTQuMDYuMjkuMTEuNDMuMTcuMTYuMDYuMzEuMTEuNDYuMThoLjAyYy4wNC4wMi4wOC4wMy4xMS4wNCAxLjMyLjU1IDIuNjUgMS4wMSAzLjk4IDEuNTMgMS42Ny42NSAzLjMzIDEuMzEgNSAxLjkyLjg2LjMxIDEuNy42NyAyLjU1Ljk3aC4wMWEyNjcuNDIgMjY3LjQyIDAgMCAwIDU0LjE5IDEyLjk3Yy43My4wOSAxLjQ0LjE5IDIuMTcuMjkuNzUuMDkgMS41MS4xNiAyLjI3LjI1IDEuNDIuMTYgMi44NC4zMiA0LjI3LjQ2bDEuMDYuMDljMS43NS4xNyAzLjUuMzIgNS4yNC40NC42LjA1IDEuMi4wNyAxLjc5LjEyIDEuNTMuMSAzLjA2LjE5IDQuNTkuMjYuOTQuMDYgMS44OC4wOCAyLjgyLjEyIDEuMjIuMDQgMi40My4wOSAzLjY1LjEzIDEuNzUuMDQgMy41Mi4wNSA1LjI4LjA2LjQyIDAgLjgzLjAxIDEuMjUuMDIgMTQuNzUgMCAyOS41LTEuMjMgNDQuMDktMy42OC4yNC0uMDQuNDktLjA4Ljc0LS4xMSAxLjU0LS4yNyAzLjA4LS41NiA0LjYyLS44NC44OC0uMTcgMS43Ny0uMzQgMi42My0uNTEuOS0uMTkgMS44MS0uMzcgMi43MS0uNTcgMS41LS4zMSAzLS42NCA0LjUxLS45OS4yNy0uMDYuNTQtLjExLjgxLS4xOSAyMi4xOC01LjE2IDQzLjYtMTMuMTYgNjMuNzItMjMuNzV2LS4wMWMxLjMyLS42OSAyLjYxLTEuNDggMy45Mi0yLjIgMS41Ni0uODUgMy4xMS0xLjc0IDQuNjctMi42MyAxLjA3LS42MSAyLjE2LTEuMTggMy4yMy0xLjgyLjAxLS4wMS4wMi0uMDIuMDMtLjAyaC4wMWMuMDItLjAxLjAzLS4wMi4wNS0uMDNsLjAyLS4wMi0uMi0uMzMuMi4zM2MuMDEgMCAuMDItLjAxLjAzLS4wMS4wMi0uMDEuMDMtLjAyLjA1LS4wMy4wNi0uMDQuMTItLjA3LjE4LS4xMS4zNC0uMjEuNjktLjQxIDEuMDQtLjYyem0tMjAyLjQ3LTMwNi4yMmMxLjIzLTEgMi40OC0xLjk2IDMuNzMtMi45bC0uMjctLjQ2LTgxLjQyLTEzNS4xNGMtMy43OCAyLjQ3LTcuNTEgNS4wMi0xMS4xNiA3LjY5LTcuODcgNS44LTE1LjUgMTIuMDktMjIuODMgMTguODZsMTExLjUxIDExMS41eiIvPjxwYXRoIGZpbGw9IiM0ZDVhMzEiIGQ9Im03Ny44NiAxNDYuNGMtMS4yNyAxLjI3LTIuNDcgMi41OC0zLjcxIDMuODYtMS4yMyAxLjI5LTIuNDkgMi41Ny0zLjcgMy44N2EyNjYuMTU2IDI2Ni4xNTYgMCAwIDAgLTIyLjU2IDI3Ljk2Yy0uMzMuNDUtLjY1LjkzLS45OCAxLjM5LS43NiAxLjEyLTEuNTIgMi4yMy0yLjI2IDMuMzUtLjc4IDEuMTYtMS41NSAyLjM0LTIuMyAzLjUxLS4yOC40My0uNTYuODctLjgzIDEuMy0yNS42NSA0MC4yMy0zOS4zOSA4NS44Ni00MS4yNCAxMzEuODctLjA3IDEuNzktLjExIDMuNTgtLjE1IDUuMzYtLjAzIDEuNzgtLjA5IDMuNTctLjA5IDUuMzVoMTU3LjkzYzAtMS43OC4xNi0zLjU2LjI2LTUuMzUuMDktMS43OS4xMS0zLjU4LjI5LTUuMzYgMi4wNC0yMC41NiA5Ljk4LTQwLjY0IDIzLjgyLTU3LjUgMS4xMi0xLjM3IDIuMzktMi42NiAzLjYtMy45OCAxLjE5LTEuMzMgMi4zMS0yLjcgMy41OS0zLjk4em0zMjUuODUtMzkuMmMtLjIxLS4xMy0uNDQtLjI2LS42NS0uMzktMS4zOS0uODUtMi43OS0xLjY3LTQuMi0yLjQ5LS44MS0uNDctMS42My0uOTMtMi40NC0xLjM5LS44My0uNDYtMS42NC0uOTItMi40Ny0xLjM3YTkwMS40IDkwMS40IDAgMCAwIC00LjI5LTIuMzJjLS4yMy0uMTEtLjQ1LS4yMy0uNjgtLjM1LTkuMjYtNC44NC0xOC43Ny05LjEtMjguNDgtMTIuOC0uMjUtLjEtLjUtLjItLjc1LS4yOS0yLjEyLS43OS00LjI0LTEuNTgtNi4zOC0yLjMyYTI2Ny4wODQgMjY3LjA4NCAwIDAgMCAtNTMuMjEtMTIuNjNsLTIuMjItLjNjLS43NS0uMDktMS40OS0uMTYtMi4yMy0uMjQtMS40My0uMTctMi44NS0uMzMtNC4yOS0uNDctLjM5LS4wNC0uNzktLjA2LTEuMi0uMTEtMS42OS0uMTUtMy40LS4zLTUuMS0uNDNsLTEuOTktLjEyYy0xLjQ1LS4wOS0yLjkzLS4yLTQuMzgtLjI2LS43OC0uMDQtMS41Ni0uMDctMi4zMy0uMDl2MTU4LjI5YzguMTIuODQgMTYuMTcgMi41NyAyMy45OCA1LjIybDExNi41MS0xMTYuNDljLTQuMzMtMy04LjctNS45Mi0xMy4yLTguNjV6Ii8+PHBhdGggZmlsbD0iIzZiYTQzYSIgZD0ibTI2MC4zNiA2OC43Yy0xLjc5LjA0LTMuNTguMDQtNS4zNi4xMS0xMS4xNy40NS0yMi4zMiAxLjU5LTMzLjM4IDMuNDUtLjI0LjA0LS40OC4wOC0uNzMuMTItMS41NS4yNy0zLjA5LjU1LTQuNjMuODQtLjg3LjE3LTEuNzUuMzMtMi42My41LS45MS4xOC0xLjgxLjM3LTIuNzIuNTctMS41LjMxLTMgLjY0LTQuNDkuOTktLjI4LjA1LS41NS4xMi0uODIuMThhMjY3LjQ2NSAyNjcuNDY1IDAgMCAwIC02My43MyAyMy43NmMtMS4zMS43LTIuNTkgMS40OS0zLjkgMi4yLTEuNTYuODYtMy4xMiAxLjc0LTQuNjcgMi42My0xLjE1LjY3LTIuMzIgMS4yOC0zLjQ3IDEuOTYtLjAxLjAxLS4wMy4wMi0uMDQuMDItLjA4LjA1LS4xNi4xLS4yNC4xNC0uMy4xOS0uNjEuMzQtLjkxLjUybC4wMS4wMiAyLjc3IDQuNTkgNzguNzUgMTMwLjczYzEuNTQtLjkyIDMuMTEtMS43NyA0LjY4LTIuNjEgMS41OC0uODUgMy4xOC0xLjY1IDQuNzktMi40MWExMDcuMjUgMTA3LjI1IDAgMCAxIDM1LjM2LTkuOTFjMS43OC0uMTggMy41Ni0uMzMgNS4zNS0uNDIgMS43OC0uMDkgMy41Ny0uMTggNS4zNi0uMTh2LTE1Ny45MWMtMS43OSAwLTMuNTcuMDgtNS4zNS4xMXoiLz48cGF0aCBmaWxsPSIjNGQ1YTMxIiBkPSJtNTMxLjA1IDMyMS4xN2MtLjA4LTEuNDItLjE2LTIuODMtLjI2LTQuMjZhNzUuNCA3NS40IDAgMCAwIC0uMTQtMi4xMmMtLjExLTEuNjctLjI1LTMuMzQtLjQxLTUuMDEtLjAzLS40My0uMDctLjg2LS4xMS0xLjI5LS4xOC0xLjg3LS4zOC0zLjczLS42LTUuNTktLjAyLS4xNS0uMDMtLjMtLjA1LS40NWwtLjAzLS4yMWMtLjI0LTIuMDEtLjUxLTQuMDItLjc5LTYuMDJsLS4wMy0uMTlhMjY2LjQ1NCAyNjYuNDU0IDAgMCAwIC04LjE2LTM3LjMzYy0uMDMtLjA5LS4wNS0uMTYtLjA4LS4yNC0uNTctMS45MS0xLjE2LTMuOC0xLjc1LTUuNjktLjA5LS4yNS0uMTctLjUtLjI1LS43NS0uNTYtMS43MS0xLjEzLTMuNDEtMS43Mi01LjExbC0uNDgtMS4zOGMtLjUyLTEuNDctMS4wNi0yLjk0LTEuNi00LjQxLS4yNy0uNy0uNTMtMS40LS44MS0yLjA5LS40Ni0xLjIyLS45My0yLjQzLTEuNDItMy42My0uMzgtLjk3LS43Ny0xLjkyLTEuMTYtMi44Ni0uMzktLjk1LS43OS0xLjg4LTEuMTgtMi44Mi0uNTItMS4yLTEuMDUtMi40LTEuNTgtMy41OS0uMy0uNjctLjYtMS4zNS0uOTEtMi4wMy0uNjUtMS40Mi0xLjMyLTIuODUtMS45OS00LjI3LS4yMS0uNDItLjQyLS44Ni0uNjMtMS4yOS0uNzgtMS42Mi0xLjU4LTMuMjUtMi40LTQuODUtLjExLS4yMi0uMjMtLjQ1LS4zNC0uNjctLjkxLTEuNzctMS44NS0zLjU1LTIuNzktNS4zLS4wNC0uMDYtLjA3LS4xMy0uMTEtLjE5YTI2Ni45OSAyNjYuOTkgMCAwIDAgLTE1LjExLTI0LjUybC0xMTYuNTQgMTE2LjU0YzIuNjUgNy44MSA0LjM3IDE1Ljg2IDUuMjEgMjMuOTdoMTU4LjMyYy0uMDQtLjc5LS4wNi0xLjU4LS4xLTIuMzV6Ii8+PHBhdGggZmlsbD0iIzZiYTQzYSIgZD0ibTM3My40NSAzMzQuMjJjMCAxLjc5LS4xNyAzLjU3LS4yNiA1LjM2cy0uMTIgMy41OC0uMyA1LjM1Yy0yLjA0IDIwLjU3LTkuOTcgNDAuNjUtMjMuODEgNTcuNTItMS4xMiAxLjM3LTIuMzkgMi42NS0zLjYgMy45OC0xLjIgMS4zMi0yLjMxIDIuNjktMy41OSAzLjk3bDExMS42NyAxMTEuNjVjMS4yNy0xLjI3IDIuNDYtMi41OCAzLjctMy44N3MyLjUtMi41NiAzLjctMy44N2M4LjI2LTguOTUgMTUuODItMTguMzEgMjIuNjItMjguMDQuMjgtLjM5LjUzLS43Ny44LTEuMTUuODMtMS4xOSAxLjYzLTIuNCAyLjQ1LTMuNi43MS0xLjA4IDEuNDItMi4xNSAyLjExLTMuMjQuMzUtLjUyLjY5LTEuMDYgMS4wMi0xLjU4IDI1LjYxLTQwLjIxIDM5LjMyLTg1Ljc5IDQxLjE2LTEzMS43Ny4wNy0xLjc4LjExLTMuNTcuMTQtNS4zNi4wNC0xLjc4LjA5LTMuNTYuMDktNS4zNXoiLz48cGF0aCBmaWxsPSIjNDI0MTQzIiBkPSJtNTc4LjI3IDIxLjY5Yy0yOC44OS0yOC44OS03NS43My0yOC44OS0xMDQuNjIgMC0yMy4wNSAyMy4wNC0yNy42NiA1Ny40OS0xMy45MyA4NS4xNWwtMTYxLjE2IDE2MS4xNWMtMjcuNjYtMTMuNzItNjIuMTItOS4xMi04NS4xNyAxMy45Mi0yOC44OSAyOC44OS0yOC44OCA3NS43MyAwIDEwNC42MiAyOC45IDI4Ljg5IDc1Ljc1IDI4Ljg4IDEwNC42NCAwIDIzLjA1LTIzLjA1IDI3LjY1LTU3LjUgMTMuOTItODUuMTZsMTYxLjE2LTE2MS4xNGMyNy42NyAxMy43MiA2Mi4xMSA5LjEyIDg1LjE2LTEzLjkzIDI4Ljg5LTI4Ljg4IDI4Ljg5LTc1LjcyIDAtMTA0LjYxeiIvPjwvc3ZnPg==;" vertex="1" parent="1">
          <mxGeometry x="330" y="327.5" width="45.88" height="45" as="geometry" />
        </mxCell>
        <mxCell id="RPptzQqUfsC-ALQ0HFax-11" value="" style="shape=image;verticalLabelPosition=bottom;verticalAlign=top;imageAspect=0;aspect=fixed;image=data:image/png,iVBORw0KGgoAAAANSUhEUgAAAIAAAACACAQAAABpN6lAAAAABGdBTUEAALGPC/xhBQAAACBjSFJNAAB6JgAAgIQAAPoAAACA6AAAdTAAAOpgAAA6mAAAF3CculE8AAAAAmJLR0QA/4ePzL8AABrpSURBVHja7Z15gBTVtca/7tmHcYZtgEGGfZGI7FtAZFNBFjEEAVEQlEWUVWSGNZkk4ooaSKIxRoOaKEuMEWOeC2oS5ZmYuOEGQRYjm4ADA8g607/3R92qudXd093Dpu89zv1nqqqr6p5T95x7znfPuSOdo3N0js7ROfr/S4Fv5rVFyaX5ofNOVAtVI4tQ8vYgKV8k7yk69H9YAEWph/oVDyq5sCSvuMaeKruST0TpSm6o+rHqB6rtqflB1TeqrL5j5/8JAczP3zttV+8vmm7I/jpQuY41PN5ic/6a3EfuWPe/VAAzR+0cu6HzhzmlEVdqqI7qKFfZSlGWpBKFdEA7tEfbdDDi1xccaftm/bvvefV/kQDmdNp6+z96bUm1zzVXN7XRhWqmPKXFuHeXPtV6va2/a4Owzrc80un5/FsXbf/WW9UpBV33JCGvVecanuRLolEZxeynIvqKFYyltvWsrNDAdbP7f4tHwOSfvDnzwyru0XkaqtHqpSTv+nZ9qM3arC3arG06pKPeldqqpbpqpO+opdqphvXMkP6qp/SM9pnjoHpvbT/p3pe/dV9+xvh2JeXfqj3L+Np8yRAf8zCjaWh9y9itOaN5jG3WaDjMY3T0ridx+cY57b5FzM/p0PvzgOlcgCH8zev4uxRWgvHw1oof8JElhr/Rz1KHa58ryvwWMF+Ufu0fs0JutwbxL9PZXRTRPAZz13AX1yJEC+7iLpIr/OWF/Jj1nhD+QW/vSrMjt173DbN/2+BWh8qHvfvlP2MaGXG+7nJgJUIMBCDVutaU+hG/78DDHDLPX+2JNoVRrxalflPfPjjq+XTP1j9CGQAfcxVBq+NpDODOKOJYAawwowYgxbr2JPAxd3ExAd89uSyixNiEWbhzTbuSb8QezM/vsb184DsGaw+3RAzluQCs8glFiJXAcoQYDOC772EOmG+9jYdo47uvGj+jFIC3aGnO1SibOu0ssz/z+vNPuB1aZeb0n1I1ylD/qWHl7igCeBohrgQgyXc1jdfBMHpVxDPb8iYARygwgk1j3GNnkf2JD6SZrnRjKwCbuaQCXX8K+AsAk3znnwReQohxwJGwu1IpAabQjoVUifLUANezB4DnOM+cG7HmLLE/+pmg6cQ0jgPwuNeJyPYaMJJ7gFIGW+cLgBPcwiA+Ad4Ku6sfQJQJtC9NvL/r8QYAG2hhzgxcV5R8xg3fVW+7BmkNAIcYEdPafwQs5ncAHKC1d74G/7Fc4ivC7vo58G7Es2qxh68tlUjmbkLAXvqaM1d8UhQ8owIY/A/nRS3ZZIZ+G29Q9uRWbqFpWKd3GyZ3sAP4D3W9K3ncwxrWsoxuEaxuAYoizv4eKAmbIgdRDJzgGnM85L0zyP731zov6UMxAK9Rw7z2fNZ6X/N2q3vJlAG/pBtBLmQtCxPyC9sD0C7s7EgAJiJEQ2Z4ZvMitgOljDLHw/52htgf+bJ5gdH8P+J6AZl8ChxiDbvCzF1dAM6vpAtcl3msDvMBarMHKOMmAgRYAzznXWvAeqDUeJZi3KNngP3xi50ODfEMX/nMPQXYQT4ig9eBLZY3/zI3xXBzE2/PeNPiGn4EwHBf0P0WUMp1Zg6ZPuu0z/uOL3cFRwG4z/d9VgI/N3/3BCAnQbbyqBl1mouMHAAmcLWZ/OCPYb/I4X3gBAMc7yRU2O00sj+vde0yITpzGICfRXFqXrAEcMzn2fvbeT6fcDCLaWwdV/Gsir9N5jAvE0DksQ/YTW4UYW4CDtHJsQwHi7JOG4Tdea/zAsfhfTRMO8VkIMQsUmnIP4E/RGUiQHfOI5d5nkoMpgdikieC+kxBdIgwf07MmI8QNwNwddQ3NGUX8KWZiQa/f5oEcM2LjrP53wC84gtbXMd1nRW176ZR2PVMRAoLqGY8CEcEDvtC3ERjRH1uMcff5XuIINUj3tSQA14QFa214yCwkZqIAFMXnA7tH5fiuSbwSVR/X9Tmj4SAEC/TLOJqbwZTQLYV0Mzme1xs/WISPTz2hejKMGZRM+JJjXmTL6MM//J2LQCvkozIK53f4FSHf2bzI0JcSgg45MVf0VodOlhujt+zf5jv+86M4kHf3FCfpy0nVySxlLFRnxWMCbMI8QgAixHi8o2nZfhn8zmAmWQSa1neAE6lgGx6W+7u1fSgGrM9ETTgFsQkTwRJzKImXRnq3dEmwu5U3DJYB4To56jBjFMZ/j0yLZn+rlLzdoBp1PXYdwIZx4sfbnTfFUEDb/BPpInHvmMLRhl3t1+l3n0Bh4DPyUK0OFKUftIC6LlNiE6UATsrmKBii6AhBVak2IerPPaFqMpsmvh0fyLNfbrflVEM4vJKu02FAPwAIUavPGnnxxl2DtI37CS8tzSe80JVp/2Yub7ji/iDzxYk8XsL/hZiFneFiTWRN6fyKXCQ2ojqZfPyTkoAnYodfXXcz8RYTmKc5+g4g3+aFQkMozN9+J7lw99MVcsWJHEbNZhoRZQD6EV7RlpRQr0ERdAXgKVOGHUyyyhTCpwubQSO852Ev3ptZhJEpFLIeY4ZMiIYRmeE6M4QM6ff7ClCsse+owhNDV7c00SHI808M4NgwqNgBXCM+oic0IJGlRaA4/05PvgvKzXwazOTdMO+awvqeey7InDZd0WQ5rEvxASaeuy7IqjDjErMBaI+x4E7Hbjslcri/UOcV70DHDVOaOKtHs/7wqEAy8xXd9sIfuU7rsGfqOM78wvG+I4v4/FKsS/Eb4A9pCNyy4qqVkoA/Tc4sV+00KciJ1SW7jc2iuDqfhdutaCQJnSjLnlke60R1RhsOdkD6clky+2qx2zae6iPCJKVQJ++QwiMQ3XjI5Vgf25zB+p4ESj1RWuxjE4/Y/kLyELU8kRwNZ0QAWYaEeRRhQ7cwdOs9Noy5lCTPGMO3cF/k7E99biNAKKdEUGA6WHjpaL2HPAPxzc4XBns58/Oa0uB3yc84PrSjzQKvW9Ti1sJGvbliSCPNFZEzQc4wgSqk8wgC2KfzHfIZ7Y3+NtxDQGmk5dgn7oBmOhk5qiEw9/8E0L8EKBCvD9a68+jvqFZi8fp4rMFP6IayypMiQgxmEvo43vmrSz26X57nkiYfSH+CcyPER5HAZF3z/0iWQpqrKTP9EbC4yZNbfSsLrbO9NLv1N16RTO9rFyNjpGtsVhr1Vwp3pl8BfWxWlq/6KEn1bsSo/kJSSMkSWtbJwiR9N0iRA8A5sWVcI7RxgwWkmXZAjGcTp4iOGkP48ngHmJTB9JZgLPylM8UAoixxhYEmEEeoq2HAMf3T2pyHIw5venORBSgZpWQEPcDJGAAHY102Xc8/v6I4Z5Lm8tckmjOeESQDXEEsIRMclhAGvlM8d5yPRcSpNAb/I4I+iYUJawBZiceHE98wLltE/BhgkHPbdzj0/0+3OHz6HO5jwkG0IhHOwkicriXGb63jOV+n+Vvy6IEY8SpwGvOaCiLXDqLsAHbLpekNmos6fmEVCZDmdqjbOtMTX2hmtZxdX2hXCUrTfENcR21k5SjXTrPSqcLqra2+pKnwt9RMT0v6WLlSNob3Dcu7s+bHRFiDgBdE5BvJoVkEGC6hwY5g78cAGnBjYhcZpPMu8SnJeQwBZHNQmMLkphDHaMIzjMvpR+ijbcUErttBQOuDItn0xc0cQzWaqA4IqmhIvZdW1AXMYIOHhJ4hce+gyvVJZSAAHZ6761CIWkWQOKK4FJP9x0RxHORlwEPOIk2++IIYOosh5ndwCtx2b+ROVbyS4Bp3OSx74hggse+SGEqiVEHa51gLoU+cHQM432mrw03h2EOkW0i8HfzvHB8KMwGlHR25utcSf+MI6ygGqlMx7xjdEBNZad471RzfWXN4cMSnLvHyM1/Oyqpiuws+h1qrh2+1NpGqh/nee9Jaq8MSV+rZGjMnw5c50g5EQyoExle9O8Mzw4ELADkAm4wMJirAqUJjgBXCZzBX4VCbxn2Mi5DjKGVD31oHWf1MYMTYBbhxyxPAAVYDBCxvBEJO9kAyFgzcF0ROOzLE0EqN5A4dfaBo64IysFRRwTl4o8XG/4bjDIOjJ183+Sou9Z3PAETWP4Vxll6G2AaPT32HREMoyovVEIASzjfB45WoZChPt0fTS9fyB27vQQGW+y6J6YN2JvqeODSDoUS1NgvdUIt9Z5lC9Zokl6yfvGmGuqY+lTCgx+undquvd7x19qsgbIzH17ReL2WcB83S2ru9DYnlhtc1ZlQ/gO8GUemVa1vcZHPFrTkBgsJdNDBNIZSOepIPQsMHUAvny2ow0wCjOaiBLHihcA6MxfdnxFjGdwxPSeAp+I8spYZkG4nXBG0ZJzp0lTqGXzoPDJZXkkBLCHTA0MH0MvzOtI99svfHrCihujtZmCH+TtGXmnhJQ4+h+c4xGqXcrlljx0MqC3jLVswk2ZmYSTZpLgmTs5M0J6RPnA0k0Ia+MDRsXS0vNCK2nDgmLvS0K9CG1CWI8lE48fi6tUa9VWGPirHEfS+5uoxyxY8qPv1gg4qoEt8sUIi5MQE76qWuuiv3tnD+oMe1K+sYprHNVMbfJ5BNDooKVUOHEBuhQIgS5KSExTAGD2pTbrcO26jJpqqGd4j0zRdo3S5GipD15zEysQYZWqgPtCz1t31NETDNVUZnnM1TbNVWx3iPMsp3HI+wvHcCn82a5izYAGwIM6g6mAGvwuAtDHzrAuAuOhggBsJspPK006CJhxzwdB8A466EYgLkIjr42Qa9bKy1W4uipH9L0QzAAripjfZYGgba+m8FreSYYGjAbpyctTJiv5H+cDRTArJ9IGjVRMWwJTbKlSB4FFJKpMkxatCKPf5X1UDjdJvLVuwUqv0kOfBp2v4SS7PXufFBO+rWD/RYk/3D+vnWq7VVi/2x8EsHIWRpKSSigWwV5KKJUk5cTqXZen+13pZ/a2XjdMU3eJVix3VkJMUwNVeXVm+mmqJZQuCmqIZuk5eiZoFpEYHbCXpiCOAimVVlO0M2RPAI3FtQJ4VkZfbAhcdzGWeSWZtyclTRw8cdRThWrMuVEgdRKaXTN8rTm+vA8pMfwr6xpCUA4juAVbF9QOmk2fhsw4YaoOjjgjqU3QKAlhCdZM8V24LggYfKhd3X7rH6WsBsM+tYWkeQwDOksiGhDICAtzjy+4QV/CEzxrn8huS+fAUBLCDILeFrUEu94GjGfwmSk1JeLsf+MxN2YsVDNU65Bq4JnE1tI0+ULLqeseZ6qjl6mH9orfu1/lqdQpZSnnqpL/qQu84Sf30iOwx3F1/0EVxTXZdSVudJx6P+cPLNwrxK6AsTuFbkGssJLB8bi4HQ0fQgVRmcWq0hEwPDHURgnIw1EEH0+Iu4L8JPIwQXfbEDkNfddbjAC/Sir8wUtcCR10ROOBoiskvPTUlcAAQGxx1RHBpgulTAfYDc5z1y09jqkC1dyRpgySpRUKDFC3VKM3XUjPJSK/rqO7TZ3pHUhV1OcVMxTy1k/SEOuouPe4hBB/oI92noBJL/mmoHEkO5zU/iimA7BfKBdA6wS5mKFnFqmadaaDPlC8pWcN06iU8Y5SpJNXQVtWxrZU2xgVDy62VJP1LklQjTGZhS0VV3sjmQGCLSpTjM2cVU6amaomOaqqekbO7wVh9qHfUR0P0YlQc+GN9EsNYdY8s1NFMjdfj2qsxkok+B+mEfqk2Gq9fJ9DH9pJ2abukJFV7Ns6Pu+wV4gXgcIysf9cQZnoojQuGjvXQwfZU4VgUrb6UTJMYk08NsqlLbXNcnZpRkeMu3uTq4A/l4KgLv8RubwGrTbl1/OyQl8ozLbvFeXAX5ngglSOCaZbpDDI8CjMHfen2E5nmyxrPMEWWkTNBOQA3xWf6Wvr2mIjWalAKzDRldXEXR2s9K8mkRVwSR1jrdFTHLXO4X3VNJOH439GCoP/yee3FqqNdPp99ZcyYQNqnfN/iyy59GaeXlylJklNWWn91/PyArCohkcrXXnpRrJZtgaGjucgHhqZ4JdA2Daezt4wxjC4mJ9AthxhANVOFHn2xzEEHy8HQOgkkSz0F7CSASGZ+fgIm45LtbpFiKIEEidoGAHHRQRcMzaV/FEZOkEWWyQwtT510EuKc1MkUUxAbrgRZVvaYGE1rRB0rob6iVo0jnhPUriQhu37Dwy6M6DoP8fDhmVxv6X6AmfSnEUujMPIaqSYzdISVOSom05+pBkSfEuW+T0niSgscFWO5wuR9xG5TjOEVYuSfExLAgibJiEwOAe8l5GlN4W7fGk1bVlCVZ6MwMtXMLNez1GcMm7HCy/epGWUR/RDiHp9zXs+6I1Z7F9hNMiJA4cUJOg5d9rgLZESt4Aqv1WplpUKJNownQGMejCKAOl7qZA4FngiaMdXkBKoC9/kzM+VmWJmjAWrF7dvFVs543NyAcpqw1Mn6A/hNgqtvrghccDRocDibXiTVyxyVJ4JmZvC72WBpjI648z4yrYDLBUfjtz8BGOs0blnipVJVc0IiwEfA0bjzrC2CdhY4msLvfUyUcAEXWpmjIofZtPTYd0RwETeQzN99d37hZZ5nUkizhNlvQQhY6xRshuafXwn/28kTuNEqPEmk9ea3PluQwsOeZ/cxbUljThi80YFVPluQwjN8lyCZPONZgrepZ/mkzflTQonSzl4kgMGsrqxcWf2MPkFEOruAYlPwGK+14VqTE+h6dSNJpw5XMp6OJJHCUDqZokh5qZM5XlqkSGE+1bmeCwmQRgNGMo7WJFszTD5TyPR2DomXInkY2GSKMeb0qmQM1mOHENMAWJSQAJpYaZGy0MGupnbATZ10RdDcrCO6IiivLXUBkGbUs9Ii5aGDSQn1x8l0m4wQPSq/C930Sc6svBE4lLAdcMHQbAscFTfRyMocdUTQwkqfymEhWR77rggGW/VlbRnlA0cTqV7aAvyHdESAWSezNvfd3Y67CvBYpSo16vNKWAH9IxEVI78IG65rwpzaB8IqRvqxrFJ9GAVesUSfz08KiJg2PIAI8AYQ8nlh8So3C8m3asSdwT/JcqtbcKOvLjSVAs63bIFTWF2eFukUVrfx7UITu6WzBfiQJEQyc052D8I+W5yM7GPAJ3HRgXIBpFl1oeWpk64I3MHvisCtLXXSImXVlbvxhVtXHkxYAAsAzN4yAz88aTBqXuvskJBZ2ri9kiVLjghGWOlTk2ji0/2uDLVKa10RXGkhBGNoZZXVJ9pacxR4wrFIZSdRMmctTz7r1AF9DJSF1XIkIoLlvooR8cOw8OoSnrLK6kUVHo+oGFkU4XCNZFyMOvZ0PgD2Gkf5xgdPCZAsSne2y+vAMWBHAt633fLpbNWFOrmDk6wy+VQKuNRaXBPDucxKhRINGOHD/AP8wIPZnq5g5eLX1h4Tnb865Y2VCno764UzKtw/wj/5tAo7k8IoIwI3ddIVQarJH+rqicAprC7PBsuLwCMWAfBvs13PkxXkBWNmjJxQQVedOl3/tCP75yDuqvEtlPKzCGNVmyBNrdTJiTTx2HdswbWI4Z7uV2E6KVGMbj2OA+MRSfwCCEXsWzWQE8B6o1aT7tXpoT6fO3v1OOUuhTHCoeIKvkt4Jt/N3O3bgK09D4RZi4oWubd4mn4QrExCJ3v5kAm6hOi/XqeLZtVsftiJ/J3dnG6IUapaYvIGJtE+Bpzeiyt8qW1daBc3N9nZeO8rM1UG+Qp8nkFTvgRKudLZwunrO6vp9NHsnjXLHIDhKBAyHra/dScEvEoWoiXHKA3z/k6udeEey4gCPEw6yRQBByx/s5HZ3m2yqQ6a20Wnl2aMdozh9zkOlFmzuWv+3vOi9+GsAT5PaI+o2G2QleHpjjEoYR8AN1k7z+4Abwe6NM7IFpu3LEi1NlML8UOfXk8FQkyzqoL8+8Ykc6Vvxo+9AUsfI9S5wEZfiv6vDMKw1/oE7c2mfQuNckz4qc4M3bzQmZ6Gmg3VlnmWOpnNxvdKosDAX36mvgucSKgQfxiHgJ9wL9shCjBblyH0snyFy9hvdrIypvJZnTma/KM0UyXs5P7+xcvUy+VBE8/dCxyN2O3nB8DWKNXGq9nKep6zwNckD0or4e04eesBCikFTnhb+F39F51ZmjLTiQ9ascVsnNU/rGb/eNS44Q1veaK8fc8CwA9Ys0AqLwIh+jImyliyVWWVuXeQy/7rOvM0a1jtUmdZaq3ZQ3KR5R8O4iu2WouZ7h5yx6NUIb0FvE9HBnIIuMMXUf4V2Mv9MQr42/Gx8QsvcPecfElnhwo6tjroaP4is5K3ziqyrOkrnXOC2CuB0ojN0Yo9S/60t4BdjhK9A4SAx6MGPD80McEKgyOlMOEJnT0qyu6/3s3C/cKMg6VRrXwT9rKS14G3I659ZRxbZ/vlv0WAms4X/nnEfT3MZusHzA6jompo6iydbRr/UE7ISVN+0IyD3cywUB0X3XPpSx6yEGG3NGe6F+S8E8Ho+bzPo9ZWvE759TJjOV7xrEazI7MH6Jugea277Xb10V3K2Mq4sIgxjzGsZG+UKe1Tb3eHecD6uBNkAx4xE/B2RpdXrmwqqqVvioqC163KMJPXDWw2QtjO/Ig9/4J0Yq4pore3t3BM3zRgW5wVyIeM1h/gds/HrBoa/5C+aZo9oG2JG/tPNBvvwREeo3ccBP82FpsJrBlXmyXsaDuSDeUlo2T7+bG13VLPbfNa69tARcEJP6tb6s7h11j/YmMHS+me4EJGtNr0ATxq/H74jEKrLCL/REIbYpxFIdS86pVMaz/hXxitd77b88yiQ8KCyOAS5vKi2cMWjrKcvlbkUS005k935Zyefp/Wf7NT0PVfK16vj5eC2FNDdZWVTn1MG7RB6/Wpdmu/9mm/9itN6cpQujJUT/XUQC3VSk299MV9+i+t1osqz22pRt+1F4y5fYu+rXTbkEs3J/uMXwems8qEq4nSPv7MQnqGVYU3PnbdqtNt8c/Iv9oq7Lb5zrXddyT5zzZWazVTMzVVM1VX5H/I2a7N2qTN2qQP9GlYVXAW3Ta1fGDJg6e/r2fsn60Vpe6dsWXMvy74Min69WRlq6pydETHVaJSVZTAVTvUbmPjp2s9UHTgzPTzDP+7vaJgycjdwz/v8knt4kr+s70GJxrtzH+r1pOLXzizPTxr/3BxTqcDA4q7lDQszt2bXZyyL+K96apeVu1o9ZIa23L+nf3P7GcXfXF2+vUN/ctNaUGTY/W8BNltocNn5/9LnqNzdI7O0Tk6Rzb9D/sA9Z1CffjjAAAAJXRFWHRkYXRlOmNyZWF0ZQAyMDIyLTAzLTMwVDE4OjUzOjA1KzAwOjAw3VR4ogAAACV0RVh0ZGF0ZTptb2RpZnkAMjAyMi0wMy0zMFQxODo1MzowNSswMDowMKwJwB4AAAAASUVORK5CYII=;" vertex="1" parent="1">
          <mxGeometry x="319" y="170" width="30" height="30" as="geometry" />
        </mxCell>
        <mxCell id="RPptzQqUfsC-ALQ0HFax-12" value="" style="shape=image;verticalLabelPosition=bottom;verticalAlign=top;imageAspect=0;image=data:image/png,iVBORw0KGgoAAAANSUhEUgAACKgAAAfgCAYAAADoJPJ+AAAACXBIWXMAAAsTAAALEwEAmpwYAAAABmJLR0QA/wD/AP+gvaeTAAD0gklEQVR42uzavU1wS5qF0Q0GDiYuARABIZABEsbgceogSAEDaXxyQJoMSIEISAAfEw8D7fZGo/nrvt1V934/a0lPAiWd47w7AQAAAAD4zXTkolv+3UsAAAAAAAAAADBV73PSLc8daff8hxcBAAAAAAAAAGCKJgfdctWRj47UQAUAAAAAAAAAgGl6k9PuefnPYYqBCgAAAAAAAAAAM/Qxh91y15HP/zFOMVABAAAAAAAAAOBf0ZGzbnn9X4cpBioAAAAAAAAAAPyzepmj7nnoyNf/O04xUAEAAAAAAAAA4I/qbc478vZ3hykGKgAAAAAAAAAA/BG9znFHnjry/Q+PUwxUAAAAAAAAAAD4R3TkoiPvf2iYYqACAAAAAAAAAMDf0/ucdMvzPzVMMVABAAAAAAAAAOD/0uSgW6468vEvjVMMVAAAAAAAAAAA+O96k9PuefmXhykGKgAAAAAAAAAA/Fd9zGG33HXkc9o4xUAFAAAAAAAAAIAk6chZt7xOHaYYqAAAAAAAAAAA0Mscdc9DR76WjFMMVAAAAAAAAAAAfl+9zXlH3pYNUwxUAAAAAAAAAAB+T73OcUeeOvK9fJxioAIAAAAAAAAA8HvpyEVH3v+UYYqBCgAAAAAAAADA76P3OemW5z91mGKgAgAAAAAAAADw62ty0C1XHfn4S8YpBioAAAAAAAAAAL+u3uS0e17+smGKgQoAAAAAAAAAwK+pjznslruOfP7l4xQDFQAAAAAAAACAX0tHzrrl9YcYphioAAAAAAAAAAD8OnqZo+556MjXDzVOMVABAAAAAAAAAPj59TbnHXn74YYpBioAAAAAAAAAAD+3Xue4I08d+f5hxykGKgAAAAAAAAAAP6eOXHTk/YcephioAAAAAAAAAAD8fHqfk255/imGKQYqAAAAAAAAAAA/jyYH3XLVkY+fapxioAIAAAAAAAAA8OPrTU675+WnG6YYqAAAAAAAAAAA/Nj6mMNuuevI5087TjFQAQAAAAAAAAD4MXXkrFtef+phioEKAAAAAAAAAMCPp5c56p6Hjnz9EuMUAxUAAAAAAAAAgB9Hb3PekbdfZphioAIAAAAAAAAA8GPodY478tSR719unGKgAgAAAAAAAADw1+rIRUfef8lhioEKAAAAAAAAAMBfp/c56ZbnX3qYYqACAAAAAAAAAPDna3LQLVcd+fgtxikGKgAAAAAAAAAAf57e5LR7Xn6bYYqBCgAAAAAAAADAn6OPOeyWu458/nbjFAMVAAAAAAAAAIC1OnLWLa+/5TDFQAUAAAAAAAAAYJ1e5qh7Hjry9VuPUwxUAAAAAAAAAADm623OO/L22w9TDFQAAAAAAAAAAObqdY478tSRb8MUAxUAAAAAAAAAgKk6ctGRd4MUAxUAAAAAAAAAgKl6n5NueTZEMVABAAAAAAAAAJiqyUG3XHXkwwjFQAUAAAAAAAAAYKre5LR7XoxPDFQAAAAAAAAAAKbqYw675a4jn4YnBioAAAAAAAAAAFN15KxbXg1ODFQAAAAAAAAAAKbqZY6656EjX8YmBioAAAAAAAAAAFP1NucdeTMyMVABAAAAAAAAAJiq1znuyFNHvg1MDFQAAAAAAAAAAKbqyEVH3g1LDFQAAAAAAAAAAKbqfU665dmgxEAFAAAAAAAAAGCqJgfdctWRD2MSAxUAAAAAAAAAgKl6k9PueTEiMVABAAAAAAAAAJiqjznslruOfBqQGKgAAAAAAAAAAEzVkbNueTUcMVABAAAAAAAAAJiqlznqnoeOfBmNGKgAAAAAAAAAAEzV25x35M1YxEAFAAAAAAAAAGCqXue4I08d+TYUMVABAAAAAAAAAJiqIxcdeTcQMVABAAAAAAAAAJiq9znplmfDEAMVAAAAAAAAAICpmhx0y1VHPoxCDFQAAAAAAAAAAKbqTU6758UYxEAFAAAAAAAAAGCqPuawW+468mkIYqACAAAAAAAAADBVR8665dUAxEAFAAAAAAAAAGCqXuaoex468mX8YaACAAAAAAAAADBVb3PekTejDwMVAAAAAAAAAICpep3jjjx15Nvgw0AFAAAAAAAAAGCqjlx05N3Qw0AFAAAAAAAAAGCq3uekW54NPAxUAAAAAAAAAACmanLQLVcd+TDuMFABAAAAAAAAAJiqNzntnhejDgMVAAAAAAAAAICp+pjDbrnryKdBh4EKAAAAAAAAAMBUHTnrlldDDgMVAAAAAAAAAICpepmj7nnoyJcRh4EKAAAAAAAAAMBUvc15R96MNwxUAAAAAAAAAACm6nWOO/LUkW/DDQMVAAAAAAAAAICpOnLRkXeDDQMVAAAAAAAAAICpep+Tbnk21DBQAQAAAAAAAACYqslBt1x15MNIw0DFFwEAAAAAAAAATNWbnHbPi3GGDFQAAAAAAAAAgKn6mMNuuevIp2GGDFQAAAAAAAAAgKk6ctYtrwYZMlABAAAAAAAAAKbqZY6656EjX8YYMlABAAAAAAAAAKbqbc478maEIQMVAAAAAAAAAGCqXue4I08d+TbAkIEKAAAAAAAAADBVRy468m54IQMVAAAAAAAAAGCq3uekW54NLmSgAgAAAAAAAABM1eSgW6468mFsIQMVAAAAAAAAAGCq3uS0e16MLGSgAgAAAAAAAABM1cccdstdRz4NLGSgAgAAAAAAAABM1ZGzbnk1rJCBCgAAAAAAAAAwVS9z1D0PHfkyqpCBCgAAAAAAAAAwVW9z3pE3YwoZqAAAAAAAAAAAU/U6xx156si3IYUMVAAAAAAAAACAqTpy0ZF3AwoZqAAAAAAAAAAAU/U+J93ybDghAxUAAAAAAAAAYKomB91y1ZEPowkZqAAAAAAAAAAAU/Ump93zYiwhAxUAAAAAAAAAYKo+5rBb7jryaSghAxUAAAAAAAAAYKqOnHXLq4GEDFQAAAAAAAAAgKl6maPueejIl3GEDFQAAAAAAAAAgKl6m/OOvBlFyEAFAAAAAAAAAJiq1znuyFNHvg0iZKACAAAAAAAAAEzVkYuOvBtCyEAFAAAAAAAAAJiq9znplmcDCBmoAAAAAAAAAABTNTnolquOfBg/yEAFAAAAAAAAAJiqNzntnhejBxmoAAAAAAAAAABT9TGH3XLXkU+DBxmoAAAAAAAAAABTdeSsW14NHWSgAgAAAAAAAABM1cscdc9DR76MHGSgAgAAAAAAAABM1ducd+TNuEEGKgAAAAAAAADAVL3OcUeeOvJt2CADFQAAAAAAAABgqo5cdOTdoEEGKgAAAAAAAADAVL3PSbc8GzLIQAUAAAAAAAAAmKrJQbdcdeTDiEEGKgAAAAAAAADAVL3Jafe8GC/IQAUAAAAAAAAAmKqPOeyWu458Gi7IQAUAAAAAAAAAmKojZ93yarAgAxUAAAAAAAAAYKpe5qh7HjryZawgAxUAAAAAAAAAYKre5rwjb0YKMlABAAAAAAAAAKbqdY478tSRbwMFGagYqAAAAAAAAADAVB256Mi7YYJkoAIAAAAAAAAAU/U+J93ybJAgGagAAAAAAAAAwFRNDrrlqiMfxgiSgQoAAAAAAAAATNWbnHbPixGCZKACAAAAAAAAAFP1MYfdcteRTwMEyUAFAAAAAAAAAKbqyFm3vBoeSAYqAAAAAAAAADBVL3PUPQ8d+TI6kAxUAAAAAAAAAGCq3ua8I2/GBpKBCgAAAAAAAABM1escd+SpI9+GBpKBCgAAAAAAAABM1ZGLjrwbGEgGKgAAAAAAAAAwVe9z0i3PhgWSgQoAAAAAAAAATNXkoFuuOvJhVCAZqAAAAAAAAADAVL3Jafe8GBNIBioAAAAAAAAAMFUfc9gtdx35NCSQDFQAAAAAAAAAYKqOnHXLqwGBZKACAAAAAAAAAFP1Mkfd89CRL+MByUAFAAAAAAAAAKbqbc478mY0IBmoAAAAAAAAAMBUvc5xR5468m0wIBmoAAAAAAAAAMBUHbnoyLuhgGSgAgAAAAAAAABT9T4n3fJsICAZqAAAAAAAAADAVE0OuuWqIx/GAZKBCgAAAAAAAABM1Zucds+LUYBkoAIAAAAAAAAAU/Uxh91y15FPgwDJQAUAAAAAAAAApurIWbe8GgJIBioAAAAAAAAAMFUvc9Q9Dx35MgKQDFQAAAAAAAAAYKre5rwjb47/koEKAAAAAAAAAEzV6xx35Kkj3w7/koEKAAAAAAAAAEzVkYuOvDv4SwYqAAAAAAAAADBV73PSLc8O/ZKBCgAAAAAAAABM1eSgW6468uHILxmoAAAAAAAAAMBUvclp97w47ksGKgAAAAAAAAAwVR9z2C13Hfl02JcMVAAAAAAAAABgqo6cdcurg75koAIAAAAAAAAAU/UyR93z0JEvx3zJQAUAAAAAAAAApuptzjvy5ogvGagAAAAAAAAAwFS9znFHnjry7YAvGagAAAAAAAAAwFQduejIu8O9ZKACAAAAAAAAAFP1Pifd8uxgLxmoAAAAAAAAAMBUTQ665aojH471koEKAAAAAAAAAEzVm5x2z4sjvWSgAgAAAAAAAABT9TGH3XLXkU8HeslAxV8RAAAAAAAAgKk6ctYtrw7zkgxUAAAAAAAAAJiqlznqnoeOfDnKSzJQAQAAAAAAAGCq3ua8I2+O8ZIMVAAAAAAAAACYqtc57shTR74d4iUZqAAAAAAAAAAwVUcuOvLuAC/JQAUAAAAAAACAqXqfk255dniXZKACAAAAAAAAwFRNDrrlqiMfju6SDFQAAAAAAAAAmKo3Oe2eF8d2SQYqAAAAAAAAAEzVxxx2y11HPh3aJRmoAAAAAAAAADBVR8665dWBXZKBCgAAAAAAAABT9TJH3fPQkS/HdUkGKgAAAAAAAABM1ducd+TNUV2SgQoAAAAAAAAAU/U6xx156si3g7okAxUAAAAAAAAApurIRUfeHdIlGagAAAAAAAAAMFXvc9Itzw7okgxUAAAAAAAAAJiqyUG3XHXkw/FckoEKAAAAAAAAAFP1Jqfd8+JoLslABQAAAAAAAICp+pjDbrnryKeDuSQDFQAAAAAAAACm6shZt7w6lEsyUAEAAAAAAABgql7mqHseOvLlSC7JQAUAAAAAAACAqXqb8468OY5LMlABAAAAAAAAYKpe57gjTx35dhiXZKACAAAAAAAAwFQduejIu4O4JAMVAAAAAAAAAKbqfU665dkhXJKBCgAAAAAAAABTNTnolquOfDiCSzJQAQAAAAAAAGCq3uS0e14cvyUZqAAAAAAAAAAwVR9z2C13Hfl0+JZkoAIAAAAAAADAVB0565ZXB29JBioAAAAAAAAATNXLHHXPQ0e+HLslGagAAAAAAAAAMFVvc96RN0duSQYqAAAAAAAAAEzV6xx35Kkj3w7ckgxUAAAAAAAAAJiqIxcdeXfYlmSgAgAAAAAAAMBUvc9Jtzw7aEsyUAEAAAAAAABgqiYH3XLVkQ/HbEkGKgAAAAAAAABM1Zucds+LI7YkAxUAAAAAAAAApupjDrvlriOfDtiSDFQAAAAAAAAAmKojZ93y6nAtyUAFAAAAAAAAgKl6maPueejIl6O1JAMVAAAAAAAAAKbqbc478uZYLclABQAAAAAAAICpep3jjjx15NuhWpKBCgAAAAAAAABTdeSiI+8O1JIMVAAAAAAAAACYqvc56ZZnh2lJMlABAAAAAAAAmKrJQbdcdeTDUVqSDFQAAAAAAAAApupNTrvnxTFakgxUAAAAAAAAAKbqYw675a4jnw7RkmSgAgAAAAAAADBVR8665dUBWpIMVAAAAAAAAACm6mWOuuehI1+Oz5JkoAIAAAAAAAAwVW9z3pE3R2dJMlABAAAAAAAAmKrXOe7IU0e+HZwlyUAFAAAAAAAAYLru+TeHZkkyUAEAAAAAAABYxkBFkgxUAAAAAAAAAJYyUJEkAxUAAAAAAACApQxUJMlABQAAAAAAAGApAxVJMlABAAAAAAAAWMpARZIMVAAAAAAAAACWMlCRJAMVAAAAAAAAgKUMVCTJQAUAAAAAAABgKQMVSTJQAQAAAAAAAFjKQEWSDFQAAAAAAAAAljJQkSQDFQAAAAAAAIClDFQkyUAFAAAAAAAAYCkDFUkyUAEAAAAAAABYykBFkgxUAAAAAAAAAJYyUJEkAxUAAAAAAACApQxUJMlABQAAAAAAAGApAxVJMlABAAAAAAAAWMpARZIMVAAAAAAAAACWMlCRJAMVAAAAAAAAgKUMVCTJQAUAAAAAAABgKQMVSTJQAQAAAAAAAFjKQEWSDFQAAAAAAAAAljJQkSQDFQAAAAAAAIClDFQkyUAFAAAAAAAAYCkDFUkyUAEAAAAAAABYykBFkgxUAAAAAAAAAJYyUJEkAxUAAAAAAACApQxUJMlABQAAAAAAAGApAxVJMlABAAAAAAAAWMpARZIMVAAAAAAAAACWMlCRJAMVAAAAAAAAgKUMVCTJQAUAAAAAAABgKQMVSTJQAQAAAAAAAFjKQEWSDFQAAAAAAAAAljJQkSQDFQAAAAAAAIClDFQkyUAFAAAAAAAAYCkDFUkyUAEAAAAAAABYykBFkgxUAAAAAAAAAJYyUJEkAxUAAAAAAACApQxUJMlABQAAAAAAAGApAxVJMlABAAAAAAAAWMpARZIMVAAAAAAAAACWMlCRJAMVAAAAAAAAgKUMVCTJQAUAAAAAAABgKQMVSTJQAQAAAAAAAFjKQEWSDFQAAAAAAAAAljJQkSQDFQAAAAAAAIClDFQkyUAFAAAAAAAAYCkDFUkyUAEAAAAAAABYykBFkgxUAAAAAAAAAJYyUJEkAxUAAAAAAACApQxUJMlABQAAAAAAAGApAxVJMlABAAAAAAAAWMpARZIMVAAAAAAAAACWMlCRJAMVAAAAAAAAgKUMVCTJQAUAAAAAAABgKQMVSTJQAQAAAAAAAFjKQEWSDFQAAAAAAAAAljJQkSQDFQAAAAAAAIClDFQkyUAFAAAAAAAAYCkDFUkyUAEAAAAAAABYykBFkgxUAAAAAAAAAJYyUJEkAxUAAAAAAACApQxUJMlABQAAAAAAAGApAxVJMlABAAAAAAAAWMpARZIMVAAAAAAAAACWMlCRJAMVAAAAAAAAgKUMVCTJQAUAAAAAAABgKQMVSTJQAQAAAAAAAFjKQEWSDFQAAAAAAAAAljJQkSQDFQAAAAAAAIClDFQkyUAFAAAAAAAAYCkDFUkyUAEAAAAAAABYykBFkgxUAAAAAAAAAJYyUJEkAxUAAAAAAACApQxUJMlABQAAAAAAAGApAxVJMlABAAAAAAAAWMpARZIMVAAAAAAAAACWMlCRJAMVAAAAAAAAgKUMVCTJQAUAAAAAAABgKQMVSTJQAQAAAAAAAFjKQEWSDFQAAAAAAAAAljJQkSQDFQAAAAAAAIClDFQkyUAFAAAAAAAAYCkDFUkyUAEAAAAAAABYykBFkgxUAAAAAAAAAJYyUJEkAxUAAAAAAACApQxUJMlABQAAAAAAAGApAxVJMlABAAAAAAAAWMpARZIMVAAAAAAAAACWMlCRJAMVAAAAAAAAgKUMVCTJQAUAAAAAAABgKQMVSTJQAQAAAAAAAFjKQEWSDFQAAAAAAAAAljJQkSQDFQAAAAAAAIClDFQkyUAFAAAAAAAAYCkDFUkyUAEAAAAAAABYykBFkgxUAAAAAAAAAJYyUJEkAxUAAAAAAACApQxUJMlABQAAAAAAAGApAxVJMlABAAAAAAAAWMpARZIMVAAAAAAAAACWMlCRJAMVAAAAAAAAgKUMVCTJQAUAAAAAAABgKQMVSTJQAQAAAAAAAFjKQEWSDFQAAAAAAAAAljJQkSQDFQAAAAAAAIClDFQkyUAFAAAAAAAAYCkDFUkyUAEAAAAAAABYykBFkgxUAAAAAAAAAJYyUJEkAxUAAAAAAACApQxUJMlABQAAAAAAAGApAxVJMlABAAAAAAAAWMpARZIMVAAAAAAAAACWMlCRJAMVAAAAAAAAgKUMVCTJQAUAAAAAAABgKQMVSTJQAQAAAAAAAFjKQEWSDFQAAAAAAAAAljJQkSQDFQAAAAAAAIClDFQkyUAFAAAAAAAAYCkDFUkyUAEAAAAAAABYykBFkgxUAAAAAAAAAJYyUJEkAxUAAAAAAACApQxUJMlABQAAAAAAAGApAxVJMlABAAAAAAAAWMpARZIMVAAAAAAAAACWMlCRJAMVAAAAAAAAgKUMVCTJQAUAAAAAAABgKQMVSTJQAQAAAAAAAFjKQEWSDFQAAAAAAAAAljJQkSQDFQAAAAAAAIClDFQkyUAFAAAAAAAAYCkDFUkyUAEAAAAAAABYykBFkgxUAAAAAAAAAJYyUJEkAxUAAAAAAACApQxUJMlABQAAAAAAAGApAxVJMlABAAAAAAAAWMpARZIMVAAAAAAAAACWMlCRJAMVAAAAAAAAgKUMVCTJQAUAAAAAAABgKQMVSTJQAQAAAAAAAFjKQEWSDFQAAAAAAAAAljJQkSQDFQAAAAAAAIClDFQkyUAFAAAAAAAAYCkDFUkyUAEAAAAAAABYykBFkgxUAAAAAAAAAJYyUJEkAxUAAAAAAACApQxUJMlABQAAAAAAAGApAxVJMlABAAAAAAAAWMpARZIMVAAAAAAAAACWMlCRJAMVAAAAAAAAgKUMVCTJQAUAAAAAAABgKQMVSTJQAQAAAAAAAFjKQEWSDFQAAAAAAAAAljJQkSQDFQAAAAAAAIClDFQkyUAFAAAAAAAAYCkDFUkyUAEAAAAAAABYykBFkgxUAAAAAAAAAJYyUJEkAxUAAAAAAACApQxUJMlABQAAAAAAAGApAxVJMlABAAAAAAAAWMpARZIMVAAAAAAAAACWMlCRJAMVAAAAAAAAgKUMVCTJQAUAAAAAAABgKQMVSTJQAQAAAAAAAFjKQEWSDFQAAAAAAAAAljJQkSQDFQAAAAAAAIClDFQkyUAFAAAAAAAAYCkDFUkyUAEAAAAAAABYykBFkgxUAAAAAAAAAJYyUJEkAxUAAAAAAACApQxUJMlABQAAAAAAAGApAxVJMlABAAAAAAAAWMpARZIMVAAAAAAAAACWMlCRJAMVAAAAAAAAgKUMVCTJQAUAAAAAAABgKQMVSTJQAQAAAAAAAFjKQEWSDFQAAAAAAAAAljJQkSQDFQAAAAAAAIClDFQkyUAFAAAAAAAAYCkDFUkyUAEAAAAAAABYykBFkgxUAAAAAAAAAJYyUJEkAxUAAAAAAACApQxUJMlABQAAAAAAAGApAxVJMlABAAAAAAAAWMpARZIMVAAAAAAAAACWMlCRJAMVAAAAAAAAgKUMVCTJQAUAAAAAAABgKQMVSTJQAQAAAAAAAFjKQEWSDFQAAAAAAAAAljJQkSQDFfgbe3f+p3s+3nm86/SmN92kCR0iSEZGhyREkA2TpmmxJILEEg+C2MlGBhM0QxIktliSiMxgSElLtJCxjNvESam6r/d1V9eJklD2LUhbu0nr7Ts/ODMx1tPd9T2n7ruez8fj9Q/4wbnvq979uQEAAAAAAGBUBiqSZKACAAAAAAAAMCoDFUkyUAEAAAAAAAAYlYGKJBmoAAAAAAAAAIzKQEWSDFQAAAAAAAAARmWgIkkGKgAAAAAAAACjMlCRJAMVAAAAAAAAgFEZqEiSgQoAAAAAAADAqAxUJMlABQAAAAAAAGBUBiqSZKACAAAAAAAAMCoDFUkyUAEAAAAAAAAYlYGKJBmoAAAAAAAAAIzKQEWSDFQAAAAAAAAARmWgIkkGKgAAAAAAAACjMlCRJAMVAAAAAAAAgFEZqEiSgQoAAAAAAADAqAxUJMlABQAAAAAAAGBUBiqSZKACAAAAAAAAMCoDFUkyUAEAAAAAAAAYlYGKJBmoAAAAAAAAAIzKQEWSDFQAAAAAAAAARmWgIkkGKgAAAAAAAACjMlCRJAMVAAAAAAAAgFEZqEiSgQoAAAAAAADAqAxUJMlABQAAAAAAAGBUBiqSZKACAAAAAAAAMCoDFUkyUAEAAAAAAAAYlYGKJBmoAAAAAAAAAIzKQEWSDFQAAAAAAAAARmWgIkkGKgAAAAAAAACjMlCRJAMVAAAAAAAAgFEZqEiSgQoAAAAAAADAqAxUJMlABQAAAAAAAGBUBiqSZKACAAAAAAAAMCoDFUkyUAEAAAAAAAAYlYGKJBmoAAAAAAAAAIzKQEWSDFQAAAAAAAAARmWgIkkGKgAAAAAAAACjMlCRJAMVAAAAAAAAgFEZqEiSgQoAAAAAAADAqAxUJMlABQAAAAAAAGBUBiqSZKACAAAAAAAAMCoDFUkyUAEAAAAAAAAYlYGKJBmoAAAAAAAAAIzKQEWSDFQAAAAAAAAARmWgIkkGKgAAAAAAAACjMlCRJAMVAAAAAAAAgFEZqEiSgQoAAAAAAADAqAxUJMlABQAAAAAAAGBUBiqSZKACAAAAAAAAMCoDFUkyUAEAAAAAAAAYlYGKJBmoAAAAAAAAAIzKQEWSDFQAAAAAAAAARmWgIkkGKgAAAAAAAACjMlCRJAMVAAAAAAAAgFEZqEiSgQoAAAAAAADAqAxUJMlABQAAAAAAAGBUBiqSZKACAAAAAAAAMCoDFUkyUAEAAAAAAAAYlYGKJBmoAAAAAAAAAIzKQEWSDFQAAAAAAAAARmWgIkkGKgAAAAAAAACjMlCRJAMVAAAAAAAAgFEZqEiSgQoAAAAAAADAqAxUJMlABQAAAAAAAGBUBiqSZKACAAAAAAAAMCoDFUkyUAEAAAAAAAAYlYGKJBmoAAAAAAAAAIzKQEWSDFQAAAAAAAAARmWgIkkGKgAAAAAAAACjMlCRJAMVAAAAAAAAgFEZqEiSgQoAAAAAAADAqAxUJMlABQAAAAAAAGBUBiqSZKACAAAAAAAAMCoDFUkyUAEAAAAAAAAYlYGKJBmoAAAAAAAAAIzKQEWSDFQAAAAAAAAARmWgIkkGKgAAAAAAAACjMlCRJAMVAAAAAAAAgFEZqEiSgQoAAAAAAADAqAxUJMlABQAAAAAAAGBUBiqSZKACAAAAAAAAMCoDFUkyUAEAAAAAAAAYlYGKJBmoAAAAAAAAAIzKQEWSDFQAAAAAAAAARmWgIkkGKgAAAAAAAACjMlCRJAMVAAAAAAAAgFEZqEiSgQoAAAAAAADAqAxUJMlABQAAAAAAAGBUBiqSZKACAAAAAAAAMCoDFUkyUAEAAAAAAAAYlYGKJBmoAAAAAAAAAIzKQEWSDFQAAAAAAAAARmWgIkkGKgAAAAAAAACjMlCRJAMVAAAAAAAAgFEZqEiSgQoAAAAAAADAqAxUJMlABQAAAAAAAGBUBiqSZKACAAAAAAAAMCoDFUkyUAEAAAAAAAAYlYGKJBmoAAAAAAAAAIzKQEWSDFQAAAAAAAAARmWgIkkGKgAAAAAAAACjMlCRJAMVAAAAAAAAgFEZqEiSgQoAAAAAAADAqAxUJMlABQAAAAAAAGBUBiqSZKACAAAAAAAAMCoDFUkyUAEAAAAAAAAYlYGKJBmoAAAAAAAAAIzKQEWSDFQAAAAAAAAARmWgIkkGKgAAAAAAAACjMlCRJAMVAAAAAAAAgFEZqEiSgQoAAAAAAADAqAxUJMlABQAAAAAAAGBUBiqSZKACAAAAAAAAMCoDFUkyUAEAAAAAAAAYlYGKJBmoAAAAAAAAAIzKQEWSDFQAAAAAAAAARmWgIkkGKgAAAAAAAACjMlCRJAMVAAAAAAAAgFEZqEiSgQoAAAAAAADAqAxUJMlABQAAAAAAAGBUBiqSZKACAAAAAAAAMCoDFUkyUAEAAAAAAAAYlYGKJBmoAAAAAAAAAIzKQEWSDFQAAAAAAAAARmWgIkkGKgAAAAAAAACjMlCRJAMVAAAAAAAAgFEZqEiSgQoAAAAAAADAqAxUJMlABQAAAAAAAGBUBiqSZKACAAAAAAAAMCoDFUkyUAEAAAAAAAAYlYGKJBmoAAAAAAAAAIzKQEWSDFQAAAAAAAAARmWgIkkGKgAAAAAAAACjMlCRJAMVAAAAAAAAgFEZqEiSgQoAAAAAAADAqAxUJMlABQAAAAAAAGBUBiqSZKACAAAAAAAAMCoDFUkyUAEAAAAAAAAYlYGKJBmoAAAAAAAAAIzKQEWSDFQAAAAAAAAARmWgIkkGKgAAAAAAAACjMlCRJAMVAAAAAAAAgFEZqEiSgQoAAAAAAADAqAxUJMlABQAAAAAAAGBUBiqSZKACAAAAAAAAMCoDFUkyUAEAAAAAAAAYlYGKJBmoAAAAAAAAAIzKQEWSDFQAAAAAAAAARmWgIkkGKgAAAAAAAACjMlCRJAMVAAAAAAAAgFEZqEiSgQoAAAAAAADAqAxUJMlABQAAAAAAAGBUBiqSZKACAAAAAAAAMCoDFUkyUAEAAAAAAAAYlYGKJBmoAAAAAAAAAIzKQEWSDFQAAAAAAAAARmWgIkkGKgAAAAAAAADbahiGPbPZ7GrT6fTUJLc595lnPNcfmiXJQAUAAAAAAADg20py5DnnnPM9SW7S3bdPcr+qemySZ1XVy5O8OclGkn9JcnGS4f/2gVed6Y/MkmSgAgAAAAAAAOxGGxsbx1XV9br7FlV1l+5+cJIndvfzkyx399uT/FOSz37t4OSyZqAiSQYqAAAAAAAAwAIZhmHPxsbG1fe/dHKnJA9N8tSqekmSv0nyziQfSHL+FRmdGKhIkoEKAAAAAAAAsIAmk8kRq6ur19r/4sndkjw6yTO7+1VJ/n7/8OQrB2t4YqAiSQYqAAAAAAAAwBzZ2to6uqquN5vNfqaqfrm7fzvJc6vqrCSrST6W5JKdNj4xUJEkAxUAAAAAAABgB0hybJIfrKrTktyvqp6Q5EVJXp9kluTT8zg8MVCRJAMVAAAAAAAA4CBJcmSS61fVad39oCRP3/+zO6tJPrXI4xMDFUkyUAEAAAAAAAC2wTAMe1ZXV6+V5Keq6r5JfjfJy7r77Uk+PK8/vWOgIkkGKgAAAAAAAMBBMgzDUpKTp9Ppzbr7Hkke190vTvKmJO9N8hVDEwMVSTrYfeHMW3w4ye9194Or6rSqul6SI/3LDQAAAAAAADtUkmOT3Kiq7pzk0Ume092vS7IvyRcNSQxUJGmn9Zln3uGb/f/qxUk+UFVvTfInSX6nu+8xm81+bGVl5arDMCz5Vx8AAAAAAABGNJlMjuju76+qM7r7MUleuP8PeB8xFDFQkaQFGah8pz6fZL2qzkryzCQP7e7T19fXf2Bzc/MonxYAAAAAAADgAAzDsDSbzU6pqlt394OTPKuqzk7yz0kuMggxUJGkXT5Q+XZdkuTDSSbd/dLufnxV/WKSG00mkyv5lAEAAAAAAMCus76+flJV/Xh33yfJmVX16iSzJOcbfRioSJKByrZ36f6fDvq7JM9J8pAkt5nNZqf42SAAAAAAAADm2mQyudJ0Oj21u38+yeO6+6VJ3pHkU4YdBiqSZKByh53y/+VfzFe9Isl/6e57zGazH05yrE8zAAAAAAAA7Bj79u27SpKfqqpfS/K8JG9K8sH9/7W2EYeBiiRpZw9Uvl0f2v/v+vO6++FVddrq6uq1vLoCAAAAAADAaFZXV6/c3beoql+tqj9K8uYkHzfSMFDxh2ZJWtiByrfq/CSz7n5Vdz+pqn6pqn50Y2PjOJ+YAAAAAAAAOCAbGxvHzWazH0tyvyTP7O43JvmwMYYMVCTJQOUA+mh3v6WqXpDkkVV12yTX9OoKAAAAAADALjWZTK40nU5/pLvvneTpVXV2kvf7aR4ZqEiSgcoInZtksv/ngh48m81uuXfv3hN8IgMAAAAAAFgQm5ubR1XVD3X3PZOcmeS1Sd6T5BIDCxmoSJKByiHuQ0len+TpSe6V5Eabm5tH+QQHAAAAAACwQw3DsDSdTq9dVXdO8rtJlpNsJrnIH79koCJJBipz1EVJ/rG7X9Xdj+/uO62trV13GIY9PvEBAAAAAAAcRJPJ5IjpdHrq/p/neVZVvXX/0/n+qCUDFUkyUFnUzkvyziR/muRRSW6T5GSfDAEAAAAAALbBxsbGcd19iyQPraqXdPc0yb/5I5UMVCTJQEUZknyyu9/S3X9YVQ+YTqc3S3KsT5EAAAAAAADfwmw2u1qS21XVY7v7VUn+Kcml/vAkAxVJMlDRZerSJFtJ/jrJmUnunuT6wzAs+cQJAAAAAADsGsMw7Ely/aq6W3c/LcnfJvm4PybJQEWSDFQ0ap9PMkny7O6+d3f/x+Xl5cN9OgUAAAAAAObe5ubmUVX1o919/yTPS/L3Sb7gD0QyUJEkAxXtiL7U3f/Q3c/v7vvPZrMfTnKkT7EAAAAAAMCONZlMjujuGyd5YFW9JMksyYX+8CMDFUmSgcpc9ZX6qpdU1a9Np9ObTSaTK/m0CwAAAAAAHHTDMCxV1fW6+55Jnp3kHUm+5A86MlCRJBmoLGQXJ9lI8rIkj6yqn9zc3Dzep2IAAAAAAGBbbWxsXD3JHZM8pbvfmORcf6iRgYqBiiQZqOzqLk3yT0n+R5Lf6u7/tG/fvqv45AwAAAAAAByQzc3N46fT6a2S/FaS5SQf8gcYyUBFkgxUdIB9oLv/qrsf392339jYuLpP2AAAAAAAsMslOTLJTZI8pLtfmuQfk1ziDyuSgYokGahoG/tYVZ2d5IlVdVqSE30SBwAAAACABTUMw561tbX/0N33SfLcJO9McoE/mEgGKpJkoKJD8PNAm9390u5+UHffeHl5+XCf2AEAAAAAYA4lObG7T09yZpI3J/mcP4ZIBiqSZKCiHdp5Sd6W5BlVdZfpdHoNn+gBAAAAAGCHGYZhaX19/fu6+95JXphkY/9/meqPHZKBiiQZqGhe+1BVvbq7HzObzW45mUyu5JM/AAAAAAAcREmOnM1mP5bk0UmWk3zcHzAkAxVJMlDRgndhkrUkz0tyr6q63jAMS74dAAAAAADANtn/cz23T/LU/U+ff8kfKCQDFUkyUJHy6SSvr6onzGazn11dXb2ybw8AAAAAAHAAhmFYWltbu2533yfJi5Ls83M9koGKJBmoSAfUpUneleTPuvtBSW60vLx8uG8ZAAAAAADsekmOnE6nN+vuxyR5TZJP+MOCZKAiSQYq0rZ13v5XCJ9eVXfZ2Ni4um8hAAAAAAAsvPX19ZOq6g7d/bQkEz/XIxmoSJKBinTQ++ckf1pVv7K2tnbdYRiWfFMBAAAAAGCuraysXDXJXZM8J8k5fq5HMlCRJAMV/45ox/Wx7n5VkocludEwDHt8kwEAAAAAYEfbt2/fVarqzt39h0nWDVIkAxVJkoGK5q7PJnl9VT12NpvdcnNz8yjfdAAAAAAAOKSSnNjdP5fk2UnaIEUyUJEkGaho4fpykrcleUpVnba5uXm8b0IAAAAAAIxqdXX1ylV1RpJnVlUlucTBXjJQkSQZqGhXdXF3T/eP1O+a5GTflAAAAAAAuEL27t17Qnffvrt/P8lakosd5CUZqEiSgYr0db27ql7S3feZzWbX8U0KAAAAAIBva3Nz8/juPj3JM5KsGqRIMlCRJAMV6XL0kSSvTPKQ6XR66jAMe3zbAgAAAADYxTY2No6rqttW1X+tqpUkFzmmSzJQkSQDFWmb+0x3vy7JbyW5eZIjfRsDAAAAAFhgk8nkiOl0+hNV9eQke5Nc6FguyUBFkgxUpIPc+VX1d93920lu4oUVAAAAAIAFkOT6SR6a5K+TfMExXJKBiiQZqEg77YWVqjorycOq6gbDMCz5JgcAAAAAsMOtr6+f1N2/kORFSd7v2C3JQEWSDFSkOetj3f3fk9xvOp1e27c8AAAAAIAd4Gt/tqeqVpJc4qAtyUBFkgxUpAXqvfsH+HdPcrJvgQAAAAAAB4mf7ZFkoCJJBirSLm49ybOr6ozNzc3jfUMEAAAAANgmfrZHkoGKJBmoSPqmXdTd/5DkzOl0equtra2jfYMEAAAAADhAfrZHkoGKJBmoSLpcfTnJm5M8bjqd3mx5eflw3zABAAAAAL6Gn+2RZKAiSQYqkra9z+3/jvXI2Wx2w2EYlnz7BAAAAAB2la2traOT3C7Jc5O8z+FYkoGKJBmoSBq9f0nyyqp6wGw2u45vpgAAAADAQprNZqckeeD+/4LvfMdhSQYqkmSgIumQtpXkeVV1RpJjfWsFAAAAAObSMAx7ktw8yZlJ2vFXkoGKJBmoSNqxXZDkTVX160l+0M8BAQAAAAA7WpITk9w9yV8k+ZQjryQDFUmSgYo0l32ou19cVXfZu3fvCb7tAgAAAACH1DAMS0l+MMlvJnlbkoscciUZqEiSDFSkherCJJOqemx339jrKgAAAADAQbG1tXV0ktsleW6S9znWSjJQkSQZqEi7qo9390uT3H19ff0k35IBAAAAgG0zm81OSfLAJH+d5HwHWUkGKpIkAxVJSS5OsjfJE7v7psMw7PENGgAAAAA4YMMw7Ely8yRnJmlHV0kyUJEkAxVJB9Cnq+rlSe6V5GTfrgEAAACAb7CysnJMVd25qv48yaccViXJQEWSDFQkXYEuTbKW5Cmz2eyWy8vLh/vmDQAAAAC71Pr6+kndfZ+qOivJlxxQJclARZIMVCSN1Ger6tVJ7jedTq/hGzkAAAAALLjZbHZKkocmeXOSixxJJclARZIMVCQdgtaTPH02m/3MZDI5wrd1AAAAAFgA6+vrP1BVj03yTkdQSTJQkSQDFUk78HWVlye5++rq6pV9iwcAAACAOTEMw1J33zTJU5O8y7FTkgxUJMlARdKcdGGSN3X3w6fT6bV9wwcAAACAHWYymRxRVbdO8twkH3bUlCQDFUkyUJG0AM2q6slJbjIMw5Jv/wAAAABwCKysrBzT3Xeqqj9Pcq7DpSQZqEiSgYqkBe6jSf64u0/f2to62lUAAAAAAEa0vr5+Unffu7v/Ksn5DpSSZKAiSQYqknZh5yV5TVXdd2Vl5aquBQAAAACwDZJcM8lDkrxp/+9xO0ZKkoGKJBmoSNJXu7i7357kN7r7+10RAAAAAOAySHLNqnpEknckudTBUZIMVCTJQEWSDqh3J3nGbDa75fLy8uEuDAAAAADwdTY2Nq6e5KH7/8svoxRJMlCRJAMVSbpifaq7X1pVd0lyrMsDAAAAALtWkpO7+0FV9dYklzgeSpKBiiQZqEjSKP1bVZ2d5IHT6fQaLhIAAAAALLx9+/ZdpaoekOR/JrnYkVCSDFQkyUBFkg56q939+Ol0euowDEuuFQAAAAAshCQnVtWvJHlDkgsdAiXJQEWSDFQkacf0/qr6o6r6yWEY9rhiAAAAADBX9u7de0J337u7X5fkKw5+kmSgIkkGKpK04/tEdz9/Op3eanl5+XDXDQAAAAB2pI2NjeO6+55JXpvkAoc9STJQkSQDFQMVSXPbp7r7xVV12mQyOcLVAwAAAIBDKsmxVfWLSZaTfNkBT5IMVCRJBiqSFq5zk/xZd99+c3PzKNcQAAAAAA6KyWRypSR37e5XJTnfoU6SDFQkSQYqknZNn0vyF939c1tbW0e7kgAAAACwrZaXlw+vqtsm+W9JvuggJ0kGKpIkAxVJu74vJHlFkruurKwc43oCAAAAwOUyDMPSdDr9kSTPSvIJhzdJMlCRJBmoSNK36PyqenVV/eLGxsZxrioAAAAAfEfT6fTaSR6X5F0ObJIkAxVJMlCRpMvYl6vqrKr65b17957g0gIAAADA/5PkxKp6QJJJkksd0yRJBiqSZKAiSdvQBd39uqq67/r6+kkuMAAAAAC70Obm5lHdfacky0kucDSTJBmoSJKBiiSN2IVJ3tDd919ZWbmqywwAsF2q6tZJzvS/BADADjIMw1J336KqXpDkXMcxSZKBiiQZqEjSIeiiJG/q7gdvbGxc3cUGALg8Njc3j+/u5+//fPEK/4sAAOwA3f39VfXkJO9zBJMkGahIkoGKJO2gLknytiQPm06n13DFAQAOxP5XUz7wNZ8pDFQAAA6VJCd398OTvNOxS5JkoCJJBiqSNA9jle5+S3ffP8mJrjsAwNf7uldTBgMVAIBDZGVl5Zgkd6+qs/c/l+u4JUkyUJEkAxVJmscuqKqzqupuKysrx7j6AADf5NUUAxUAgINpGIY9VXXr7n5pki84YEmSDFQkyUBFkhasLyb5iyS3m0wmR7gGAcDu8m1eTTFQAQA4GGaz2XW6+0lJPuRQJUkyUJEkAxVJ2iV9KsnzuvsWwzAsuRABwGL7Dq+mGKgAAIxlMplcqap+ubvfkuRSRylJkoGKJBmoSNIu7gPd/bTZbHZDVyMAWCwH+GqKgQoAwHYahmEpyU2q6gVJPuf4JEkyUJEkAxVJ0je0keRxs9nsOq5JADDfLsOrKQYqAADbYW1t7buSPCrJOY5MkiQDFUkyUJEkHXDvSPLQJCe7MAHA/Lgcr6YYqAAAXF7Ly8uHd/fpSZaTfMVBSZJkoCJJBiqSpMvdRUne0N332bt37wkuTwCwc13OV1MMVAAALscHr+sleWqSjzoeSZIMVCTJQEWStO19uapeXVV33tzcPMo1CgB2hiv4aoqBCgDAgUhybFXdN8nEkUiSZKAiSQYqkqSD1meT/ElV3XoYhj2uVABwaGzDqykGKgAA38owDEtV9ePd/eIkX3AQkiQZqEiSgYok6ZD2sSTPSnKTYRiWXK8AYHzb+GqKgQoAwNebzWZXS/IbSd7l8CNJMlCRJAMVSdKO7D3d/aT19fUfcM0CgHFs86spBioAAIcddthhk8nkiCR3rKqzklzkyCNJMlCRJAMVSdLctJbkofv27buKKxcAXHEjvZpioAIA7G6rq6vXqqonJ/m4Y44kyUBFkgxUJElz3VeS/GVV3WEymRzh8gUAl92Ir6YYqAAAu88wDHu6+/Qkf5PkEscbSZKBiiTJQEWSFq5PdPfvz2azG7qGAcB3dhBeTTFQAQB2j9lsdrWqemyS9zvSSJIMVCRJBiqStDvq7mmSh62srFzVhQwAvtFBejXFQAUAWGzDMCx1908neeX+Z14dZiRJBiqSJAMVSdq9PwG0XFVn+AkgADjor6YYqAAAiynJiVX1iCTvcnyRJBmoSJIMVCRJX9e/VNUfTKfTU13SANiNDsGrKQYqAMBi6e6bJvmzJF9yaJEkGahIkgxUJEl+AggA/t0hfDXFQAUAmH9Jjq2qB1RVOapIkgxUDFQkyUBFknQFfgLoNUnu6CeAAFhEh/jVFAMVAGB+zWazGyZ5bpLPO6BIkmSgIkkGKpKk7fwJoCTP9BNAACyCHfJqioEKADBftra2jq6qX6qq/+1QIkmSgYokGahIksauqqq7H+4ngACYRzvo1RQDFQBgPqytrV03yTOSfNphRJIkAxVJMlCRJPkJIAD41nbgqykGKgDAzrW8vHx4d9+pu9+Y5FJHEEmSDFQkyUBFkrRD+mSSZ1XVD7niAbDT7NBXUwxUAICdJ8mJVfXrSd7v2CFJkoGKJBmoSJJ2eKmqR6ytrX2Xyx4Ah9IOfzXFQAUA2Dmq6gZV9YIk5ztsSJJkoCJJBiqSpDnrwiR/OZvNfnYYhj2ufQAc5L+x7PRXUwxUAIBDaxiGPVV1h6r6O0cMSZIMVCTJQEWStCC9L8njVldXv9sFEIAxzdGrKQYqAMChsXfv3hOq6hFJ3uNgIUmSgYokGahIkha0i5K8pqpu61UVALbbnL2aYqACABxcSa5fVX+U5AsOFJIkGahIkoGKJGkX9YEk/3k6nV7DlRCAK2JOX00xUAEAxjcMw1JVnZbk9UkudYyQJMlARZIMVCRJu/lVlao6q7tP96oKAJfVHL+aYqACAIxnY2PjuCQPSbLp8CBJkoGKJBmoSJL0DX2wqp6Q5JquiQB8OwvwaoqBCgCw/dbX178vyTOTfM6RQZIkAxVJMlCRJOk7dnGS13b37ZeXlw93YQTgay3IqykGKgDA9tj/Mz63TvLaJJc4KkiSZKAiSQYqkiRdrj6U5Imz2ewUV0eA3W3BXk0xUAEArpiVlZVjqupXk2w4HkiSZKAiSQYqkiRt66sqf1NVZ3hVBWD3WcBXUwxUAIDLZzabnZLk6UnOdSyQJMlARZIMVCRJGrWPJPnd1dXVa7lMAiy2BX41xUAFALhsptPpqUleluRChwFJkgxUJMlARZKkg9olVXV2d/+cV1UAFs+Cv5pioAIAfGfDMCwluU13v9ERQJIkAxVJMlCRJGlH9NGqevJ0Or22CybAfNslr6YYqAAA39pkMjmiu++Zr/KlX5IkAxVJMlCRJGkHvqqS5G+7+06TyeQIV02A+bKLXk0xUAEAvtHGxsZxSR6V5IO+4EuSZKAiSQYqkiTNTR9L8pQk3+vKCbCz7cJXUwxUAIB/t7q6+t3d/bQkn/VlXpIkAxVJMlCRJGluu7Sqzk5yu2EY9rh8Auwsu/TVFAMVAOCww6rqBkn+JMkFvrxLkmSgIkkGKpIkLVTvSfLI1dXVK7uEAhxau/zVFAMVANithmFYSvJT3f06H4QkSTJQkSQDFQMVSdLCd16SP57NZjd0HQU4+LyaYqACALvO8vLy4d39C0ne6QOQJEkGKpIkAxVJ0q7sfyW562QyOcLFFGBcXk0xUAGAXWdlZeWYJA9JsuWDjyRJBiqSJAMVSZKSfDjJ7yQ52QUVYPt5NcVABQB2lSQnd/eTkvyrDzySJBmoSJIMVCRJ+iZdkORl3X1TF1WAK86rKQYqALDbhinXT/LHSb7sg44kSQYqkiQDFUmSDrB3JrnX5ubmUa6sAJedV1MMVABg1+juG1fVq5Nc4gOOJEkGKpIkAxVJki5nn0xy5jnnnPM9rq4A35lXUwxUAGDXSHLzqjrbhxpJkgxU/KFZkgxUJEnaxi5K8pfd/dPDMCy5xAJ8I6+mGKgAwMIbhmGpqm7d3W/xYUaSJBmoSJKBiiRJI7fR3Q9KcqzrLIBXUwxUAGD3DFPO6O5/8CFGkiQZqEiSgYokSQe5zyV5VlVdz7UW2K28mmKgAgCLPkzZU1V3SzLz4UWSJBmoSJKBiiRJh7hLk/xtd58+DMMeF1xgN/BqioEKACy0yWRyRFXdN8m7fWiRJEkGKpJkoCJJ0g7svUkeneREF11gUXk1xUAFABbW1tbW0d39YB92JEmSgYokGahIkjQnnZ/khdPp9FQXXmBReDXFQAUAFtbGxsZx3f2YJB/zIUWSJBmoSJKBiiRJc9rbuvsXJpPJEa6+wLzyaoqBCgAspCQndvfjk/yrDyeSJMlARZIMVCRJWpA+mOTRe/fuPcEVGJgXXk0xUAGARR2mnJzkqUk+70OJJEkyUJEkAxVJkha0z1fVH0yn02u7CgM7mVdTDFQAYOHMZrNTkjw7yZd8GJEkSQYqkmSgIknSLumiJK9MchNXYmAn8WqKgQoALJz19fXvS/LCJF/xIUSSJBmoSJKBiiRJu7Xufnt332kYhj0ux8Ch5NUUAxUAWChJvreqXrL/vxDwAUSSJBmoSJKBiiRJ+mrvSfKQJMe6JAMHk1dTDFQAYKGcc84531NVL/BiiiRJMlCRJAMVSZL0bTs3yVOn0+k1XJaBsXk1xUAFABbGdDq9RpLnJLnAhw1JkmSgIkkGKpIk6YD7SlX9eZIbuTQD282rKQYqALAwNjY2rp7kWUm+7EOGJEkyUJEkAxVJknSFelN3nz4Mw5LrM3BFeTXFQAUAFkKSk5P8XpIv+XAhSZIMVCTJQEWSJG1r/9jd99/a2jraNRq4rLyaYqACAAthZWXlqt39tCTn+VAhSZIMVCTJQEWSJI3aJ5M8McnJrtPAgfBqioEKAMy99fX1k6rqyUm+4MOEJEkyUJEkAxVJknRQ+3KSF1XVDVyrgW/GqykGKgAw9/bu3XtCVT0hyed8iJAkSQYqkmSgIkmSDm1VdfZ0Or3VMAxLLtjAYYd5NcVABQDm3Obm5vFJHpfkMz48SJIkAxVJMlCRJEk7rk5yryRHumjD7v1bjldTDFQAYG4lOTbJbyb5tA8NkiTJQEWSDFQkSdKO76Pd/dvr6+snuXDD7uHVFAMVAJhbKysrxyR5dJJP+rAgSZIMVCTJQEWSJM1d5yV5ztra2nVdvGFxeTXFQAUA5tbW1tbR3f3wJB/3IUGSJBmoSJKBiiRJmvsuSfKa6XR6MxdwWCxeTTFQAYC5tLy8fHh33z/JR3w4kCRJBiqSZKAiSZIWr6p662w2+9lhGJZcxWF+eTXFQAUA5tIwDEtVdZckmz4USJIkAxVJMlCRJEm7orXu/vlhGPa4ksN88WqKgQoAzKXZbPYzVbXiw4AkSTJQkSQDFUmStCt7d5L7JTnSxRx2Nq+mGKgAwFzq7hsneYMPAZIkyUBFkmSgIkmSknw4ySOTHOuCDjuPV1MMVABg7qytrV23ql6e5FIfACRJkoGKJMlARZIkfV2frqonrK+vn+SiDoeeV1MMVABg7mxsbFw9yfOSXOgffkmSZKAiSTJQkSRJ36EvdvfvT6fTa7iww6Hh1RQDFQCYK3v37j2hqp6c5Dz/4EuSJAMVSZKBiiRJuoxdkOSFa2tr13Vxh4PDqykGKgAwV7a2to5O8qgkn/YPvSRJMlCRJBmoSJKkK9jFSV5RVT/kAg/j8WqKgQoAzI3l5eXDq+q+ST7oH3hJkmSgIkkyUJEkSdtdVZ09m81u6SIP28erKQYqADA3hmFYSnLHJPv8wy5JkgxUJEkGKpIkaey6++3dffowDEuu9HD5eTXFQAUA5sZ0Ov2JJH/vH3RJkmSgYqAiSQYqkiTpEDTr7nssLy8f7mIPB86rKQYqADBPw5RTu/t1/iGXJEkyUJEkAxVJkrQDem9V/erm5uZRLvjw7Xk1xUAFAOZlmHLtJC9Lcol/xCVJkgxUJMlARZIk7bA+VlW/vrm5ebyLPvz/vJoiAxUA5uZDS5KnJvk3/3hLkiQZqEiSgYokSdrhfaa7n7SysnJVF37waooMVOD/sHfn/5LedZn/+3Rnb0hYAoSEAUQjoEhkExWQARSYiI6jrKIim0gQARdEUYb5sohxAXFhUxaVrUAIigwuUA60Z+rU53rfdar1oHBAWjBAgASCkJCk0/f8kFbxaxI66dN9anm+Ho/nf9B1f+666+r7SJqDBoPBrtba45N80qENAGCgAmCgAgDMmS8m+fX19fUzPPHXsv4HZG9NwUBFkjTzdV33gCTrDmsAAAMVAAMVAGDOXZ7kVZPJ5ExP/7UseWsKBiqSpHm4Ybl9a+1PHNIAAAYqAAYqAMCCuTLJ65Pcwa8BWtS8NQUDFUnSzLe2tnbTJC9NcoUDGgDAQAXAQAUAWGAHkryhqu7o1wEt2H9C9tYUDFQkSTO9pD2utfaMJJ9zMAMAGKgAGKgAAMs0VKmqN3Zd9w1+LdCc/9bjrSkYqEiSZre+71eq6n8k2XQgAwAYqAAYqAAAyzxUaa29aTwef6NfDzRveWsKBiqSpJkuyV2r6q8dxAAABioABioAAP/hT/+8ubV2J78kaNbz1hQMVCRJM936+voZSV578CbbQQwAYKACYKACAHD1BoYqmtW8NQUDFUnSzDadTne31p6b5EsOXwAAAxUAAxUAgEP2liTf5JcGzULemoKBiiRpZuv7fmeSxyQ536ELAGCgAmCgAgBw/VTVW6vqzn550HblrSkYqEiSZv1GpRy2AAAGKgAGKgAAW6O19sdd153lVwgdrbw1BQMVSdLMVlVfl+TtDlkAAAMVAAMVAIAj5m3j8fib/Sqho/Cfkb01BQMVSdJsNZ1Od7fWXpDkMgcsAICBCoCBCgDAUfH21tpd/EqhrcxbUzBQkSTNZH3fr1TVI5J83MEKAGCgAmCgAgCwLc4zVNFW5K0pGKhIkmb1JuVOSYYOVAAAAxUAAxUAgO1XVe9Icle/YOi65q0pGKhIkmayyWRyoyQvSbLfYQoAYKACYKACADBbWmt/UlV384uGDvE/JHtrCgYqkqTZqu/7nVX12CQXOEQBAAxUAAxUAABm3p92XXd3v3Do6vLWFAxUJEkzWdd1d08ycngCABioABioAADMnXeOx+N7+LVD/5q3pmCgIkmaxWHKzZK8KskBBycAgIEKgIEKAMBc+7PW2rf49WN589YUDFQkSTPXcDg8prX2E0k+58AEADBQATBQAQBYHFX1rqq6m19DlitvTcFARZI0c1XVfZJMHZQAAAYqAAYqAAALPVR5a1Xd0S8ji523pmCgIkmaudbX189I8noHJACAgQqAgQoAwNK4MslrJ5PJbf1S4q0pYKAiSTrSy9njWmvPTPJFhyMAgIEKgIEKAMBSuryqfms8Hp/mlxNvTQEDFUnSlldVD0ryQYciAICBCoCBCgAASb6U5IV79+69sV9RvDUFDFQkSYfd2tra1yQ5z2EIAGCgAmCgAgDA1fh8Vf3CxsbGDfyq4q0pYKAiSbo+NyfHtdaeneRSByEAgIEKgIGKcwQA4Ku4IMlTNzc3j/cri7emgIGKJOmQ6rruO5J8wAEIAGCgAoCBCgDAdfRPVfXY4XB4jF9cvDUFDFQkSVfb2traTavq9x18AAAGKgAYqAAAHKZ/SPKwvu93+gXGW1PAQEWStGPHjh07+r5faa39SJLPOPQAAAxUADBQAQDYQlVVD+77fsUvMt6aAgYqkrTcq9nbJ3mvww4AwEAFAAMVAIAj6H1J7u2XGW9NAQMVSVqyhsPhCa215ya5zEEHAGCgAoCBCgDAUfJnrbW7+KXGW1PAQEWSlqCqun+SDzngAAAMVAAwUAEA2CZvbq3d3q823poCBiqStIB1XXezqvoDBxsAgIEKAAYqAAAzYH+S30tya7/ieGsKGKhI0gLU9/3O1trjk1zkUAMAMFABwEAFAGDGXJbkJdPp9OZ+1fHWFAxUfLIlaX7fmvINSd7vMAMAwEAFwEAFAGDGfTHJ8yaTyY38wuOtKRioSJLmpNXV1RNbay9IcrmDDAAAAxUAAxUAgDlyUZKfS3KSX3y8NQUDFUnSDJfkgUk+4gADAMBABcBABQBgjn2yqp6ysbFxnF9/vDUFAxVJ0gw1Ho9PS/IGBxcAAAYqAAYqAAAL5KOttR8ZDAa7vDXFvwcMVCRJ21jf9ztba09K8nmHFgAABioABioAAAtqPckDvTUFDFQkSdvQZDI5M8n7HFYAABioABioAAAsiT+vqjt7awoYqEiSjkLD4fCYJD+T5FIHFQAABioABioAAEvmQGvt1evr62d4awoYqEiSjtxi9k5VNXZAAQBgoAJgoAIAsOQuqarnj0ajk701BQxUJElbt5g9LslzklzucAIAwEAFwEAFAIB/8+kk5yQ51ltTwEBFknQYVdXdkkwdSgAAGKgAGKgAAHCN/iHJ9/V9v+KtKWCgIkm6Dg2HwxOSvCjJfgcSAAAGKgAGKgAAHJL3Jbmnt6aAgYok6dAWs/c6uPR1GAEAYKACYKACAMB11Fp7U2vtdt6aAgYqkqRrWMwm+c0kBxxCAAAYqAAYqAAAcFgur6rfWF1dvYm3poCBiiTpYF3XPSDJRx0+AABsoUuT/OPH/uDnNv3QDGCgAgCwxD6X5GeGw+EJ3poCBiqStLQlOSXJqxw6AAAcogNJLkiynuTdSV6b5EVJnlZVjxiPx/ddW1v7+tFodHLf9ys7duzY0T9pxw/5oRnAQAUAgHy0tfaovu93emsKGKhI0lJVVQ9Jcr4DBwCAJF9K8uEk70/ylqr6rdbas1trj2utnZ3krkluORwOj7mu950GKgAGKgAA/LvWWhuPx/f11hQwUJGkZXhryqlJXu+gAQBYGvuT7EvyvoP3gb+c5MlJvruq7jyZTG70r287ORIZqAAYqAAAcLVDlT+pqjt6awoYqEjSwtX3/UpVPTzJpx0yAAAL5TNJuiTnJXlpVf1sVT2i67pvW19fP2MwGOza1vtQAxUAAxUAAK7xP5VU1cvH4/Fp3poCBiqStBCNx+PTkrzN4QIAMJc+XlV/neQ1rbXnHvyzO9/ZWrt9kpNmfihtoAJgoAIAwFfzxSTPmU6nu701BQxUJGluO/jWlAsdLAAAM+vyJB+sqncdfKD0tKp6SFXdcTgcnjD3b/IzUAEwUAEA4FB9orX2+EN9G6q3poCBiiTNRKurqzdJ8gYHCgDATPhCrvozPG9J8qKqemJV3b/rutts95/gMVABMFABAGDm/G1r7b/1fb/irSlgoCJJs/7WlAclOd9hAgBwVF3UWltN8rokz6mqR1fVt3Zdd7NreqC0DBmoABioAABw/bTW/qq1dhdvTQEDFUmauabT6e4kv+sQAQA4ov4pybuTvKS19qTxeHzf6XR682UeoRioABioAABwxByoqj+oqjt6awoYqEjSTDQej789yYcdIAAAW+KyJH+Xq/4kz/OS/GCSu06n093uPA1UAAxUAAAADFQkaena3Nw8PskvJ7nS4QEAcJ19Psn/ba29urX2zKr6nslkcuZwODzGnaaBCoCBCgAAgIGKJGnHjh1VdeckU4cGAMBXdWlrrSX5vSQ/WVX3H4/Hp/mzPAYqAAYqAAAABiqe4knSNTQYDHYl+bkklzswAAD+k49W1Tty1Z/meVhr7faDwWCXu0gDFQADFQAAAAxUJOnQ35rydVX1Nw4KAID8S2tttapenuTJrbV7JTnFHaOBCoCBCgAAAAYqknR9H+z3/UqSH0/yJYcEALBkDiT5UFW9Nclzknxfa+12fd/vdJdooAJgoAIAAICBiiRtUevr62ckebfDAQBYAlcm+dskr6mqp3Rd920bGxs3cEdooAJgoAIAAICBiiQdwVprj0xykYMBAFjQN6NsJHldkqeOx+NvT3KSO0ADFQB29Jc+63Z7kryoqt6V5J/dNwAAABioSNIRaW1t7aZJ3uxAAAAWaIzy9621P6yqpye5tzejGKgAcC2etOM/PCBdXV29yXg8vm+SpyZ5VZK1+DPAAAAABiqSdJhvTTk7yScdBgDAHPtgkjck+amu675jz549N3SXZ6ACwPUfqFztNbbvd1bV11XV97fWnpvkbUk2Dw5D3Y8AAAAYqEjS1ZfkpCQvcwgAAHPm/Kp6a1X9bJL7JTnFnZ0MVACO/EDlmtrY2LhBkntW1ROTvLSq/jr+fDAAAICBiiTt2LFjR1XdOcmGAwAAmHFXVNU4yW9W1SOS3Lrv+xV3czJQAZidgco1vG1lZTQa3aqqHpLkOVX1jiQfd28DAABgoCJpWR7Y9/1Kkp9M8mUXfwBgBn0qydtba8+sqvusrq6e6A5OBioA8zdQuaam0+nNq+rBrbVnt9b+OMk+9z8AAICBiiQtWF3X3SzJO130AYAZsT9J11r77ap6dGvtdt6OIgMVgMUeqFxdSU5trX1XkmclGST5iPskAADAQEWS5rQkD0zySRd8AGAbfTbJnyb5+dbaf51Op7vdpclABcBA5erau3fvjavq/kl+pqremOSD7qUAAAADFUma4TY2No5L8qsu9ADANtiX5HWttcdNJpMzvR1FBioABiqH02g0Ornruu9orT2jtfaHST6Q5IB7LgAAwEBFkra5tbW1r09SLvIAwFHykdbaq1trP9J13W3cjclABcBA5Sj8x5wbtNbuleSpSV57cLTivgwAADBQkaSj8lC+71eq6rFJvugCDwAcQR9K8sqqevRoNLqVuzAZqAAYqMxCk8nkRq2170ryi0nemeQz7tsAAAADFUk6Ag9hkrzZhR0AOAL+PsnLWmuP7LrudHdeMlABMFCZl//Ik+Rrk/xgkpcmWUtyuXs7AADAQEWSrmcHX2m7z0UdANgif9da++0kDxuNRrdwtyUDFQADlUVpOByeUFXfWlVPr6o3JvlH934AAICBiiR99YcqxyR5TpIrXdABgMP8kz2/U1Xf33XdzdxlyUAFwEBlmRqNRreoqu9prb2gtfZXSb7g/hAAADBQkaSDJbl1kve7kAMA18OFuepPAz6h67rbuLOSgQqAgYr+vcFgsGs8Hn9ja+3xSV6ZZK//HAQAABioSFrKWmsPTfI5F3EA4BBdluQ9SZ5VVXfr+36nOyoZqABgoHLo7dmz54ZJ7pfkWUnOS/Jp95gAAICBiqSFbTqd7k7yey7eAMAh2Jvk16vqQUlOciclAxUADFS28Nzp+5XW2u0PvmXlNUk+7P4TAAAwUJG0ELXW7pLkH1y4AYBr8Ikkr6uqHxqPx6e5e5KBCgAGKke3JLc8+Nbb30xS/iwQAABgoCJp7v5HTlU95eCr+V24AYB/9aUkf1ZVTx+Px9/Y9/2KOycZqPihGcBAZXY6+GeBHpjk/0vy3iSXuIcFAAADFUma2QcZrbU3uVgDAAd95OD/yH3g5ubm8e6WJAMVAAOV+WljY+O4JPdM8tNJzkvyWfe3AABgoCJJ215V3TnJB12oAWCpXXHwf9v+dJI7eEuKZKACYKCyQGfXVW/NvWNVPTHJ65L8o/tfAAAwUJGko/pworX2uCSXukgDwFK6IMlrWmsPTXKKuyPJQAXAQGV5Wl9fP6OqHl5Vv5VkkuSA+2MAADBQkaQtbzqd7k7yWhdnAFgu7aqeOx6P79H3/U53RZKBCoCBinbs2LEjySlV9eAkv5xklGS/+2cAADBQkaTDqqrumOTvXJgBYCl8obX2xwffmnZLd0KSgQqAgYoOpdFodHJr7ewkv5qr8oYVAAAwUJGk6/S/YX4wyRddlAFgoW1W1W90XfeAjY2N49wBSQYqAAYqOtz27t1749baf0/ykiRT99wAAGCgIklX23A4PKGqXu5iDAALq5L84ng8/sa+71fc/UgGKgAGKjrC/wnq1NbaDyT5nSQfcD8OAAAGKpK0o6q+LsnEhRgAFsqVrbX/U1VPn0wmt3XHIxmoABioaDsbj8entdYe2Vp7RZIPuV8HAAADFUlL1sH/yXKxizAALITLkryztfb4rutu5k5HMlABMFDRrDYajW7VWvvh1tqrk3zUvTwAABioSFrQNjY2jstVfxPYBRgA5tsXWmtvqqqH79mz54buciQDFQADFc1jk8nktlX12Kr6gyT/7D4fAAAMVCQtQF3X3SbJmgsvAMytTyd5VWvt7M3NzePd3UgGKgAGKlqos7TvVyaTyZlV9WOttTcl+YzvAAAAYKAiac6qqockuchFFwDmzr7W2our6j6DwWCXuxrJQAXAQEVLNFjZmeSuSZ6V5L1JLvf9AAAADFQkzWjD4fCYJC9ysQWAufKxJL/add3d+75fcUcjGagAGKhIO3ZMp9PdrbWzc9Wfr97wvQEAAAxUJM1I6+vrZyR5nwstAMyFTyV56Xg8/va+73e6k5EMVAAMVKRrbzQa3aqqHltVb0zyWd8pAADAQEXSNtR13XckucBFFgBm2oWttVckuZ8/3yMZqAAYqEiHcQ73/c6qups/BwQAAAYqko7el/GV1tpPJLnCBRYAZtLFSV7XWvtvSY519yIZqAAYqBioaOvb2Ni4wVf8OaAP+B4CAAAGKpK2sNXV1ROTvNaFFQBmzpdaa29K8n3D4fAEdy2SgQoABio6uvlzQAAAYKAiaYtKcutclQsrAMyGy5K8vaoeMZ1Od7tbkQxUADBQ0Yyc2f/+54B+PsnQnwMCAMBARZIOfZxyvySfcUEFgG13ZZJ3J3lMklPcpUgGKgAYqGj2+4o/B/TSJB/xvQYAAAMVSfrP/9tjpaqenmS/iykAbKv1JD+V5JbuUCQDFQAMVDTfz9uS3CHJTyd5b5IrfN8BAMBARdJSl+SkJH/kIgoA2+aTSX6t67qz3JlIMlABMFDRYjYajU5urf1Aa+3VST7lexAAAAYqkpaqyWRy2yQTF1AAOOouSfL6qnrQcDg8xl2JJAMVAAMVLdFZ3/c7u667e1X9z6oa+34EAICBiqSFrrX2nUk+6+IJAEfVsKoeOxqNTnY3IslABcBARdqxY8eO0Wh0i6r60SRvSXKx700AABioSFqU/6GxkuRnklzpwgkAR8UHW2vP7rruNu5EJBmoABioSNdWkmOT3C/JryX5gO9TAAAYqEiay6bT6e7W2ptcMAHgiLuwtfbbrbVv6ft+xV2IJAMVAAMV6frUWrtda+0nWmv/O8mXfdcCAMBARdJcfJlNstfFEgCOmP1JzkvyfRsbG8e5+5BkoAJgoCJtZdPpdHdVfU9VvTzJx30HAwDAQEXSzFVVD0pykQslABwRH07yrCS3dNchyUAFwEBFOir3C32/UlV3TvLzSfb4c94AABioSNr2L6oHfzA74CIJAFvqsqp6Y1Xdv+/7ne46JBmoABioSNtZklOTPCbJ25Nc4jsbAAAGKpKOWhsbGzdI8hYXRwDYUh9orT0jyanuNiQZqAAYqEgzOlY5qbX2va21Vyf5jO9xAAAYqEg6YrXWbpfk71wYAWBLXJLkNePx+Nv7vl9xpyHJQAXAQEWalwaDwa6quk+SXzv450l9xwMAwEBF0tZ08Aun/xkBAIevS/LkJKe4w5BkoAJgoCLN/T1G36+01u7UWnt2a635zgcAgIGKpMMZp/xokstdEAHgevtCVb28qu7mzkKSgQqAgYq0yI1Go1slOSfJXyS5wvdBAAAMVCR91Q6+qvNXXAgB4Pppra1W1WOn0+ludxaSDFQADFSkZWsymdyotfao1tqbknzB90QAAAxUJP2nNjY2blBV73ARBIDr7EtJXtl13VnuKCQZqAAYqEi6qs3NzeOr6sFJXpbkE747AgBgoCJpR5JbJ5m6AALAdfKhqnr6ZDK5kbsJSQYqAAYqkq7lvqTvd7bWviXJC5Ns+D4JAICBirSEVdW3JvmUix8AHJIDrbU/qaoH9X2/052EJAMVAAMVSde9tbW1r6+qn02yJ8kB3zUBAAxUJC14SX4wyZdd+ADgq/pskhdNJpPbuoOQZKACYKAiaesaj8enJfnxJO9JcqXvnwAABiqSFulBdd/vTPI8FzwAuHZVNU7ymOFweII7CEkGKgAGKpKObNPp9OZV9WNV9ZdJ9vteCgBgoCJpjktyUpK3uNgBwDX6cpLXjsfje7hzkGSgAmCgImnbnmOemuQJSd6d5ArfVQEADFQkzVHr6+tn5Kpc7ADgP9uX5OeSnOquQZKBCoCBiqTZaW1t7aattcdV1buMVQAADFQkzXhVdbck57vIAcB/1Fr7q6r6nsFgsMsdgyQDFQAMVKTZbu/evTdO8pgk70xyue+1AAAGKpJmqNbaQ5Nc4gIHAP/m8iSvrao7u1OQZKACgIGKNJ9NJpMbtdZ+uKrekeQy33UBAAxUJG3XA+m+X0nyiy5sAPBvLqyq5ye5pTsFSQYqABioSIvTaDQ6uaoeneTtSb7s+y8AgIGKpKPUcDg8IcnrXdQAIH2SDyV58nQ63e0uQZKBCgAGKtJit2fPnhu21h7ZWvvjJJf6TgwAYKAi6Qg1Ho9PSzJyQQNg2VXVX7fWvrfv+53uECQZqABgoCItXxsbGzeoqocneYs/gw4AYKAiaQurqjsm2ediBsAS25/k9V3X3d2dgSQDFT80AxioSPrXptPp7tbaQ5O8OcmXfH8GADBQkXT9xyn3SXKRCxkAS+rzrbVzx+Pxf3FXIEkGKgAGKpIOYazyqNbanyS53HdqAAADFUmHWJKHJbnMRQyAJfTRJE/bs2fPDd0RSJKBCoCBiqTr2urq6k2q6olJ3pvkgO/ZAAAGKpKu7qFz368k+SkXLwCWTVWNW2sPHQ6Hx7gjkCQDFQADFUlb0fr6+hmttWdU1dh3bwAAAxVJBxsMBruS/KYLFwBL5j2tte/s+37F3YAkGagAGKhIOlJNJpMzk/xSkr/3XRwAwEBFWtpWV1dPTPI2Fy0Alsh5Se7pLkCSDFQADFQkHdX7qr5fGY/H31xVv5LkY76fAwAYqEhLU5JTW2urLlgALIH9rbU/bK3dyR2AJBmoABioSJqBscrOJPdO8jtJPuN7OwCAgYq0sLXWbpfkQy5WACy4Lyf53bW1ta9x+kuSgQqAgYqkWSzJsVX14CSvS/IvvssDABioSAvTeDy+R5ILXKgAWGD/cvCVybd08kuSgQqAgYqkeWl1dfXE1tpDD/5Z9st8vwcAMFCR5raqekiSL7lIAbCgPpvkl/bu3Xtjp74kGagAGKhImueSnFJVP5rkL5Jc6Ts/AICBijQ3tdae5IsMAAvqn6vq6dPpdLcTX5IMVAAMVCQtWqPR6BattZ9ora16BgAAYKAize4D5b5fSfJCFyYAFtBma+3xm5ubxzvxJclABcBARdIytLa29jVJfjHJpucCAAAGKtLMtLGxcVySP3JRAmDBfDjJY4bD4TFOe0kyUAEwUJG0lPdpfb/Sdd23JXlZks95VgAAGKhI2raSnJLkPS5IACyQf6yqxyY51kkvSQYqAAYqknRVw+HwhNbaQ5P8aZL9nh8AAAYqko5ao9HoVkn2uhgBsCD2JXmCYYokGagAGKhI0rU3nU5vnuRpSTrPEwAAAxVJR7Qk35Tkn12IAFgA/1RVP7axsXGcE16SDFQADFQk6bo/K26tnZvkE54xAAAGKpK2tNbavZJ83kUIgDn38SQ/vrm5ebzTXZIMVAAMVCTp8BoMBruq6kFJXp/kEs8dAAADFUmHVVU92JcLAObc+VX1FMMUSTJQATBQkaQj02g0Orm19riq+mvPIQAAAxVJ17nW2iOTXOHiA8Cc+kSSpw6HwxOc6pJkoAJgoCJJR6fJZHLbJL+UZNOzCQDAQEXSVy3Jjyc54MIDwBz6VJKnra6unuhElyQDFQADFUnapnu+vl/puu7bqurlST7neQUAYKAi6T99aaiqX3DBAWAOXZjkZ5Kc5ESXJAMVAAMVSZqdhsPhCa21hyb50yT7PcMAAAxUJOOUlSS/5mIDwJy5pLX2giSnOM0lyUAFwEBFkma76XR68yRPS9J5pgEAGKhIS9hwODymqn7fhQaAObI/ycuS3NJJLkkGKgAGKpI0fyX5ptbai5N81nMOAMBARVqOccoJSd7mIgPAvGitvWkymZzpFJckAxUAAxVJmv82NzePT/KwJO9OcsCzDwDAQEVawPbs2XPDJO9xgQFgTvxFVd3NCS5JBioABiqStJgluXWS5yTZ5zkIAGCgIi1Ia2trN62qsYsLAHPwxpTWdd0DnN6SZKACYKAiSUtyz9j3O1tr31lVb0xymecjAICBijSnra+vn5Fkw4UFgBn3oSQP6/t+xektSQYqAAYqBiqSlrPV1dWbJHlqknXPSgAAAxVpjppMJmd6PSIAM+4TrbUnJTnWyS1JBioAGKhI0o4dO3b0fb9SVXdL8rtJPu/5CQBgoCLNcOPx+JuTXOCCAsCM+nySn09yklNbkgxUADBQkaRrKslJVfVDSYaepwAABirS7N2w39uqHIAZdUVr7cVra2s3dWJLkoEKAAYqknRdqqqva629IMn5nrEAAAYq0jbXWjs7ySUuJADMoPPW1ta+3mktSQYqABioSNLhNBwOj0ny3UneluQKz1wAAAMV6eiPUx7lZhyAGbReVfd3UkuSgQoABiqStNWNRqNbVNXPJvkHz2AAAAMV6eiMUx6X5IALCAAz5JOttccNBoNdTmpJMlABwEBFko7ovWffr7TW7tVae3WSL3ouAwAYqEhHZpzyJBcOAGbIpVX1/D179tzQKS1JBip+aAYwUJGko92ePXtumOQJSf6v5zQAgIGKtEUleaqLBgAz5PVJbu2EliQZqAAYqEjSLFRVd07yO0m+4LkNAGCgIl3/ccpPuWAAMAtaa6tJ7ul0liQZqAAYqEjSLLaxsXGDqnpiks6zHADAQEW6buOUZ7lYADAD9lXVI/q+X3E6S5IMVAAMVCRp5u9R+35lPB7fo6p+P8klnu0AgIGKOyTp2scpz3GhAGCbfSHJs4bD4QlOZkmSgQqAgYokzWOTyeRGSZ6aZMOzHgAwUJH0lQ93+34lyfNcJADYTlX1+6PR6BZOZkmSgQqAgYokLcqz96q6T5I3JLnc8x8AMFCRjFOSF7lAALCNqqq+1aksSTJQATBQkaRFbTqd3ry19swkH/EsCAAMVKSlHKdU1W+4OACwTS5K8uODwWCXU1mSZKACYKAiSUvyXH5nkgcmeVuS/Z4PAYCBirQUN8Gttd92YQBgGxxI8sokpzqRJUkGKgAGKpK0rK2vr5+R5DlJPu55EQAYqEiLPE55hYsCAEdbu6pvcRpLkgxUAAxUJElXNRwOj2mtfW9Vvevgf+zxHAkADFSk+W8wGOxK8hoXBACOsgur6sf8OR9JkoEKgIGKJOmaW1tb+5okL0xygedJAGCgIs1tB1fYf+hiAMDR/HM+rbVXrK2t3dRJLEkyUAEwUJEkHVobGxvHVdXDk7zX8yUAMFCR5qokx1bVG10IADhaqmo8Ho/v4RSWJBmoABioSJIO6/n+HVprL07yOc+cAMBARZrpDi6t3+oiAMBR8tkkT+j7fqdTWJJkoAJgoCJJ2ppWV1dPrKrHJuk8fwIAAxVp5trc3Dy+qt7hAgDA0fhzPlX18tXV1Zs4gSVJBioABiqSpCN0P9z3K621ex18a/oVnkkBgIGKNBPjlCR/5sMPwFGwt6q+1ekrSTJQATBQkSQdvbquOz3J/0pygedTAGCgIm1LSY5Ncp4PPgBH2KVJnpXkWKevJMlABcBARZK0PR18m/oPJVnzvAoADFSko9ZwODwmycCHHoAjqar+MsnXOnklSQYqAAYqkqTZqbX2LVX1B0ku8wwLAAxUpCPWYDDYleSPfOABOII+01r74b7vV5y8kiQDFQADFUnSbDYajW6R5BeTnO95FgAYqEhb+5C273e21l7tww7AEfTaJKc6dSVJBioABiqSpPkoybFV9fAk7/dsCwAMVKStGKesJHmZDzoAR8hm13UPcOJKkgxUAAxUJEnzW2vtLlX1+0ku9bwLAAxUpOs7TnmJDzkAR8AVVfX81dXVE524kiQDFQADFUnSYrS2tnbTJD+X5J88/wIAAxXpkMcpVfUrPuAAbLXW2mpr7U5OW0mSgQqAgYokaTEbDofHVNX/SPJez8MAwEBFutaS/C8fbgC22MVJntz3/U4nrSTJQAXAQEWStBy11u5UVS9P8iXPxwDAQEX6D1XVL/hgA7DF3t513elOWUmSgQqAgYokaTnbu3fvjZP8VJKPeFYGAAYq0o6DN4c+2ABslQtba4/q+37FKStJMlABMFCRJGkwGOyqqock+XPPzgDAQEVLWlU9xQcagK18a8p4PD7NCStJMlABMFCRJOnqSnKHJL+b5BLP0gDAQEXLM055og8zAFv11pQkP+itKZIkAxUAAxVJkg6ltbW1m1bVLyT5pGdrAGCgogUuyWOSHPBhBmALnOetKZIkAxUAAxVJkq5Pm5ubx7fWfiTJuudsAGCgogWrtfbIJFf6IANwmC7y1hRJkoEKgIGKJElbcm/e9ytJ7pfkTz13AwADFS1AVfX9Sfb7EAPgrSmSJBmoABioSJJmsSR3SPKyJJd6DgcABiqaz3HKQ5Jc7gMMwOG8NaWqHu2tKZIkAxUAAxWniCTpKAxVTm2tPTvJJz2XA8BARZqTWmv/NcmXfXgB8NYUSZIMVAAMVCRJ89Tm5ubxSR6TZOoZHQAGKtIMl+SuSb7ggwuAt6ZIkmSgAmCgIkma2/v3vl/puu4BSf7MMzsADFSkGWsymZyZ5NM+tABcT+9McksnqiRpYR9wG6gAGKhIkuayqrpja+0VSS71DA8AAxVpm+u67vQkH/WBBeB6uKS19iRvTZEkLXoGKgAGKpKkuf8t5GZJfinJBZ7pAWCgIm1De/fuvXGSv/VhBeB6SGvt9k5TSdIyZKACYKAiSVqMhsPhCVX12CR7Pd8DwEBFOkolOamq/sYHFYDr6Mqqen6SY52mkqRlyUAFwEBFkrRg9/h9v9Ja+86qepfnfQAYqEhHsCTHuukC4Hr4aJJ7O0klSUv38NpABcBARZK0sHVd9w1JXpnky57/AWCgIm3lg9W+35nkj3xAAbiOXpfkFCepJGkpv0cZqAAYqEiSFr7pdHrzJM9JcoFngQAYqEiH+1C171eSvMSHE4Dr4KKqerhTVJK01N+lDFQADFQkSUtRa+3sJPs8EwTAQEU6/BurZ/tgAnCoWmt/NRqNbuUElSQtewYqAAYqkqTFruu605MMPBMEwEBF2oJaa0/yoQTgEF3WWntG3/c7naCSJBmoABioSJIWtcFgsCvJOUku9kwQAAMVaQtqrT00yQEfSgAOwd9W1Z2dnpIk/XsGKgAGKpKkxavrurOSjDwPBMBARdq6G6wHJLnMBxKAQ/iTPi8eDocnOD0lSfqPGagAGKhIkhan6XS6u7V2bpL9ngkCYKAibVFd1909yb/4MALwVVxYVQ9xckqSdPUZqAAYqEiSFqPW2tlJ9nkeCICBirSFJblDks/4IALwVbx/NBrdyskpSdI1Z6ACYKAiSZrvuq47PcnAs0AADFSkLW40Gt0qycd8CAG4Fgeq6vnD4fAYJ6ckSdeegQqAgYokaT4bDAa7kpyT5GLPAwEwUJG2uLW1tZsm+YAPIADX4oLW2nc5NSVJOrQMVAAMVCRJ81fXdWclGXkWCICBinQEGg6HJyTZ48MHwLV4T5JbOjUlSTr0DFQADFQkSfPTdDrd3Vo7N8l+zwIBMFCRjsQD077f2Vp7kw8eANfgyiS/NBgMdjk1JUm6jt+3DFQADFQkSXNRa+3sJPs8CwTAQEU6giX5ZR86AK7B+ePx+L5OS0mSrl8GKgAGKpKk2a7rutOTDDwHBMBARTrCVdWP+cABcHVaa/+767qbOS0lSbr+GagAGKhIkmazwWCwK8k5SS72LBAAAxXpCFdVD/Z3FAG4Gvtba8/s+36n01KSpMPLQAXAQEWSNHt1XXdWkpHngABgoKKjd/P1Lz5sAPz//FPXdd/mpJQkaWsyUAEwUJEkzU7T6XR3a+1c/3kXAAxUdJQajUa3SvLPPmgAfKWqetfq6upNnJSSJG1dBioABiqSpNmotXZ2kn2eAwKAgYqOUqPR6OQkUx8yAL5Sa+25/qSPJElbn4EKgIGKJGl767ru9CQDzwABwEBFR7EkxyZ5tw8YAF/hc0m+2ykpSdKRyUAFwEBFkrQ9DQaDXUnOSXKxZ4AAYKCio/lQtO9XWmuv8OEC4CusJ/lap6QkSQYqAAYqkqRFquu6s5KMPP8DAAMVbUOttWf6YAHwFX/S5w+TnOSElCTJQAXAQEWStChNp9PdrbVzk+z3DBAADFS0DVXVw32oADjoiqp6St/3K05ISZIMVAAMVCRJi1Jr7ewk+zz/AwADFW3fDdm9knzZhwqAJOePx+NvdzpKkmSgAmCgIklalLquOz3JwLM/ADBQ0TY2mUzOTPJZHygAWmv/Zzwen+Z0lCTJQAXAQEWStAgNBoNdSc5JcrHnfwBgoKJtLMmpSTZ9mABI8utJjnU6SpJkoAJgoCJJWoS6rjsrychzPwAwUNE2NxwOT6iqv/FBAlh6X6yqRzgZJUkyUAEwUJEkLULT6XR3a+3cJPs9+wMAAxVt98PPvt+Z5M0+RABL70Pj8fgbnYySJBmoABioSJIWodba2Un2ee4HAAYqmpGSPM8HCGDpvXsymdzIqShJkoEKgIGKJGne67ru9CQDz/wAwEBFM1RVPdyHB2C5tdZePBwOj3EqSpJkoAJgoCJJmucGg8GuJOckudhzPwAwUNEM1Vq7S5JLfHgAltblrbXHORElSTJQATBQkSTNe13XnZVk5JkfABioaMYajUa3SPIxHxyApfXpJPd2IkqSZKACYKAiSZrnptPp7tbauUn2e+YHAAYqmrE2NjaOS7LHhwZgae2dTCa3dSJKkmSgAmCgIkma51prZyfZ53kfABioaBYfdPb9SpJX+cAALK3zNjY2buBElCTJQAXAQEWSNK91XXd6koFnfQBgoKIZrrX2Ez4sAMupqp7f9/1Op6EkSQYqAAYqkqR5bDAY7EpyTpKLPe8DAAMVzXBVdX9/gxFgKV3aWnuUk1CSJAMVAAMVSdK81nXdWUlGnvUBgIGKZrzW2u2SXOiDArB0PjEej+/hJJQkyUAFwEBFkjSPTafT3a21c/0HXAAwUNEctGfPnhsm+TsfEoCl+5M+467rTncSSpJkoAJgoCJJmsdaa2cn2edZHwAYqGgeHmz2/c4k5/mAACydN6yurp7oJJQkyUAFwEBFkjRvdV13epKBZ3wAYKCiOSrJ83w4AJbuzSn/s+/7FaegJEkGKgAGKpKkeWowGOxKck6Siz3nAwADFc1RVfVwHwyApXJZVT3aCShJkoEKgIGKJGne6rrurCQjz/gAwEBFc1Zr7S5JLvHBAFgaF1bVfZyAkiQZqAAYqEiS5qnpdLq7tXZukv2e8QGAgYrmrNFodIskH/OhAFgaH55MJmc6ASVJMlABMFCRJM1TrbWzk+zzfA8ADFQ0h21sbByXZI8PBMByaK2tdl13MyegJEkGKgAGKgYqkjQvdV13epKB53sAYKCieX2I2fcrSV7pwwCwHKrqraurqyc6ASVJMlABwEBFkuahwWCwK8k5SS72fA8ADFQ0xyV5sg8CwNKMU36j7/udTj9JkgxUADBQkaR5qOu6s5KMPNsDAAMVzf845Z5JLvdBAFh4B5I8zcknSZKBCgAGKpI0D02n092ttXOT7PdsDwAMVDT/45RTk3zMhwBg4X25tfYDTj5JkgxUADBQkaR5qLV2dpJ9nusBgIGKFqCDf6/xz30AABbeRUnu7eSTJMlABQADFUma9bquOz3JwDM9ADBQ0QLVWnuuf/wAC+9jXdd9g1NPkiQDFQAMVCRpljv4n2rPSXKxZ3oAYKCiBaqqHpzkgH/8AAvtb9fX189w6kmSZKACgIGKJM1yXdedlWTkeR4AGKho8W70bpPkQv/wARba+/bu3Xtjp54kSQYqABioSNKsNp1Od7fWzk2y3/M8ADBQ0YK1ubl5fGut+UcPsNDOW11dPdGpJ0mSgQoABiqSNKu11s5Oss+zPAAwUNGCluR3/YMHWGivGg6HxzjxJEkyUAHAQEWSZrGu605PMvAcDwAMVLTAVdUP+ccOsLiq6vl936848SRJMlABwEBFkmatwWCwK8k5SS72LA8ADFS0wLXW7pTkEv/YARbWTzrtJEmSgQqAgYokzWJd152VZOQZHgBgoLLgjUajk5N80D90gIW0v6oe7bSTJEkGKgAGKpI0a02n092ttXOT7PccDwAwUFn0h5N9v5LkLf6RAyykS6vqe5x2kiTJQAXAQEWSZq3W2tlJ9nmGBwAYqCzPDeAz/AMHWEhfGI/H93XSSZIkAxUAAxVJmqW6rjs9ycDzOwDAQGW5xin3SnKFf+AAC+ezVXU3J50kSTJQATBQkaRZaTAY7EpyTpKLPb8DAAxUlqjRaHSLJOf7xw2wcM7vuu4bnHSSJMlABcBARZJmpa7rzkoy8uwOADBQWbKGw+ExSd7rHzbAwvnI2tra1zjpJEmSgQqAgYokzULT6XR3a+3cJPs9uwMADFSWsCQv9I8aYOH8/fr6+hlOOUmSZKACYKAiSbNQa+3sJPs8twMADFSWtKp6kH/QAAtnMp1Ob+6UkyRJBioABiqStN11XXd6koFndgCAgcoSN51Ob57kU/5BAyyUtb17997YKSdJkgxUAAxUJGk7GwwGu5Kck+Riz+wAAAOVZX4I2fc7q+pd/jEDLJT3jUajk51ykiTJQAXAQEWStrOu685KMvK8DgAwUNGOqnq6f8gAi6Oq/nI6ne52wkmSJAMVAAMVSdquptPp7tbauUn2e2YHABioaEdr7S5JLvt/7N37s2VpXd/xc7qHnrF6YGSQZGgFjeIN0MYQLxDQBGMBLXhHo8SQKCp2FBSV0goEiAalBdQKGhFBQRFrc5NLzKCJW6U5dXo/n2d173a2oo2kEUdFCWNzHZieWfkBLLnMpbvP2muvtffrVfX+D3bVd3o9nzrjhyxJ61Ep5X9Np9MrXDgAwEBFkgxUAFb49nAkyVnf6yRJkoEKW1tbH14vJ3mzH7EkrU2vP3PmzOUuHABgoCJJBioAq9A0zaEkE9/pJEmSgQofI8kL/IAlaW36LeMUAMBARZIMVABWYTKZ7E9yNMk53+kkSZKBCh+jlPJNfryStDa9arFYHHDdAAADFUkyUAHoW9M0h5Ps+kYnSZIMVPgESe6V5AY/Xkkaf6WUVya5k+sGABioSJKBCkCf5vP5wVLKsSTnfaeTJEkGKnyC6XR6WZI3+uFK0virtb7COAUAMFCRJAMVgL6VUo4kOesbnSRJMlDhNtVan+ZHK0nGKQAABiqSZKACcLGapjmUZOL7nCRJMlDhdiV5cJKb/Wglyf/WBwDAQEWSDFQALtRkMtmf5GiSc77PSZIkAxVu1+nTp++a5G1+sJI0+l5tnAIAGKhIkoEKQF+apjmcZNd3OUmSZKDCHX9kbNttf3JPktbif+vzmsViccBlAwAMVCTJQAVg2ebz+cFSyrEk532bkyRJBipckFLKd/qhStLoe/2ZM2cud9UAAAMVSTJQAejhXeFIkrO+yUmSJAMVLliSz0vyPj9USRp1106n0ytcNQDAQEWSDFQAlqlpmkP+IrskSTJQ4aKdOXPm8iQn/UgladT93s7Ozie5agCAgYokGagALMtkMtmf5GiSc77HSZIkAxUuWpLn+IFK0nirtb5psVhc6aIBAAYqkmSgArAsTdMcTrLre5wkSTJQ4ZLMZrOv8OOUpFGXJFe5aACAgYokGagALMN8Pj9YSjmW5LxvcZIkyUCFS7JYLK5M8lY/TkkabX904sSJu7loAICBiiQZqAAsQynlSJKzvsNJkiQDFfYkyf/ww5Sk0fZns9nsGtcMADBQkSQDFYCuNU1zKMnENzhJkmSgwp6VUr7Kj1KSRtvbktzLNQMADFQkyUAFoEuTyWR/kqNJzvkGJ0mSDFTYsyRXJXm7H6UkjbK/OXny5Ge7ZgCAgYokGagAdKlpmsNJdn1/kyRJBip0ppTyIj9ISRplN9Rav9AlAwAMVCTJQAWgK/P5/GAp5ViS876/SZIkAxU6U2t9pB+jJI2y981mswe5ZACAgYokGagAdKWUciTJWd/eJEmSgQqd2tnZuTrJX/sxStLo+lCt9WEuGQBgoCJJBioAXWia5lCSie9ukiTJQIWlSPJSP0RJGl231Fq/2RUDAAxUJMlABWCvJpPJ/iRHk5zz3U2SJBmosBS11m/wI5Sk8VVK+R5XDAAwUJEkAxWAvWqa5nCSXd/cJEmSgQrL/I/Ouyf5Wz9CSRpdT3HFAAADFUkyUAHYi/l8frCUcizJed/bJEmSgQrL+3DYttu11lf4AUrSuKq1/ve2bbddMgDAQEWSDFQALlUp5UiSs763SZIkAxX6+I/Pb/Xjk6TR/W99frNt232uGABgoCJJBioAl6JpmkNJJr61SZIkAxV6keQeSd7lxydJoxqn/O8zZ85c7ooBAAYqkmSgAnCxJpPJ/iRHk5zzrU2SJBmo0M8Hw7bdTvI6PzxJGlXN7u7uXVwxAMBARZIMVAAuVtM0h5Ps+sYmSZJkoNKrWut/8KOTpFH11tlsdo0LBgAYqEiSgQrAxZjP5wdLKceSnPeNTZIkyUClV7PZ7J7+fJ8kjap3njhx4nNcMADAQEWSDFQALkYp5UiSs76vSZIkGaj0/6Hww/9rnzf4wUnSaPpA0zQPdMEAAAMVSTJQAbhQTdMcSjLxbU2SJMlAZZVr6W/3Y5Ok0XRLkq9zvQAAAxVJMlABuBCTyWR/kqP+irokSZKBykol+ZQkf+fHJknjqJTyfa4XAGCgIkkGKgAXommaw0l2fVeTJEkyUBnCQOVX/dAkaTQ92+UCAAxUJMlABeCOzOfzg6WUY0nO+6YmSZJkoLJytdaH+pFJ0mh6edu2+1wvAMBARZIMVABuTynlSJKzvqdJkiQZqAzCdDq9Ismf+ZFJ0ij+tz47Ozs7n+R6AQAGKpJkoAJwW5qmOZRk4nuaJEmSgcqgJPlxPzBJGkV/3jTN3V0uAMBARZIMVABuzWQy2Z/kaJJzvqVJkiQZqAzKbDa7b5Kb/MAkafDdkOTzXC4AwEBFkgxUAG5N0zSHk+z6jiZJkmSgMryPgm27r9b6Jj8uSRp8N9VaH+pyAQAGKpJkoALw8ebz+cFSyrEk531HkyRJMlAZpFLK9/hhSdLwK6V8p6sFABioSJKBiisC3Mp3/iNJzvqGJkmSZKAyWEnukeTv/bAkadjVWp/lagEABiqSJAMV4KM1TXMoycT3M0mSJAOVMQxU/IerJA2/V7dtu8/VAgAMVCRJBirA1tbW1mQy2Z/kaJJzvp1JkiQZqAxerfWRflCSNPhOLRaLK10tAMBARZJkoAJsbW1tNU1zOMmu72aSJEkGKqOwWCyuTPI2PyhJGnR/k+RerhYAYKAiSTJQAebz+cFSyrEk5303kyRJMlAZjVrrc/2YJGnQfbBpmge6WACAgYokyUAFKKUcSXLWNzNJkiQDlbGNUx6Q5GY/JkkadI91sQAAAxVJkoEKbLamaQ4lmfhWJkmSZKAyOtPp9LIk1Q9Jkgbdc1wsAMBARZJkoAKbazKZ7E9yNMk538okSZIMVEYpyZP8iCRp0L1hOp1e5mIBAAYqkiQDFdhMTdMcTrLrO5kkSZKBypj/o/bTk7zPj0iSBtufnT59+q4uFgBgoCJJMlCBzTOfzw+WUo4lOe87mSRJkoHKqCV5uR+QJA22d9daP9+1AgAMVCRJBiqweUopR5Kc9Y1MkiTJQGX0aq0P9eORpOFWa32UawUAGKhIkgxUYLM0TXMoycT3MUmSJAOVtTCdTi9Lcp0fjyQNdpzyNNcKADBQkSQZqMDmmEwm+5McTXLO9zFJkiQDlbWR5Pv9cCRpmJVSXtu27T7XCgAwUJEkGajAZmia5nCSXd/GJEmSDFTW7T90757kBj8cSRpkf5rkKtcKADBQkSQZqMD6m8/nB0spx5Kc911MkiTJQGXt1Fp/0Y9GkgbZe2ez2X1dKgDAQEWSZKACAADAqJVSvijJLR6BJWmQPdqlAgA2mYGKJBmoAAAAsA4f+tp2O8lxD8CSNMie7VIBABv/71YDFUkyUAEAAGD8knybB2BJGl6llD+YTqeXuVQAwKYzUJEkAxUAAABGbrFYXJnkeg/BkjS4/mo2m13jUgEAGKhIkoEKAAAAo5fkmR6BJWlwna+1PsSVAgD4MAMVSTJQAQAAYMSSfFaSD3oIlqRhVWv9EVcKAOAfGahIkoEKAAAAI1ZrfY2HYEkaVqWU17Ztu8+VAgD4RwYqkmSgAgAAwEjVWh/uIViSBtfZnZ2dq10pAICPZaAiSQYqAAAAjNBisTiQ5M0egiVpUN2U5EtdKQCAT2SgIkkGKgAAAIxQkh/yECxJg/tf+/ygCwUAcOsMVCTJQAUAAICRmc1m1yR5t8dgSRpOtdbXtG277UoBANw6AxVJMlABAABgZEopL/IYLEmD6m07OztXu1AAALfNQEWSDFQAAAAYkVLKF3kIlqRBdVPTNA90oQAAbp+BiiQZqAAAADAiSa71GCxJw6mU8mTXCQDgjhmoSJKBCgAAACPRNM1XegyWpEH1hrZt97lQAAB3zEBFkgxUAAAAGMOHvLbdlw/zICxJw+gds9nsGhcKAOAC/11roCJJBioAAAAMX631WzwGS9JwqrU+3HUCALhwBiqSZKACAADAwC0WiwNJ/tyDsCQNZpzyXNcJAODiGKhIkoEKAAAAA1dK+T4PwpI0mE6dOXPmctcJAODiGKhIkoEKAAAAA3b8+PE7J/lbD8KSNIje3zTNfVwnAICLZ6AiSQYqAAAADFiSZ3gQlqTB9L0uEwDApTFQkSQDFQAAAAZqNptdk+S9HoQlaRC9rm3bbdcJAODSGKhIkoEKAAAAA5Xk5z0IS9Igesd8Pv8nLhMAwKUzUJEkAxUAAAAG6OTJk5+d5CaPwpK0+mqtj3SZAAD2xkBFkgxUAAAAGKAkE4/CkjSIXuAqAQDsnYGKJBmoAAAAMDCllC/xICxJg+itx48fv7PLBACwdwYqkmSgAgAAwJA+2LXtdpKpR2FJWnm31Fof4jIBAHT0710DFUkyUAEAAGA4SimP8CgsSYPop10lAIDuGKhIkoEKAAAAAzGZTPYnOe1RWJJW3nXT6fQKlwkAoDsGKpJkoAIAAMBAlFL+vUdhSVp552utD3CVAAC6ZaAiSQYqAAAADMBisTiQ5KyHYUlaec9wlQAAumegIkkGKgAAAAxArfW7PQpL0so7tVgsDrhKAADdM1CRJAMVAAAAVsxfT5GkQXTTbDa7v6sEALAcBiqSZKACAADAiiV5nIdhSVptpZSnu0gAAMtjoCJJBioAAACsUJI7JXmrx2FJWmlz/2sfAIDlMlCRJAMVAAAAVqjW+h89DEvSSjuf5J+7SAAAy2WgIkkGKgAAAKzIdDq9LMlbPA5L0kp7posEALB8BiqSZKACAADAiiR5rIdhSVppfzqdTq9wkQAAls9ARZIMVAAAAFiBj/z1lDMehyVppT3YRQIA6IeBiiQZqAAAALACpZRv9zAsSSvtF1wjAID+GKhIkoEKAAAAPZtMJvuT/KnHYUlaWdcnucpFAgDoj4GKJBmoAAAA0LNa62M8DkvSSvs61wgAoF8GKpJkoAIAAECPPvLXU97scViSVtarXCMAgP4ZqEiSgQoAAAA9KqV8q8dhSVpZ7z516tSnukYAAP0zUJEkAxUAAAB68pG/nvLHHoglaTXVWv+TawQAsBoGKpJkoAIAAEBPaq3f4oFYklbW7mQy2e8aAQCshoGKJBmoAAAA0MeHuLbdl+Q6D8SStJJuns1m93eNAABW+O9iAxVJMlABAABg+Uop3+SBWJJW9r/2ea5LBACwWgYqkmSgAgAAwLI/wn34r6ec9kgsSSvpL48fP35n1wgAYMX/NjZQkSQDFQAAAJYryVd7IJaklfVolwgAYPUMVCTJQAUAAIAlSzL1QCxJK/lf+/xu27bbLhEAwOoZqEiSgQoAAABLVGt9gEdiSVpJHyqlfK5LBAAwDAYqkmSgAgAAwBIl+Q2PxJK0kn7SFQIAGA4DFUkyUAEAAGBJktwryXmPxJLUe2+fz+cHXSIAgOEwUJEkAxUAAACWJMlzPBJLUv/VWr/ZFQIAGBYDFUkyUAEAAGAJklyV5N0eiiWp96Zt2267RAAAw2KgIkkGKgAAACxBkh/2SCxJvXdzrfULXSEAgOExUJEkAxUAAAA6luROSd7uoViSeu/nXSEAgGEyUJEkAxUAAAA6Vmt9jEdiSeq9d504ceJurhAAwDAZqEiSgQoAAABdfnBr2+0kJz0US1LvPcEVAgAY8L+XDVQkyUAFAACA7tRaH+qRWJJ670+S3MkVAgAYLgMVSTJQAQAAoEO11t/2UCxJ/VZKOeICAQAMm4GKJBmoAAAA0JHZbHZfD8WS1HvXukAAAMNnoCJJBioAAAB0pNb6Qg/FktRrN5dS7ucCAQAMn4GKJBmoAAAA0IHZbHZNkg96LJak/qq1/qILBAAwDgYqkmSgAgAAQAdqrT/hsViSeu09u7u7/9QFAgAYBwMVSTJQAQAAYI/m8/nBJO/yWCxJvfYUFwgAYDwMVCTJQAUAAIA9SnLUQ7Ek9dpfzefzgy4QAMB4GKhIkoEKAAAAe/nA1rbbSa7zWCxJvfY4FwgAYGT/fjZQkSQDFQAAAC5drfUhHoolqdf+eDqdXuYCAQCMi4GKJBmoAAAAsAdJXuqxWJL6q5TyNa4PAMD4GKhIkoEKAAAAl6hpmrsn+aAHY0nqrTe2bbvtAgEAjI+BiiQZqAAAAHCJSilP9lgsSb32YNcHAGCcDFQkyUAFAACAS/mw1rb7kvy5x2JJ6q3Xuz4AACP+d7SBiiQZqAAAAHDxaq0P81gsSf3VNM1h1wcAYLwMVCTJQAUAAIBLkOTVHowlqZ9qrS9zeQAAxs1ARZIMVAAAALhIu7u7n5bkZo/GktRL50+cOPE5rg8AwLgZqEiSgQoAAAAXqZTydA/GktTbX095ocsDADB+BiqSZKACAADARUhypyTXezSWpF76UNM0n+76AACMn4GKJBmoAAAAcBFqrV/vwViSeuvnXR4AgPVgoCJJBioAAABchCS/48FYknrpxlOnTn2qywMAsB4MVCTJQAUAAIALVGu9twdjSeqtn3V5AADWh4GKJBmoAAAAcIGS/LQHY0nq56+nNE1zyOUBAFgfBiqSZKACAADABZhOp1ckeadHY0nqpZ9zeQAA1ouBiiQZqAAAAHABaq2P8WAsSf56CgAAl8ZARZIMVAAAALgASY57NJak5VdKeZ6rAwCwfgxUJMlABQAAgDvQNM19PBpLUi99aDab3dPlAQBYPwYqkmSgAgAAwB1I8lMejSWpl7+e8nxXBwBgPRmoSJKBCgAAALdjMpnsT/J2D8eStPTOl1I+0+UBAFhPBiqSZKACAADA7Wia5is9GktSL3895ddcHQCA9WWgIkkGKgAAANyOJL/q4ViSlt9sNruvqwMAsL4MVCTJQAUAAIDbMJ/PDyZ5r4djSVputdbXuDoAAOvNQEWSDFQAAAC4DbXWx3g4lqReBipf5uoAAKw3AxVJMlABAADgNiS51sOxJC19nPL7Lg4AwPozUJEkAxUAAABuRZJ7JLnZ47EkLbdSyiNcHQCA9WegIkkGKgAAANyKJD/k4ViSlt4ftW277eoAAKw/AxVJMlABAADgViSZeziWpKX3WBcHAGAzGKhIkoEKAAAAH6dpmsMejSVp6V2/WCwOuDoAAJvBQEWSDFQAAAD4OEme7eFYkpZbKeXJLg4AwOYwUJEkAxUAAAA+ynQ6vSzJX3s8lqSl9p6TJ09+sqsDALA5DFQkyUAFAACAj1JrfZiHY0laej/r4gAAbBYDFUkyUAEAAOCjJPl1D8eStNRuPnHixD9zcQAANouBiiQZqAAAAPARx48fv3OS93s8lqTlVUp5pYsDALB5DFQkyUAFAACAj0jyWI/HkrT0HuziAABsHgMVSTJQAQAA4COS/B8Px5K01GrbttsuDgDA5jFQkSQDFQAAALa2tpLcI8ktHo8laak91sUBANhMBiqSZKACAADA1tZWksd7OJakpfZ30+n0ChcHAGAzGahIkoEKAAAAW1tbSX7H47EkLbVnujYAAJvLQEWSDFQAAAA23s7OztVJbvJ4LElL6+bZbHZPFwcAYHMZqEiSgQoAAMDGS/JYj8eStLxKKa90bQAANpuBiiQZqAAAAGy8WutrPCBL0vKqtT7UtQEA2GwGKpJkoAIAALDRFovFlUlu9IAsSUvrT9q23XZxAAA2m4GKJBmoAAAAbLQkj/Z4LElL/espP+DaAABgoCJJBioAAAAbrdb6Mg/IkrS0PrCzs3O1awMAgIGKJBmoAAAAbKzpdHpFkvd4QJakpfVi1wYAgK0tAxVJMlABAADYYEm+2uOxJC2v2Wz2INcGAICtLQMVSTJQAQAA2GC11hd6QJakpXVd27bbrg0AAFtbBiqSZKACAACwoabT6WVJ3ukBWZKW1hNcGwAA/oGBiiQZqAAAAGykJP/a47EkLa0bT58+fVfXBgCAf2CgIkkGKgAAABuplPI8D8iStLR+w6UBAOCjGahIkoEKAADA5n0Ua9t9Sa73gCxJy6mU8m9cGwAAPubf4gYqkmSgAgAAsGlqrV/mAVmSltbZtm33uTYAAHw0AxVJMlABAADYOKWUYx6QJWlpPcOlAQDg4xmoSJKBCgAAwGZ9EGvb7SRv8YAsSUvrs1wbAAA+4d/jBiqSZKACAACwSZqmuY/HY0laWn/o0gAAcGsMVCTJQAUAAGCjJHmSB2RJWk6llO9waQAAuDUGKpJkoAIAALBRkrzBI7IkLaX37+7u3sWlAQDg1hioSJKBCgAAwMbY2dn5pCQf8IgsSUvppS4NAAC3xUBFkgxUAAAANkat9WEekCVpOdVaH+7SAABwWwxUJMlABQAAYGPUWp/rEVmSltI7ptPpZS4NAAC3xUBFkgxUAAAANkaSP/aILElL6edcGQAAbo+BiiQZqAAAAGyE2Wx2Tw/IkrS0vtSlAQDg9hioSJKBCgAAwEZI8jgPyJK0lN7Stu22SwMAwO0xUJEkAxUAAICNkOTlHpElqftqrT/hygAAcEcMVCTJQAUAAGDtTafTy5Lc4CFZkrqvlHI/lwYAgDtioCJJBioAAABrbzabPcgjsiQtpetcGQAALoSBiiQZqAAAAKy9JM/wiCxJS+m/uDIAAFwIAxVJMlABAABYe0l2PSJLUvfVWj/flQEA4EIYqEiSgQoAAMBa29nZuTrJzR6SJcn/3gcAgNUxUJEkAxUAAIC1Vmv9Zo/IkrSUv57yNFcGAIALZaAiSQYqAAAAa62U8iIPyZLUfbPZ7L6uDAAAF8pARZIMVAAAANb341fbbie53kOyJHXem9u23XZpAAC44H+jG6hIkoEKAADAuiql3M8jsiQtpWe6MgAAXAwDFUkyUAEAAFhbtdYf8IgsSUv53/t8sSsDAMDFMFCRJAMVAACAtZXktzwkS1Lnvd3/3gcAgItloCJJBioAAADr+eGrbfcleZeHZEnqtlLK81wZAAAu+t/pBiqSZKACAACwjpqmOewhWZKWMlD5KlcGAICLZaAiSQYqAAAAaynJEz0kS1LnnVssFgdcGQAALpaBiiQZqAAAAKylUsorPSRLUud/PeU3XRgAAC6FgYokGagAAACs30evtt1O8rcekyWp22qtj3FlAAC4pH+rG6hIkoEKAADAuknyeR6SJanzbj5x4sTdXBkAAC6FgYokGagAAACsnVrrd3lIlqTOe6MLAwDApTJQkSQDFQAAgLVTa32Jh2RJ6rwfdWEAALhUBiqSZKACAACwdpK81UOyJHVbrfULXRgAAC6VgYokGagAAACslST38JAsSZ33l23bbrsyAABcKgMVSTJQAQAAWCullG/0kCxJnffLLgwAAHthoCJJBioAAABrJclzPCRLUreVUr7RhQEAYC8MVCTJQAUAAGCtJNn1mCxJnXb+5MmTn+zCAACwFwYqkmSgAgAAsDbOnDlzeZIPekyWpO6qtb7JhQEAYK8MVCTJQAUAAGBtJPlSj8mS1Pn/3ufpLgwAAHtloCJJBioAAABrI8kTPSZLUuc92IUBAGCvDFQkyUAFAABgbdRaX+YhWZI67T1J7uTCAACwVwYqkmSgAgAAsDaS/F+PyZLUaa93XQAA6IKBiiQZqAAAAKyFJJ/iIVmSOu9JLgwAAF0wUJEkAxUAAIC1UGt9uIdkSeq2pmkOuzAAAHTBQEWSDFQAAADWQpKnekyWpE57Z9u2+1wYAAC6YKAiSQYqAAAAa6GU8lqPyZLUaa9yXQAA6IqBiiQZqAAAAKyFJNd7TJakTnui6wIAQFcMVCTJQAUAAGD0ZrPZNR6SJanbZrPZ/V0YAAC6YqAiSQYqAAAAo1dKeYTHZEnqtBsmk8l+FwYAgK4YqEiSgQoAAMDolVL+s8dkSeq017kuAAB0yUBFkgxUAAAARq+U8kqPyZLUXbXWH3FdAADokoGKJBmoAAAAjF6St3pQlqTuaprmga4LAABdMlCRJAMVAACAUUtylcdkSeq0G8+cOXO5CwMAQJcMVCTJQAUAAGDUaq0P8ZgsSZ32RtcFAICuGahIkoEKAADAqJVSvs9jsiR1VynlmOsCAEDXDFQkyUAFAABg1JL8sgdlSeq0r3NdAADomoGKJBmoAAAAjFqtdeYxWZI67R6uCwAAXTNQkSQDFQAAgPF+3GrbfUne5zFZkjrrrOsCAMBS/g1voCJJBioAAABjVWu9t8dkSeq0iesCAMAyGKhIkoEKAADAaNVav95jsiR12g+7LgAALIOBiiQZqAAAAIxWkqd6TJak7mqa5stdFwAAlsFARZIMVAAAAEar1voyD8qS1Fm3LBaLK10XAACWwUBFkgxUAAAARivJ3IOyJHXWwmUBAGBZDFQkyUAFAABglCaTyf4kN3pQlqRuqrW+xHUBAGBZDFQkyUAFAABglGqt9/agLEmd9kTXBQCAZTFQkSQDFQAAgFGqtT7KY7IkddqDXRcAAJbFQEWSDFQAAABGKckPeUyWpO7a3d29i+sCAMCyGKhIkoEKAADAKJVSnu9BWZI664zLAgDAMhmoSJKBCgAAwCjVWn/fg7IkddbLXRYAAJbJQEWSDFQAAABGKclfeVCWpM56qssCAMAyGahIkoEKAADA6Bw/fvzOHpMlqbtKKV/rugAAsEwGKpJkoAIAADA6s9ns/h6UJanTgcpnui4AACyTgYokGagAAACMTpJHe1CWpM56b9u2+1wXAACWyUBFkgxUAAAARifJj3lQlqTOOuGyAACwbAYqkmSgAgAAMDqllBd5UJakbqq1vtBlAQBg2QxUJMlABQAAYHRKKX/gUVmSOutJLgsAAMtmoCJJBioAAACjk+QvPChLUjeVUh7hsgAAsGwGKpJkoAIAADAqi8XiQJJbPCpLUjedPHnyM1wXAACWzUBFkgxUAAAARqXWem8PypLUWe9v23af6wIAwLIZqEiSgQoAAMColFK+yoOyJHXWKZcFAIA+GKhIkoEKAADAqCR5nAdlSeqmUspvuiwAAPTBQEWSDFQAAABGJcl/9agsSZ0NVJ7usgAA0AcDFUkyUAEAABiVJL/qUVmSuqnW+hiXBQCAPhioSJKBCgAAwKgk+T2PypLU2V9Q+RKXBQCAPhioSJKBCgAAwKgkeYtHZUnqpp2dnatdFgAA+mCgIkkGKgAAAOP5mNW220lu9KgsSZ10g8sCAEBv/6Y3UJEkAxUAAICxSPIpHpQlqbPisgAA0BcDFUkyUAEAABiNUsoXeVCWpM56ucsCAEBfDFQkyUAFAABgNGqtj/KgLEndVGt9lssCAEBfDFQkyUAFAABgNJI83qOyJHXWUZcFAIC+GKhIkoEKAADAaJRSnu5BWZI666tdFgAA+mKgIkkGKgAAAKNRSnm+B2VJ6qZSyv1cFgAA+mKgIkkGKgAAAKNRa32NR2VJ6qyrXBYAAPpioCJJBioAAACjkeSEB2VJ6qR3uyoAAPTJQEWSDFQAAABGI8lZj8qS1EkLVwUAgD4ZqEiSgQoAAMA4PmS17XaSD3hUlqROutZlAQCg13/XG6hIkoEKAADAGBw/fvzOHpQlqbN+2WUBAKBPBiqSZKACAAAwCkk+y4OyJHXWM1wWAAD6ZKAiSQYqAAAAozCbzR7kQVmSuqnW+t0uCwAAfTJQkSQDFQAAgFEopXytR2VJ6myg8iiXBQCAPhmoSJKBCgAAwCiUUr7Do7IkddNsNvtilwUAgD4ZqEiSgQoAAMAo1Fp/xKOyJHXWvVwWAAD6ZKAiSQYqAAAAo5DkpzwoS1I3TafTK1wWAAD6ZKAiSQYqAAAAo5DkBR6VJamTzrkqAAD0zUBFkgxUAAAARqHW+gqPypLUSW9xVQAA6JuBiiQZqAAAAIxCrfV3PSpLUiftuioAAPTNQEWSDFQAAABGoZRSPCpLUie93lUBAKBvBiqSZKACAAAwCknOeFSWpE56sasCAEDfDFQkyUAFAABgFJL8nUdlSdp7tdbnuioAAPTNQEWSDFQAAABGIcmNHpYlqZOe4qoAANA3AxVJMlABAAAYvMViccCDsiR11lGXBQCAvhmoSJKBCgAAwOCdOHHibh6UJamzvs1lAQCgbwYqkmSgAgAAMHgnT578DA/KktRNpZQjLgsAAH0zUJEkAxUAAIDBS/IFHpUlqbOByr90WQAA6JuBiiQZqAAAAAxerfXLPCpLUmd9gcsCAEDfDFQkyUAFAABg8Jqm+UoPypLUTU3TfLrLAgBA3wxUJMlABQAAYPBKKV/jUVmSumlnZ+dqlwUAgL4ZqEiSgQoAAMDglVK+1aOyJHXTYrE44LIAANA3AxVJMlABAAAYvFLKd3hUlqROOt+27bbLAgBA3wxUJMlABQAAYPCSHPWoLEmddM5VAQBgFQxUJMlABQAAYPBKKT/oUVmSOukdrgoAAKtgoCJJBioAAACDl+THPCpLUieddVUAAFgFAxVJMlABAAAYvFLK0z0qS1InvdlVAQBgFQxUJMlABQAAYPCS/KRHZUnqpLmrAgDAKhioSJKBCgAAwOAlebZHZUnae7XWmasCAMAqGKhIkoEKAADA4CX5OQ/LktRJx10VAABWwUBFkgxUAAAABi/JL3hUlqROmroqAACsgoGKJBmoAAAADF6SF3hUlqRO+h1XBQCAVTBQkSQDFQAAgMErpbzIo7Ik7b1a62+7KgAArIKBiiQZqAAAAAxekl/xsCxJnfQ6VwUAgFUwUJEkAxUAAIDBS/Jij8qS1Em/5aoAALAKBiqSZKACAAAweKWUX/OoLEmd9GpXBQCAVTBQkSQDFQAAgMFL8uselSVp75VSXumqAACwCgYqkmSgAgAAMHgGKpLUTbXWV7gqAACsgoGKJBmoAAAADJ7/xY8k+QsqAACMm4GKJBmoAAAADJ6BiiR11qtdFQAAVsFARZIMVAAAAAav1voSj8qS1MlfUHmtqwIAwCoYqEiSgQoAAMDgJXmxh2VJ6qT/6aoAALAKBiqSZKACAAAweLXWF3pUlqROutZVAQBgFQxUJMlABQAAYPBKKc/3qCxJe6/W+ruuCgAAq2CgIkkGKgAAAINXSnmeh2VJ6mSg8vuuCgAAq2CgIkkGKgAAAIOX5Gc9LEtSJwOVN7kqAACsgoGKJBmoAAAADF6SZ3tYlqROiqsCAMAqGKhIkoEKAADA4JVS/ptHZUnqpD9yVQAAWAUDFUkyUAEAABi8JE/1qCxJnfQWVwUAgFUwUJEkAxUAAIDBK6U82aOyJHXS9a4KAACrYKAiSQYqAAAAg5fkCR6VJamT/t5VAQBgFQxUJMlABQAAYPBqrd/tUVmSOukmVwUAgFUwUJEkAxUAAIDBq7X+O4/KktRNi8XigMsCAEDfDFQkyUAFAABg8Gqt3+BRWZK66fTp03d1WQAA6JuBiiQZqAAAAAxerfXhHpUlqZtms9k9XRYAAPpmoCJJBioAAACD1zTNl3tUlqRuaprmPi4LAAB9M1CRJAMVAACAwau1PsCjsiR1NlB5oMsCAEDfDFQkyUAFAABg8Eopn+tRWZK6qZTyCJcFAIC+GahIkoEKAADA4DVNc8ijsiR1NlD5ty4LAAB9M1CRJAMVAACAwdvd3b2LR2VJ6qzHuywAAPTNQEWSDFQAAAAGbzKZ7PegLEmd9aMuCwAAfTNQkSQDFQAAgFFI8h6PypK092qtz3JVAADom4GKJBmoAAAAjEKSt3tYlqRO+iVXBQCAvhmoSJKBCgAAwCgkuc6jsiR10qtcFQAA+magIkkGKgAAAKOQ5LhHZUnqpD90VQAA6JuBiiQZqAAAAIxCktd7VJakTvoTVwUAgL4ZqEiSgQoAAMAo1Fpf4lFZkjrp/7kqAAD0zUBFkgxUAAAARqGU8jMelSWpmxaLxQGXBQCAPhmoSJKBCgAAwCgkeYpHZUnqpt3d3U9zWQAA6JOBiiQZqAAAAIxCku/1qCxJ3dQ0zb9wWQAA6JOBiiQZqAAAAIxCkkd7VJakbqq1PtJlAQCgTwYqkmSgAgAAMAqllH/lUVmSOhuofJfLAgBAnwxUJMlABQAAYBRms9l9PSpLUmcDlae5LAAA9MlARZIMVAAAAEahaZq7e1SWpM76JZcFAIA+GahIkoEKAADAKEwmk/1JbvGoLEmd/AWV33ZZAADok4GKJBmoAAAAjEaSd3hYlqROOu2qAADQJwMVSTJQAQAAGI0kc4/KktRJN7gqAAD0yUBFkgxUAAAARiPJtR6VJambdnd37+KyAADQFwMVSTJQAQAAGI0kv+JRWZK6qZRyP5cFAIC+GKhIkoEKAADAaCR5pkdlSeqmWuujXBYAAPpioCJJBioAAACjkeT7PSpLUmc9wWUBAKAvBiqSZKACAAAwGrXWr/egLEmd/S9+fsZlAQCgLwYqkmSgAgAAMBqllC/xqCxJnQ1UXuuyAADQFwMVSTJQAQAAGI1Tp059qkdlSeqs61wWAAD6YqAiSQYqAAAAozGZTPYnOe9RWZI66f1t2267LgAA9MFARZIMVAAAAEYlyV94VJakbmqa5pDLAgBAHwxUJMlABQAAYFSSHPeoLEndNJvNvsJlAQCgDwYqkmSgAgAAMCpJXupRWZK6qdb6XS4LAAB9MFCRJAMVAACAUUnyTI/KktRZz3ZZAADog4GKJBmoAAAAjEqSx3tQlqTOep3LAgBAHwxUJMlABQAAYFRqrQ/zoCxJnXXGZQH+P3t3/mz5Xdd5vG93p8lGWIQQWWVfU6ImKDrIqo7iuKCipc7oKEykBkRkEHDBGRBUhLiXlMo4yijFFZBYxHXkuPRczv1+Xp/v7dPhDAU9yBKJEAIkrOmku7/zA+DELJ1ezvb9nsej6vk3fO4571edCwCLYKAiSQYqAAAAvbKzs/NgB2VJmllHR6PRmV4XAADmzUBFkgxUAAAAemU6ne5LctRRWZJm1oVeFwAA5s1ARZIMVAAAAHonyfsclCVpNpVSvsfLAgDAvBmoSJKBCgAAQO8keZujsiTNrJd5WQAAmDcDFUkyUAEAAOidJL/joCxJM+vNXhYAAObNQEWSDFQAAAB6p5TyEw7KkjSzDnlZAACYNwMVSTJQAQAA6J1a69MclCVpZh2bTCbneF0AAJgnAxVJMlABAADonSQXOihL0uyqtX6V1wUAgHkyUJEkAxUAAIDeSXK2g7Ikza5SyiVeFwAA5slARZIMVAAAAHopyfsdlSVpZv2WlwUAgHkyUJEkAxUAAIBeSvKXDsqSNLPGXhYAAObJQEWSDFQAAAB6KcmvOihL0sz67Gg02ut1AQBgXgxUJMlABQAAoJeSPMtBWZJmVynlUV4XAADmxUBFkgxUAAAAeinJEx2UJWmm/YDXBQCAeTFQkSQDFQAAgF6aTCbnOyZL0uyqtf661wUAgHkxUJEkAxUAAIB+frHVdRtJrnFUlqSZ9XavCwAAc/scb6AiSQYqAAAAfZXk7x2UJWlmXT+dTvd5XQAAmAcDFUkyUAEAAOitWutrHJQlaXY1TXOx1wUAgHkwUJEkAxUAAIDeKqU820FZkmZXKeXZXhcAAObBQEWSDFQAAAB6q9b6OAdlSZppvvQCAGAuDFQkyUAFAACgt3Z2du7smCxJM+0fvS4AAMyDgYokGagAAAD0WpL3OShL0uxqmuYCrwsAALNmoCJJBioAAAC9Vkr5UwdlSZpdtdaneV0AAJg1AxVJMlABAADotSQvdVCWpJn2aq8LAACzZqAiSQYqAAAAvVZrfZpjsiTNtG2vCwAAs2agIkkGKgAAAL1WSnmAY7IkzbQbJ5PJOV4YAABmyUBFkgxUAAAA+v0FV9ftTnKdg7Ikza62bZ/shQEAYKaf3w1UJMlABQAAoO9KKX/noCxJM+2/eV0AAJglAxVJMlABAADovVrrpY7JkjS7aq1/63UBAGCWDFQkyUAFAACg95J8r4OyJM2060ej0ZleGAAAZsVARZIMVAAAAHpvZ2fnwY7JkjTznuiFAQBgVgxUJMlABQAAoP9fcnXd7iTXOiZL0kx7mRcGAICZfXY3UJEkAxUAAIAhSPI3jsmSNLtKKVteFwAAZsVARZIMVAAAAAYhySsclCVpph1JcicvDAAAs2CgIkkGKgAAAINQSvlWx2RJmvmvqHyLFwYAgFkwUJEkAxUAAIBBSPLFjsmSNNtqrb/uhQEAYBYMVCTJQAUAAGAwknzAQVmSZtq7vC4AAMyCgYokGagAAAAMRpJNx2RJmm07Oztf4oUBAOB0GahIkoEKAADAYNRaf8wxWZJm/m9+/pMXBgCA02WgIkkGKgAAAINRSnmMY7Ikzbw3e2EAADhdBiqSZKACAAAwGEnOSPIZx2RJmmmfnE6n+7wyAACcDgMVSTJQAQAAGJRSyt85JkvSzP/Nz5O8MAAAnA4DFUkyUAEAABiUJK9wTJakmfdqLwwAAKfDQEWSDFQAAAAGpdb6bx2SJWnmvcsLAwDA6TBQkSQDFQAAgEEZj8fnJTnqmCxJs217e/shXhkAAE6VgYokGagAAAAMTpLqmCxJM+/5XhgAAE6VgYokGagAAAAMTinllx2SJWnm/b0XBgCAU2WgIkkGKgAAAIOT5NsckiVp5h1NcjevDAAAp8JARZIMVAAAAAbn4MGDd0lyzDFZkmZbrfUHvTIAAJwKAxVJMlABAAAYpCStY7IkzXygcpkXBgCAU2GgIkkGKgAAAIOU5NWOyZI08z47nU7P9coAAHCyDFQkyUAFAABgkGqt3+yQLElz+RWVp3tlAAA4WQYqkmSgAgAAMEjj8fi8JEcckyVp5r3BKwMAwMkyUJEkAxUAAIDBKqVsOSRL0sz7VJKzvTIAAJwMAxVJMlABAAAYrCQvdUiWpNlXSvkOrwwAACfDQEWSDFQAAAAGq2maxzskS5J/8wMAwPIZqEiSgQoAAMBgHTp06A5JPu2QLEkz79OTyeQcLw0AACfKQEWSDFQAAAAGLcnlDsmSNPtqrd/tlQEA4EQZqEiSgQoAAMCgJflRh2RJmkt/4pUBAOBEGahIkoEKAADAoJVSHuqILElz6fDOzs6dvTQAAJwIAxVJMlABAAAY9hdgXbeR5H0OyZI0+0opP+ylAQDghD6fG6hIkoEKAADA0NVaX+OQLElzaeSVAQDgRBioSJKBCgAAwOCVUr7FEVmS5tKxpmnu46UBAOD2GKhIkoEKAADA4E2n03OTHHZIlqS59CIvDQAAt8dARZIMVAAAANZCkr90RJakufR/uq7b8NIAAHA8BiqSZKACAACwFpI81xFZkuZT0zQXe2kAADgeAxVJMlABAABYC6WUBzgiS9J8KqX8hpcGAIDjMVCRJAMVAACAtZHkgEOyJM2lj41GozO9NAAA3BYDFUkyUAEAAFgbSV7iiCxJ86nW+nQvDQAAt8VARZIMVAAAANZGKeVRjsiSNLd/8/PnXhoAAG6LgYokGagAAACsz5dhXbeR5N0OyZI0l44lua/XBgCAW/1MbqAiSQYqAAAA6yTJLzgiS9Lc/s3Pz3ppAAC4NQYqkmSgAgAAsFZKKY9xRJakufWBzc3NPV4bAABuzkBFkgxUAAAA1usLsa7bneRKR2RJmk+llG/y2gAAcIvP4wYqkmSgAgAAsG6S/JojsiTN7d/8XOalAQDg5gxUJMlABQAAYO2UUp7giCxJc+to0zT38doAAHBTBiqSZKACAACwdkaj0d4kH3FElqS59d+8NgAA3JSBiiQZqAAAAKylJL/rgCxJc+uqJGd4bQAA+AIDFUkyUAEAAFhLpZRvckCWpPlVSvlOrw0AAF9goCJJBioAAABr6dChQ3dI8glHZEmaWyOvDQAAX2CgIkkGKgAAAGsryR85IEvSXH9F5VFeGwAAdu0yUJEkAxUAAIA1Vkr5TgdkSZpftdbXeG0AANi1y0BFkgxUAAAA1th0Oj03yWcdkSVpbn3m4MGDd/HiAABgoCJJBioAAABrLclbHJAlaa6/ovICrw0AAAYqkmSgAgAAsNZKKf/BAVmS5toHRqPRXi8OAMB6M1CRJAMVAACAtXbw4MG7JDnsgCxJc+27vDgAAOvNQEWSDFQAAADWXpJNx2NJmmtv99oAAKw3AxVJMlABAABYe0me6ngsSfOtaZqv9uIAAKwvAxVJMlABAABYe6PRaG+SDzkgS9Jce7MXBwBgfRmoSJKBCgAAALt27UryKsdjSZprx7a3tx/ixQEAWE8GKpJkoAIAAMCuXbuSXOh4LEnzrdb6Gi8OAMB6MlCRJAMVAAAAPi9JdUCWpLl2/Xg8vocXBwBg/RioSJKBCgAAAJ+X5EcdjyVp7r+i8nNeHACA9WOgIkkGKgAAAHxe27Z3T3KjA7IkzbWPj8fj87w6AADrxUBFkgxUAAAAuIkkf+J4LElz74VeHACA9WKgIkkGKgAAANxEkm9zOJakuffhra2ts7w6AADrw0BFkgxUAAAAuInpdLovyTWOx5I0957j1QEAWB8GKpJkoAIAAMDNJPlVh2NJmntXTqfTfV4dAID1YKAiSQYqAAAA3EySL3c4lqSF9AyvDgDAejBQkSQDFQAAAG7+pVnXbSS5wuFYkubee0aj0V4vDwDAGnzWNlCRJAMVAAAAbinJ8x2OJWn+1Vr/o1cHAGD4DFQkyUAFAACAW9E0zQVJjjgeS9Lc+8ckZ3h5AACGzUBFkgxUAAAAuA1JLnc4lqSF9AyvDgDAsBmoSJKBCgAAALchyXc5GkvSQnrfdDrd5+UBABguAxVJMlABAADgNoxGozOTXONwLEkL6Ue8PAAAw2WgIkkGKgAAABxHkp93NJakhfRPo9HoTC8PAMAwGahIkoEKAAAAx5HkvkmOOhxL0kJ6rpcHAGCYDFQkyUAFAACA21FKeZOjsSQtpKv3799/Ry8PAMDwGKhIkoEKAAAAtyPJEx2NJWlh/YyXBwBgeAxUJMlABQAAgNv7Eq3rNpJc4WgsSQvpuiR38/oAAAzss7WBiiQZqAAAAHD7SimXOBpL0sJ6tZcHAGBYDFQkyUAFAACAEzCZTM5J8nFHY0laSIfbtr2f1wcAYDgMVCTJQAUAAIATlOTVjsaStLB+38sDADAcBiqSZKACAADACUrywCTHHI0laSEda9v2S70+AADDYKAiSQYqAAAAnIQkb3U0lqTFVGv9667rNrw+AAD9Z6AiSQYqAAAAnIRa6zc4GkvS4iqlfKPXBwCg/wxUJMlABQAAgJP5Qq3rdid5l6OxJC2sd4xGo71eIACAnn+eNlCRJAMVAAAATk6S5zgYS9JCf0XlEq8PAEC/GahIkoEKAAAAJ2k8Hp+X5JOOxpK0sK4ej8fneYEAAPrLQEWSDFQAAAA4BaWU33AwlqSF/orKK70+AAD9ZaAiSQYqAAAAnIIkD3MwlqSFdkOt9UFeIACAfjJQkSQDFQAAAE5Rkr9yMJakhfYWrw8AQD8ZqEiSgQoAAACnqNb67xyLJWnhfb0XCACgfwxUJMlABQAAgFO0ubm5J8khx2JJWmjvnE6n+7xCAAD9YqAiSQYqAAAAnIZSyg87FkvSwnu+FwgAoF8MVCTJQAUAAIDTMJ1O9yW50rFYkhbaJ5J8sVcIAKA/DFQkyUAFAACA05TkRx2LJWmxlVJe5wUCAOgPAxVJMlABAADgNCU5O8nVDsaStNjatv1arxAAQD8YqEiSgQoAAAAzkORFjsWStPDekeQMrxAAwOozUJEkAxUAAABmIMmdklzrWCxJC++/eIUAAFafgYokGagAAAAwI0le5lAsSQvv00nu6xUCAFhtBiqSZKACAADAjCS52+cPpQ7GkrTAaq2XeYUAAFabgYokGagAAAAwQ7XWSx2LJWkpfZtXCABgdRmoSJKBCgAAADPUtu09kxx2KJakhXfl/v377+glAgBYTQYqkmSgAgAAwIzVWl/jUCxJS+lXvEIAAKvJQEWSDFQAAACYsVLKA5IccSiWpIV3tJTyGC8RAMDqMVCRJAMVAAAA5qCU8jqHYklaSgen0+k+LxEAwGoxUJEkAxUAAADmoG3bRzgSS9LS+mkvEQDAajFQkSQDFQAAAOaklPImR2JJWkqHa60P9xIBAKwOAxVJMlABAABgTmqtX+FILElL6+2bm5t7vEYAAKvBQEWSDFQAAACYoyR/4UgsScuplPI8LxEAwGowUJEkAxUAAADmqNb6OEdiSVpan6m1PshrBACwfAYqkmSgAgAAwJwleZsjsSQtrb/vum631wgAYLkMVCTJQAUAAIA5K6U8xoFYkpbac71GAADLZaAiSQYqAAAALEAp5U0OxJK0vH/1s7Oz82CvEQDA8hioSJKBCgAAAAuQ5GFJjjoSS9JyKqVsbW5u7vEiAQAsh4GKJBmoAAAAsCBJfseRWJKW2ou9RgAAy2GgIkkGKgAAACzIeDy+d5LPOhBL0tK6oWmaR3uRAAAWz0BFkgxUAAAAWKBSyisdiCVpqV0xGo3O9CIBACyWgYokGagAAACwQFtbW3dN8nEHYklaaq/yIgEALJaBiiQZqAAAALBgSV7kOCxJS+1Ykid6kQAAFsdARZIMVAAAAFiwJGcnucqBWJKW2gcOHjx4F68SAMBiGKhIkoEKAAAAS1BKucRxWJKW3hu6rtvwKgEAzJ+BiiQZqAAAALAESc5I8m7HYUlaej/gVQIAmD8DFUkyUAEAAGBJknyXw7AkLb1P1lof5FUCAJgvAxVJMlABAABgWV/Odd3ufI4DsSQtsVprM51O93mZAADm+BnYQEWSDFQAAABYnlLKUxyHJWkl+gWvEgDA/BioSJKBCgAAAEtWa/1rh2FJWnrHSilP8SoBAMyHgYokGagAAACwZG3bXuQwLEkr0YeaprnAywQAMHsGKpJkoAIAAMAKSLLpMCxJy6+U8r82Nzf3eJkAAGbLQEWSDFQAAABYAdvb2w9JcsRxWJJWop/2MgEAzJaBiiQZqAAAALAikvyqo7AkrURHSylP8DIBAMyOgYokGagAAACwInZ2du6c5GqHYUlaif55PB7fw+sEADAbBiqSZKACAADACiml/JCjsCStTH+zubm5x+sEAHD6DFQkyUAFAACAVfrCrut2J9l2FJaklellXicAgBl83jVQkSQDFQAAAFZLKeUxDsKStDqVUr7R6wQAcHoMVCTJQAUAAIAVVGt9raOwJK1MH23b9n5eJwCAU2egIkkGKgAAAKygyWRyfpJrHYUlaWV+RaWMRqMzvVAAAKfGQEWSDFQAAABYUUme6ygsSatTrfW1XddteKEAAE6egYokGagAAACwokaj0d4kVzgKS9JK/ZLKJV4oAICTZ6AiSQYqAAAArLBSyhMchCVppbqhbdvHeqEAAE6OgYokGagAAACw4pK8wUFYklaqq9q2vacXCgDgxBmoSJKBCgAAACuuaZr7JPm0g7AkrdS/+tmaTqf7vFIAACfGQEWSDFQAAADogVLKTzkIS9LK9dtd1214pQAAbp+BiiQZqAAAANADo9HozCTvcQyWpJXrWV4pAIDbZ6AiSQYqAAAA9ESt9ZsdgiVp5bqxaZrHe6UAAI7PQEWSDFQAAADokSSXOwZL0sp1zfb29v29UgAAt81ARZIMVAAAAOiRnZ2dByc57BgsSSvXO8bj8XleKgCAW2egIkkGKgAAAPRMkp93CJakleytm5ube7xUAAC3ZKAiSQYqAAAA9Mx0Oj03yZUOwZK0kr3KSwUAcEsGKpJkoAIAAEAPJXmqI7AkrWzP8FIBAPxrBiqSZKACAABATyX5Q0dgSVrJbkzyRC8VAMD/Z6AiSQYqAAAA9FSSuyX5iEOwJK1kHyulPNRrBQDwOQYqkmSgAgAAQI+VUr7HEViSVrb3tG17d68VAICBiiQZqAAAANDvL/i6bqPWepkjsCStZqWUra2trbO8WADA2n9+NVCRJAMVAAAA+u3AgQP3SnKdQ7AkrWybXdft9mIBAOvMQEWSDFQAAAAYgFrrMx2AJWml+yWvFQCwzgxUJMlABQAAgCF80dd1G0ne5gAsSSv9736e7cUCANb2c6uBiiQZqAAAADAMSR6Y5DOOwJK0sh2rtX67FwsAWEcGKpJkoAIAAMCAlFKe5wAsSSvdZ0spX+PFAgDWjYGKJBmoAAAAMCCbm5t7kowdgCVppftYrfXhXi0AYJ0YqEiSgQoAAAAD0zTNI5Pc4AAsSSvd+w8cOHAvrxYAsC4MVCTJQAUAAIABSvISx19JWvmu2NnZubNXCwBYBwYqkmSgAgAAwABNp9N9SQ46/krSyvcPW1tbZ3m5AIChM1CRJAMVAAAABqppmouTHHX8laTVrtZ62Wg02uvlAgCGzEBFkgxUAAAAGLAkv+T4K0m96Pe6rtvwcgEAQ2WgIkkGKgAAAAxYkrOTHHL4laRe9CojFQBgqAxUJMlABQAAgIErpTzB0VeSetOLvVwAwBAZqEiSgQoAAABrIMmvOfpKUm96lpcLABgaAxVJMlABAABgDWxtbZ2V5B2OvpLUi47VWr/P6wUADImBiiQZqAAAALAm2rb90iSHHX4lqRcdKaV8i9cLABgKAxVJMlABAABgjZRSnufoK0m96XAp5eu8XgDAEBioSJKBCgAAAOv0hWDX7U7yV46+ktSbPtO27dd6wQCA3n8eNVCRJAMVAAAA1kvbtvdMco2jryT1pk8m+UovGADQZwYqkmSgAgAAwBqqtX67g68k9apr27a9yAsGAPSVgYokGagAAACwppL8toOvJPWqjzVN82gvGADQRwYqkmSgAgAAwJqaTCbnJHm3g68k9aprklzoFQMA+sZARZIMVAAAAFhjTdNcnORGB19J6lVXN03zSK8YANAnBiqSZKACAADAmkvyYsdeSepdH27b9hFeMQCgLwxUJMlABQAAgDW3ubm5p5Tyd469ktS7PlRrfbiXDADoAwMVSTJQAQAAgF1t294vybWOvZLUv5GKX1IBAPrAQEWSDFQAAABg165du3aVUr7HoVeS+vnvfpqmeaSXDABYZQYqkmSgAgAAAP+ilPI6h15J6mVXl1Ie5SUDAFaVgYokGagAAADAv0hypyTvdeiVpF52TdM0j/aaAQCryEBFkgxUAAAA4F8ppXxNkqMOvZLUyz7Wtu1FXjMAYNUYqEiSgQoAAADcQpKXOvJKUm+7rmmar/aaAQCrxEBFkgxUAAAA4BaSnFFK2XLklaTe9qla65O8aADAqjBQkSQDFQAAALhVTdPcJ8lHHHklqbddn+SpXjQAYBUYqEiSgQoAAADcplLK1yU55sgrSb3txlrr071oAMCyGahIkoEKAAAAHFeSn3bglaRedyzJs7xoAMAyGahIkoEKAAAAHP9LxK7bneRyB15J6n0v6bpuw8sGACzls6WBiiQZqAAAAMDt2draumuS9zruSlLv+7Wu63Z72QCARTNQkSQDFQAAADghtdavSHLYcVeSet8fTqfTfV42AGCRDFQkyUAFAAAATlit9ZkOu5LU/0opfz6ZTM7xsgEAi2KgIkkGKgAAAHDiXyh23UaS33PclaRBjFS2tra27up1AwAW8nnSQEWSDFQAAADgZCQ5O8nEcVeSBtE7Dhw4cC+vGwAwbwYqkmSgAgAAACet1vqgJNc57ErSIHrf9vb2Q7xuAMA8GahIkoEKAAAAnJJSyrc66krSYLo6yZd73QCAeTFQkSQDFQAAADhltdZfdNSVpMH0iSRP9LoBAPNgoCJJBioAAABwykaj0d5a69866krSYDpca/12LxwAMGsGKpJkoAIAAACnpWmaC5Jc5agrSYPpaJLneOEAgFkyUJEkAxUAAAA4bbXWxyU54qgrSYPqVzY3N/d45QCAWTBQkSQDFQAAAJiJJD/umCtJw6rWetlkMjnHKwcAnC4DFUkyUAEAAIDZfNnYdRu11jc66ErS4Kpt297TSwcAnNZnRgMVSTJQAQAAgFkZj8fnJXmXY64kDa4PJLnQSwcAnCoDFUkyUAEAAICZKqU8NMnHHXMlaXB9otb6DV46AOBUGKhIkoEKAAAAzFwp5SlJjjjmStLgOlJKucRLBwCcLAMVSTJQAQAAgLlI8iyHXEkaZqWUV3Zdt9trBwCcKAMVSTJQAQAAgLmptf66Q64kDbNa6xu3trbO8toBACfCQEWSDFQAAABgbkaj0d4kf+mQK0mDbTwej+/hxQMAbo+BiiQZqAAAAMBc7ezs3DnJOx1xJWmwvbdt20d48QCA4zFQkSQDFQAAAJi7WuuDknzUEVeSBtu1pZSv8+IBALfFQEWSDFQAAABgIUopT0hyoyOuJA22o0me33XdhlcPALg5AxVJMlABAACAhUnyDAdcSRp8f5jkbK8eAHBTBiqSZKACAAAAC1VrvdTxVpIGX9u27f28egDAFxioSJKBCgAAACzU5ubmniSXO95K0uD7SCnlCV4+AGDXLgMVSTJQAQAAgCUYj8fnJXmH460kDb4jpZRnd1234fUDgPVmoCJJBioAAACwFNvb2/dP8hHHW0kafqWU/z4ajc70+gHA+jJQkSQDFQAAAFiaJP8myQ2Ot5K0Fm0fOHDgXl4/AFhPBiqSZKACAAAAS1Vr/UFHW0lam/65aZqv9voBwPoxUJEkAxUAAABYulrrLzraStLadEOt9ZlePwBYLwYqkmSgAgAAAMv/orLrdid5i6OtJK1VvzWdTvd5BQFgTT73GahIkoEKAAAArILpdHpukgMOtpK0Vu1vmuYCryAADJ+BiiQZqAAAAMDKOHDgwL2SvN/BVpLWqg/VWp/kFQSAYTNQkSQDFQAAAFgpSR6W5KMOtpK0Vh1N8jObm5t7vIQAMEwGKpJkoAIAAAArp9b6VUk+42ArSWvXX00mk/O9hAAwPAYqkmSgAgAAACuplPJNSY441krS2vXBWuvjvIQAMCwGKpJkoAIAAAArK8kPONRK0lp2JMkLu67b7TUEgGEwUJEkAxUAAABYaaWUn3ColaS17fLt7e0v8hoCQP8ZqEiSgQoAAACs9peYXbdRSvllR1pJWts+0LbtY72IANDzz3YGKpJkoAIAAAAr/0Vm1+1O8keOtJK0tt2Y5Me7rtvwKgJATz/XGahIkoEKAAAA9MF0Ot1Xa/1rR1pJWuvecvDgwbt4FQGgfwxUJMlABQAAAHpj//79d8znONJK0vr23qZpLvYqAkC/GKhIkoEKAAAA9MpkMjk/ySEHWkla625I8hz/8gcA+sNARZIMVAAAAKB3SikPSPIhB1pJWvveOh6P7+FlBIDVZ6AiSQYqAAAA0EullC9L8gnHWUla+z6c5KleRgBYbQYqkmSgAgAAAL1Va31SksOOs5KkJL+Z5GyvIwCsJgMVSTJQAQAAgF6rtT49yTGHWUlSkneWUr7M6wgAq8dARZIMVAAAAKD3SinPdpSVJH2+G0opP9F13W4vJACsDgMVSTJQAQAAgEEopbzcUVaSdJNGTdPcxwsJAKvBQEWSDFQAAABgGF92dt1Gkt91kJUk3aSP11q/2ysJACvwmc1ARZIMVAAAAGAoNjc399RaX+8gK0m6abXWPxiPx+d5KQFgeQxUJMlABQAAAAYlyRmllDc5yEqSbtY/llK+xksJAMthoCJJBioAAAAwONPpdF8p5U8dYyVJN+tokpcmOcNrCQCLZaAiSQYqAAAAMEiHDh26Q5K/cIyVJN1K4+3t7Yd4LQFgcQxUJMlABQAAAAZra2vrrCRvc4iVJN1Kn03y/M3NzT1eTACYPwMVSTJQAQAAgEGbTCbnJPkHh1hJ0m309iQP82ICwHwZqEiSgQoAAAAM3ng8Pi/J2BFWknQbXV9rfYFfUwGA+TFQkSQDFQAAAFgLOzs7d05SHWElScdpXGt9uFcTAGbPQEWSDFQAAABgbWxvb39RkokDrCTpeL+mkuSFo9For5cTAGbHQEWSDFQAAABgrUwmk/OTTB1gJUnHq9batG37CC8nAMyGgYokGagAAADA2knyxUne7QArSbqdDid5sV9TAYDTZ6AiSQYqAAAAsJbG4/G9k7zH8VWSdHuVz3mU1xMATp2BiiQZqAAAAMDaatv2fkne7/gqSTqRX1MppfxUkjO8oABw8gxUJMlABQAAANZakgcm+aDDqyTpBKtJLvSCAsDJMVCRJAMVAAAAWHullIcm+ZCjqyTpBLshyUtHo9GZXlEAODEGKpJkoAIAAADs2rWraZpHJvmIo6sk6SQ6VEp5ilcUAG6fgYokGagAAAAAn9e27Zcm+ZiDqyTpZCqlvG4ymZzvJQWA22agIkkGKgAAAMBNtG17UZKPO7hKkk6yjyV5Rtd1u72mAHBLBiqSZKACAAAA3EzTNI/2734kSafY/qZpHuk1BYB/zUBFkgxUAAAAgFtRa314kqscWiVJp9CNpZSXb21tneVFBYDPMVCRJAMVAAAA4DYkeWCS9zm0SpJOsffUWr/BiwoABiqSZKACAAAAHFeS+yZ5tyOrJOlUq7W+vmmaC7yqAKwzAxVJMlABAAAAbkfTNBckucKRVZJ0Gl2b5Ee6rtvtZQVgHRmoSJKBCgAAAHACtre3vyhJdWCVJJ1OpZStJBd6WQFYNwYqkmSgAgAAAJygJHeqtf5vB1ZJ0ml2pJTyyv3799/R6wrAujBQkSQDFQAAAOAkTKfTc5P8jeOqJGkGXVVK+ff+7Q8A68BARZIMVAAAAICTtLW1dVaSyx1WJUmz+rc/bdte5IUFYMgMVCTJQAUAAAA4BdPpdF+t9Y0Oq5KkGXWs1vra8Xh8D68sAENkoCJJBioAAADAKRqNRntrrX/gqCpJmmHXlVKel+QMLy0AQ2KgIkkGKgAAAMBp6Lpud631NQ6qkqQZ984kX++lBWAwn50MVCTJQAUAAAA4PV3XbdRaL3VMlSTNulrrZUke6LUFoPefmwxUJMlABQAAADh9XddtJHmpY6okaQ4dTvKK6XR6rhcXgN5+ZjJQkSQDFQAAAGB2krzIIVWSNKc+WGv9vq7rNry4APSNgYokGagAAAAAM5bkOY6okqQ5tj/Jl3txAegTAxVJMlABAAAA5qCU8kNJjjmiSpLm1LEkv9M0zQVeXQD6wEBFkgxUAAAAgDkppXxnksOOqJKkOfapJC+ZTCbneHkBWGUGKpJkoAIAAADMUdM0j09yrQOqJGnO/XOt9Zmj0Wiv1xeAVWSgIkkGKgAAAMCcJbkwyT85nkqSFtC01vrNXddteIEBWCUGKpJkoAIAAAAsQNM090kydTiVJC2oUdu2F3mBAVgVBiqSZKACAAAALMjW1tZdk/yDo6kkaVHVWl+/vb19f68wAMtmoCJJBioAAADAAm1tbZ2V5M2OppKkBXa41nrp1tbWXb3EACyLgYokGagAAAAAC7a5ubknyW86mEqSFtzHa60vGI1GZ3qNAVg0AxVJMlABAAAAlqDruo1a6086lkqSltD7a63f33Xdbi8yAAv7DGSgIkkGKgAAAMDy1Fp/MMkRx1JJ0hJq27Z9stcYgEUwUJEkAxUAAABgyUop35jk0w6lkqRlVGv9s1LKl3mRAZgnAxVJMlABAAAAVkDTNBcnudqhVJK0xKHKG5umeaRXGYB5MFCRJAMVAAAAYEXUWh+U5D2OpJKkJXYsyf/c2dl5sJcZgFkyUJEkAxUAAABghYzH43vkcxxJJUnL7Eit9bU7Oztf4nUGYBYMVCTJQAUAAABYMdPp9Nwkf+E4KklagW5I8psHDhy4lxcagNNhoCJJBioAAADACkpyRpLfdxiVJK1I19daL51MJud7pQE4FQYqkmSgAgAAAKyorus2kvy8o6gkaYX6VJJXbG1t3dVLDcBJfb4xUJEkAxUAAABgtZVSnp3kmKOoJGmFuq7W+rPj8fg8LzUAJ8JARZIMVAAAAIAeKKV8R5LPOIhKklasjyZ54WQyOcdrDcDxGKhIkoEKAAAA0BNt216U5IOOoZKkFezDtdYfG41GZ3qxAbg1BiqSZKACAAAA9MiBAwfuVUopDqGSpBXtqiQ/7hdVALg5AxVJMlABAAAAeibJ2Uk2HUElSSvcNaWUn9rZ2bmzlxuAXbsMVCTJQAUAAADopa7rdpdS/qsDqCRpxbuulPLytm3v7vUGWPPPMAYqkmSgAgAAAPRXrfW7k3zWAVSStOJ9utZ6adu29/R6A6wnAxVJMlABAAAAeq5pmouTXOX4KUnqQYdrra/Z3t6+vxccYL0YqEiSgQoAAAAwAOPx+N5JqsOnJKknHam1/kGt9eFecYD1YKAiSQYqAAAAwEBMJpNzkvyxo6ckqUcdS/LHTdM82ksOMGwGKpJkoAIAAAAMSNd1u5O81MFTktTD3tq27WO95gAD/axioCJJBioAAADA8CT53iTXO3ZKknrY29q2fXLXdRtedIDhMFCRJAMVAAAAYKCSfGWSDzl0SpJ62rjW+rTNzc09XnWA/jNQkSQDFQAAAGDAmqa5T5IdR05JUo/7v7XW/zyZTM7xsgP0l4GKJBmoAAAAAAM3mUzOSfJmB05JUs/7aK3155qmucDrDtA/BiqSZKACAAAArIGu63aXUl7uuClJGkCHa62vbZrmkV54gB59JjFQkSQDFQAAAGB91Fq/P8n1jpuSpCFUa/2ztm2f3HXdhlceYLUZqEiSgQoAAACwZtq2fWySDztsSpIG1M7nR5hneOkBVpOBiiQZqAAAAABrKMl9k+w4aEqSBtaVtdYXJLmT1x5gtRioSJKBCgAAALCmkpyd5H84ZkqSBtgna62Xtm17Py8+wGowUJEkAxUAAABgjXVdt5HkR5Lc4JgpSRpgR2qtr2/b9iKvPsCSP3sYqEiSgQoAAABAkq9McqVDpiRpqNVa/7bW+rTRaLTXyw+weAYqkmSgAgAAALBr165duyaTyflJ3uaIKUkaeFfWWn+ybdu7e/0BFsdARZIMVAAAAAD+xWg02pvkFxwvJUlr0OEkv980zcX+AgCYPwMVSTJQAQAAALiFWuvTknzC8VKStCZt11q//9ChQ3fwVwDAfBioSJKBCgAAAMCtKqU8NMnU0VKStEZdXWv9ufF4fG9/CQDMloGKJBmoAAAAANym6XR6bpI3OFhKktasI7XWNzZN8/iu6zb8RQBw+gxUJMlABQAAAOC4uq7bKKU8L8kRB0tJ0hp2RSnlkslkco6/CgBO43OFgYok/T/27v3P77yu7/57kuySBSEiQjiK5hKrVYhIQSqGKlAoIuGgCILISOdAeqHUaItSwcAVWpGDAjVqhXoolmYoXhwE0YijNQ4z3/fz/Z1M3AFiBBEIiEo4COGQ3X1fP5ibF6ddks1MZub7vd9vt8d/sJl5f/J63jYGKgAAAAAXYzgcPjDJ3zhUSpLGtI+21l7SWvt6rwKAS2egIkkGKgAAAAAXbTgc3rm19meOlJKkca619uZa68N779u8DgAujoGKJBmoAAAAAFyS1dXVq5O8zIFSkqS8q7X2rCR38kIAuGkGKpJkoAIAAABws7TWnpTknOOkJEm5Lsnrkjxibm5uu1cCwBczUJEkAxUAAACAm621dq8kpx0mJUn6p96X5LnD4fDuXgoA/z8DFUkyUAEAAAC4LMvLy19Za32Dg6QkSZ/XDUneUmv9viRXeTEA485ARZIMVAAAAAAuW+99W2vtWReOcY6SkiR9fh9qrb1geXn5Hl4NwNh+MxioSJKBCgAAAMBaSfLQJH/rEClJ0o02n+SJ8/PzO70cgHFioCJJBioAAAAAayrJnWqtf+gAKUnSTXY2yUtrrd/i9QCMAwMVSTJQAQAAAFhzc3Nz25P8dJLrHCAlSfqyva3W+tSVlZVbeUUAo8pARZIMVAAAAADWzWAw+I4kf+3wKEnSRfXxWuuvttbu33uf8JIARomBiiQZqAAAAACsq5MnT9621vpaR0dJki6pv0jyM8vLy1/rNQGMAgMVSTJQAQAAAFh3vfeJJAeSfNrBUZKkS6u19se11qcuLi7exqsC2LLfBAYqkmSgAgAAAHCltNbuleTtjo2SJN2sPpXkf7bW/s38/PwOLwtgKzFQkSQDFQAAAIAramVl5VZJXuHIKEnSZfWBJC9Mck+vC2ArMFCRJAMVAAAAgA1Ra31Cko87MEqSdNkt11p/fHFxcbcXBrBZGahIkoEKAAAAwIZJ8n+11gYOi5IkrUnXJXlTa+3xCwsL13hpAJuJgYokGagAAAAAbKjV1dWrL/wTBQ6LkiStXR9L8muttX299wkvDmCjGahIkoEKAAAAwKZQa314kr91UJQkac17d5Ln1lr/mRcHsFEMVCTJQAUAAABg00hypyRvdUiUJGndWk7yzOXl5a/18gCuJAMVSTJQAQAAANhU5ubmtrfWnpXkOkdESZLWtcXW2r8/ceLEXbxAgPVmoCJJBioAAAAAm1Kt9QFJ/trxUJKkde+GWuufJDkwHA5v7xUCrAcDFUkyUAEAAADYtE6ePHnbJL/jcChJ0hXruiS/X2t96smTJ2/rNQKsFQMVSTJQAQAAANjUeu8TSQ4k+bSjoSRJV7TP1lrfkOSJx48fv7VXCXBZ73oDFUkyUAEAAADYCpLcM8mKY6EkSRvSp5K8ptb6fQsLC9d4mQCXykBFkgxUAAAAALaM06dP3yLJf05yvUOhJEkb1j8keVVr7XtXV1ev9kIBLoaBiiQZqAAAAABsObXWByR5lwOhJEkb3kdaa69M8ojTp0/fwisFuDEGKpJkoAIAAACwJa2urn5Fa+1XHAYlSdo0fby19urW2g8cP3781l4rwOcyUJEkAxUAAACALa3W+vAkH3AUlCRpU/XpJG9srf1Ikq/2YgEMVCTJQAUAAABgy1taWrpdkqOOgZIkbcquS/JHtdanLy4u3tXLBcaTgYokGagAAAAAjIxa6xOSfMQhUJKkTd1SkmcuLS19g9cLjA8DFUkyUAEAAAAYKSdOnLhLkt93/JMkaUt0bZLn1Vrv3Xuf8JKB0WWgIkkGKgAAAAAjp/c+keRAkk86/EmStGX6qyQvTvKdc3Nz271oYMTe6AYqkmSgAgAAADCqlpeX75HkbQ5+kiRtuf6mtfYrrbWHra6uXu1VA1ufgYokGagAAAAAjLT5+fkdrbVnJTnv2CdJ0pbs47XW17bWfmQwGNzR6wa2JgMVSTJQAQAAABgLtdZ7J7nWkU+SpK1drbW21n52OBz+i977Nq8c2BoMVCTJQAUAAABgbMzPz+9M8sIkNzjwSZI0En2wtfbK1tpjjx8/fmuvHdi8DFQkyUAFAAAAYOwMh8MHJvkrRz1Jkkaqz7bWjiV5Rmvt6714YHMxUJEkAxUAAACAsXT8+PFbJ3mFY54kSSPbO5O8uLX2oNXV1au9fmBjGahIkoEKAAAAwFhrrT0yyYcc8SRJGuk+luQ1SZ6ysrJyBy8guPIMVCTJQAUAAABg7A2Hw9tfOFo54EmSNPrdkGQpybOTfFvvfcJrCNafgYokGagAAAAAcEFr7bFJPuhwJ0nSWPXB1tpvtdZ+aHFxcbcXEawPAxVJMlABAAAA4HOcPHnytkle4VgnSdLYdqLW+vO11ofMz8/v9DqCtWGgIkkGKgAAAAB8CcPh8MFJ3uVIJ0nSWPepJG9JcjDJPf1zQHDzGahIkoEKAAAAADciyS2TvCjJ9Q50kiQpyQeS/GZr7Un+OSC4NAYqkmSgAgAAAMCXMRgM7pvkpKOcJEn6gpZbay8YDocP9s8BwU0zUJEkAxUAAAAALsLq6urVSZ6d5DOOcZIk6Ut0rtb6e0kO1lq/xT8HBJ/PQEWSDFQAAAAAuATD4fCft9b+zBFOkiRdxD8H9BtJnuifAwIDFUkyUAEAAADgkvXet9Van57kE45vkiTpInt7kiNJHreysnIHLyrG7g1toCJJBioAAAAA3DzD4fDuF/5X/o5ukiTpUru21vpfa63fPxwOb+9lxagzUJEkAxUAAAAALkPvfaLW+uQkH3ZokyRJl9Gft9Ze3lp7bJKv9spi5N7NBiqSZKACAAAAwOVbWVm5Q631fzmuSZKkNWolyUtba49ZWFj4Kq8ttjoDFUkyUAEAAABgDbXWHpnk/Y5qkiRpDbshyYla6y/UWh918uTJ23p1sdUYqEiSgQoAAAAAayzJrtbarzimSZKkdRysDFtrL2mtPXJ5efkrvcDY7AxUJMlABQAAAIB1MhgM/lWS045okiTpCgxW2oV/EugHTpw4cRcvMTYbAxVJMlABAAAAYB0tLCxck+TnklzneCZJkq5g70ny20n+XWvtXnNzc9u9zNhIBiqSZKACAAAAwBWQ5NuSDB3LJEnSBvWxJG9J8uzW2oNWVlZu5YXGlWSgIkkGKgAAAABcIfPz8zuS/FiSjzuSSZKkDe66/CP/LBBXhIGKJBmoAAAAAHCFJbnThf/lvuOYJEnalP8s0HA43OufBWItGahIkoEKAAAAABuktfagJO9wDJMkSf5ZIEadgYokGagAAAAAsIFWV1evTvJTSc45gkmSpK3wzwK11l5ea31yrfWf9d63edFxMQxUJMlABQAAAIBNYDgc3j3J/+vwJUmStlgfba0dq7U+v9b6qCR38rLjSzFQkSQDFQAAAAA2kSSPSPJuxy5JkrSFe1+t9bVJnpnkuxcXF2/jlYeBiiQZqAAAAACwySwsLFyT5HlJPuPAJUmSRqAbkqwm+fUkB1pr91ldXb3aq2+8GKhIkoEKAAAAAJvU8vLyPZL8vqOWJEkawT6d5G1JXtpae9Ly8vI9eu8TXoCjy0BFkgxUAAAAANjEeu8TSR6X5P0OWZIkacT7SJI/aK0drrXuHwwGd/QaHKF3rYGKJBmoAAAAALD5HT9+/NZJXpTkOscrSZI0Rr0/yRsv/POHjx4Oh3f3f1rZmgxUJMlABQAAAIAtJMk9k/ypY5UkSRrjPpzkrUlemOSJrbVvmpub2+6luLkZqEiSgQoAAAAAW8yFf/bnKUn+1oFKkiQpPckna60LSX4pyVRr7T6nT5++hZfjJnrDGqhIkoEKAAAAAFvTyZMnb5vkSJIbHKUkSZK+qPNJTiT59SQ/1lrbd/z48Vt7RW4MAxVJMlABAAAAYIsbDAb3rbVWRyhJkqQv2w1J/iLJ0STPTPLQ4XB4ey/K9WegIkkGKgAAAACMgLm5ue1JnpbkIw5PkiRJl9z7k7yxtXa41vqEWuu3JLnKK3PtGKhIkoEKAAAAACNkZWXlDhf+N/YOTZIkSZfXZ5P8eWvt1a21Z9Va99da9/Tet3l1XjoDFUkyUAEAAABgBNVa71drXXBYkiRJWvM+kWSptfbKWuuP11ofMhgM7th7n/AKvXEGKpJkoAIAAADAiOq9T9RafzDJex2SJEmS1r2/TzLfWnt5rXV2MBh8R5JdXqUX3qYGKpJkoAIAAADAaEtyyyTPTvJJhyNJkqQr3ntba29urb2g1vrkWuu95+fnd47bm9RARZIMVAAAAAAYE4uLi3dtrf2WI5EkSdKGd32Sd9ZaX9taO1xrffJgMLjv4uLibUb1LWqgIkkGKgAAAACMmVrr/WqtCw5DkiRJm7IzSd6a5EiSH0vy0CRf03vftpXfoAYqkmSgAgAAAMAY6r1P1Fp/MMn7HIEkSZK2RJ9Mstxae3Vr7Wdba48fDod7k9xyS7w/DVQkyUAFAAAAgPGV5JZJnpPknKOPJEnSlu09Sd6S5BeTPC3Jdye5U+99YrO8Ow1UJMlABQAAAADK4uLiXWut/8NxR5IkaaT6WJKl1tpvtdae1Vp77GAw+Ob5+fmdV/q9aaAiSQYqAAAAAPBPWmv3T7LomCNJkjTS3ZDkfa21P07yiiQ/3Vr7gSTflmTXerwzDVQkyUAFAAAAAD5P731ba+1JSd7veCNJkjSW/f2F0fJvJ3lerfWHa60PGAwGd7y5/2yQgYokGagAAAAAwJe0srJyq1rroSTnHGkkSZJ0oU8kWUnyO7XWn6+1ztZaH7K8vPy1c3Nz22/sbWmgIkkGKgAAAABwkwaDwd2SvMoxRpIkSV+mzyb5i9bam1trL2+t/fvW2ve21r7puqff6kccmiXJQAUAAAAAvqzW2v0v/K/eHV8kSZJ0Sb3/lT/6Zw7NknTJHesHyh5/IwEAAADA2Om9b2utPSnJ+x1aJEmSZKAiSevS2T5dJnspE/4mAgAAAICxtrKycqta66Ek5xxcJEmSZKAiSWv2T/oc7VNlt795AAAAAIDPMRgM7pbkN5Pc4PAiSZIkAxVJutmd6dNlv79pAAAAAICb0Fq7V5LfdXyRJEmSgYokXXJH+kzZ5W8XAAAAAOAiDQaDf5Vk0RFGkiRJBiqS9GU71afKPn+bAAAAAAA3Q+99orX2mCTvdIyRJEmSgYokfVHn+0w53CfLTn+LAAAAAACXaX5+fkdrbTrJBxxlJEmSDFQcpCWp9D5Tap8te/2tAQAAAACssSS3TPLTST7qOCNJkmSgIklj2rk+Ww72Q2WHvykAAAAAgHW0tLR0uyQvSvIZRxpJkiQDFUkao471A2WPvxkAAAAAgCsoydck+fUkNzjWSJIkGahI0gh3tk+XyV7KhL8NAAAAAIANkuSeSd7oYCNJkmSgIkkj12w52qfKbl//AAAAALBJDIfDByZ5m8ONJEmSgYokjUBn+nTZ72sfAAAAADah3vtEkkcneYcDjiRJkoGKJG3RjvSZsstXPgAAAABscvPz8zuSTCU545AjSZJkoCJJW6RTfars81UPAAAAAFtMklsmeWaSjzroSJIkGahI0ibtfJ8ph/tk2elLHgAAAAC2sIWFha9K8sIkn3bYkSRJMlCRpE1U7bNlry93AAAAABghSb6m1vrfk1zvwCNJkmSgIkkb2Lk+Ww72Q2WHr3UAAAAAGFG11m9prb3ekUeSJMlARZI2oGP9QNnj6xwAAAAAxsRgMLhvkjc59kiSJBmoSNIV6GyfLpO9lAlf5AAAAAAwhlpr90/yFkcfSZIkAxVJWpdmy9E+VXb7AgcAAAAASq31AbXWP3T8kSRJMlCRpDXqTJ8u+31xAwAAAABfZDgcPjDJvCOQJEmSgYokXUZH+kzZ5SsbAAAAALhJSb47yf9xDJIkSTJQkaRL6FSfKvt8VQMAAAAAF633PlFrfUitdcFRSJIkyUBFkm6i832mHO6TZaevaQAAAADgZum9T7TWHpZkyXFIkiTJQEWSvqDaZ8teX88AAAAAwJq48H9U+Z78I4ciSZIkAxVJ4925PlsO9kNlhy9mAAAAAGDNXfg/qjwyybJjkSRJkoGKpLHsWD9Q9vhCBgAAAADW3YWhymOSrDgaSZIkGahIGovO9uky2UuZ8FUMAAAAAFxRvfdttdbvT3Kt45EkSZKBiqQRbbYc7VNlt69gAAAAAGBD9d63tdYen+QdjkiSJEkGKpJGpjN9uuz31QsAAAAAbCpzc3PbkzwxySnHJEmSJAMVSVu6I32m7PKlCwAAAABsWvPz8ztqrU9O8peOSpIkSQYqkrZUp/pU2efLFgAAAADYMubn53e01n4kybsclyRJkgxUJG3qzveZcrhPlp2+ZgEAAACALWl+fn7HhX/651pHJkmSJAMVSZuu2mfLXl+vAAAAAMBI6L1vq7U+KsmSY5MkSZKBiqQN71yfLQf7obLDFysAAAAAMHJ67xPD4fDBSd7q6CRJkmSgImlDOtYPlD2+UAEAAACAsdBau39r7fWOT5IkSQYqkq5IZ/t0meylTPgiBQAAAADGTpJ7JvntJNc7REmSJBmoSFqHZsvRPlV2+wIFAAAAAMZea+3rk/y3JJ91kJIkSTJQkbQmnenTZb8vTgAAAACAL3DixIm7tNZekuSTDlOSJMlAxYFd0s3uSJ8pu3xlAgAAAADchCRfneR5ST7iQCVJkgxUJOmiO9Wnyj5flQAAAAAAl2BxcfE2tdb/mORvHKokSZKBiiTdaOf7TDncJ8tOX5IAAAAAADfTwsLCNUn+XZL3OFhJkiQDFUn6vGqfLXt9OQIAAAAArJEkVyV5SpJ3OlxJkiQDFUlj3rk+Ww72Q2WHr0UAAAAAgHUwNze3vdb6fUmaA5YkSTJQkTSGHesHyh5fhwAAAAAAV0DvfaK19rBa6584ZEmSJAMVSWPQ2T5dJnspE74IAQAAAAA2QJLvTPImBy1JkmSgImkkmy1H+1TZ7esPAAAAAGATqLXeu7X26iTXOW5JkiQDFUkj0Jk+Xfb72gMAAAAA2ISGw+Hdk7w4yccduSRJkoGKpC3akT5TdvnCAwAAAADY5JLsSvITSd7r2CVJkgxUJG2RTvWpss8XHQAAAADAFpPkqlrrE2qt1dFLkiQZqEjapJ3vM+Vwnyw7fcUBAAAAAGxhvfeJ4XD4wNba65Pc4AAmSZIMVCRtkmqfLXt9tQEAAAAAjJilpaVvSPLLSc45hEmSJAMVSRvUuT5bDvZDZYevNAAAAACAEZbkq5P8TJK/cRCTJEkGKpKuYMf6gbLHVxkAAAAAwBiZn5/fWWt9apJrHcYkSZKBiqR17GyfLpO9lAlfYgAAAAAAY6r3PtFa+zettWMOZJIkyUBF0po2W472qbLblxcAAAAAAP9kOBzuTfIbST7rWCZJkgxUJF1GZ/p02e8rCwAAAACAGzUcDu+c5D8nOetoJkmSDFQkXWJH+kzZ5csKAAAAAICLsrKycqta69OTvMvxTJIkGahI+jKd6lNlny8pAAAAAABulrm5ue2ttcckOe6IJkmSDFQkfUHn+0w53CfLTl9PAAAAAACsiSTfnmQuyfUOapIkyUBFGvtqny17fSkBAAAAALAulpaWvi7JLyb5B4c1SZJkoCKNXef6bDnYD5Udvo4AAAAAAFh3i4uLt0nyo0lOObBJkiQDFWksOtYPlD2+hgAAAAAAuOJ679tqrf+6tfb6JDc4tkmSJAMVaeQ626fLZC9lwhcQAAAAAAAbbmlp6etaay9I8mFHN0mSZKAijUCz5WifKrt97QAAAAAAsOksLCxcU2t9apJlxzdJkmSgIm3JzvTpst/XDQAAAAAAm17vfWIwGHxHkv+Z5LxDnCRJMlCRtkRH+kzZ5YsGAAAAAIAtJ8mdkjwnyQcc5CRJkoGKtCk71afKPl8vAAAAAABseUmuaq09PsmfOsxJkmSgYhAgbYrO95lyuE+Wnb5YAAAAAAAYOYPB4FuT/FqSc450kiQZqEjakGqfLXt9nQAAAAAAMPIWFha+KslPJHm3Y50kSQYqkq5I5/psOdgPlR2+SAAAAAAAGCtzc3PbW2vfm+QtjnaSJBmoSFq3jvUDZY8vEAAAAAAAxt7S0tI3JPnFJB9zwJMkyUBF0pp0tk+XyV7KhC8OAAAAAAD4HKurq1+R5GlJrnXIkyTJQEXSzWy2HO1TZbcvDAAAAAAAuAm994kk311rfW2S6x31JEkyUJF0UZ3p02W/LwoAAAAAALhESb6m1vr8JH/nuCdJkoGKpBvtSJ8pu3xBAAAAAADAZTh9+vQtWmuPT/JWRz5JkgxUJP1Tp/pU2eeLAQAAAAAA1lhr7euT/FySDzn4SZJkoCKNaef7TDncJ8tOXwgAAAAAALCOVldXr661fn+SP3D4kyTJQEUao2qfLXt9EQAAAAAAwBVWa91Ta31+kg86AkqSZKAijWjn+mw52A+VHb4AAAAAAABgAyW5KsmjW2tvTnKDg6AkSQYq0oh0rB8oe7z4AQAAAABgkxkOh3dP8rwk73cYlCTJQEXaop3t02WylzLhhQ8AAAAAAJvY/Pz8jtbaI5O8Mcn1joSSJBmoSFui2XK0T5XdXvQAAAAAALDFLC4u3jXJc5K817FQkiQDFWmTdqZPl/1e7wAAAAAAsMXNzc1tr7V+T5LXJbnO4VCSJAMVaZN0pM+UXV7sAAAAAAAwYobD4Z1rrf8pyXscECVJMlCRNqhTfars8zoHAAAAAIAR13vfluShrbX/neS8Y6IkSQYq0hXofJ8ph/tk2elFDgAAAAAAY2YwGNwxyU8leZejoiRJBirSOlX7bNnr9Q0AAAAAAGOu975tOBw+OMnRJJ91YJQkyUBFWoPO9dlysB8qO7y4AQAAAACAzzMcDm+f5CeTvNOhUZIkAxXpZnasHyh7vK4BAAAAAICb1HufSPLtSX45yUcdHSVJMlCRLqKzfbpM9lImvKgBAAAAAIBLMj8/v7O19vjW2puTXO8AKUmSgYr0Rc2Wo32q7PZ6BgAAAAAALttwOLxzrfU/Jnm7Q6QkSQYqUp8pZ/p02e+lDAAAAAAArLne+8RgMLhvkl9KctZRUpIkAxWNZUf6TNnldQwAAAAAAKy706dP36LW+v1JfjfJdQ6UkiQDFWnkO9Wnyj4vYQAAAAAAYEMkuVOSn0xyrUOlJMlARRq5zveZcrhPlp1evgAAAAAAwIbrvU+01u7TWnt5kg87WkqSDFSkLV/ts2Wvly4AAAAAALApnT59+hattcfWWt/gnwCSJBmoSFuuc322HOyHyg4vWwAAAAAAYEtYXFzcXWv98SQnHTIlSQYq0qbvWD9Q9njFAgAAAAAAW1LvfaLWeu8kv5jk7xw1JUkGKtKm6myfLpO9lAkvVwAAAAAAYCSsrq5eneTRSV6X5LwDpyTJQEXawGbL0T5VdnulAgAAAAAAI2s4HN4+yTOSLDt0SpIMVKQr2pk+XfZ7kQIAAAAAAGNlOBzuba29JMnfOnpKkgxUpHXtSJ8pu7xAAQAAAACAsZXkqlrr9yR5VZJPOIBKkgxUpDXrVJ8q+7w4AQAAAAAAPsfKysqtaq1PqLW+Icl5x1BJkoGKdLM632fK4T5ZdnphAgAAAAAA3ISlpaXbtdZmWmt/7CgqSTJQkS662mfLXq9JAAAAAACASzQYDO6W5CeTDB1IJUkGKtKX7FyfLQf7obLD6xEAAAAAAOAyJfnGJM9N8peOpZIkAxWp9D5TjvUDZY+XIgAAAAAAwBrrvU8MBoP71lp/IckHHU4lSQYqGsPO9uky2UuZ8DoEAAAAAABYZ3Nzc9uHw+GDW2uvTPJRR1RJkoGKRr7ZcrRPld1eggAAAAAAABtgfn5+Z2vtMUlek+TTDqqSJAMVjVhn+nTZ79UHAAAAAACwSSTZleQpSX4/yfWOq5IkAxVt8Y70mbLLKw8AAAAAAGCTWlxc3J3kR5O8zZFVkmSgoi3WqT5V9nnRAQAAAAAAbCG11j211v+U5O0OrpIkAxVt4s73mXK4T5adXnAAAAAAAABbVO99Yjgc7m2tvSDJex1fJUkGKtpE1T5b9nqxAQAAAAAAjJDe+7Yk35nkSJK/d4iVJBmoaIM612fLwX6o7PBCAwAAAAAAGGFJrmqtPSzJK5J82FFWkmSgoivUsX6g7PEaAwAAAAAAGDNJrqq1/uta668m+TsHWkkyUJHWobN9ukz2Uia8vgAAAAAAAMbc/Pz8jtbag5L8cpIPOdZKkoGKdNnNlqN9quz20gIAAAAAAOCLzM3Nba+1flet9b8m+aDDrSQZqEiX2Jk+XfZ7VQEAAAAAAHBR5ubmtrfW9iV5WZIzjriSZKAifZmO9JmyyysKAAAAAACAm6X3vm0wGHxHrfUXkrzPQVeSDFSkz+lUnyr7vJgAAAAAAABYM733ba21+yd5UZL3OO5KkoGKxrbzfaYc7pNlpxcSAAAAAAAA66b3PjEYDO5ba/35JO926JUkAxWNTbXPlr1eQwAAAAAAAFxRvfeJ1tp9kvyXJH/p6CtJBioayc712XKwHyo7vH4AAAAAAADYUBf+zyrf2lo7nOSUA7AkGahoJDrWD5Q9XjoAAAAAAABsOr33iST3TPK8JO9wDJYkAxVtuc726TLZS5nwsgEAAAAAAGBLGAwG39xa+9kk1zoMS5KBijZ5s+Vonyq7vWAAAAAAAADYslpr35TkZ5KccCSWJAMVbarO9Omy32sFAAAAAACAkbK8vPy1SZ6R5I+SXOdoLEkGKtqwjvSZssvrBAAAAAAAgJG2sLDwVa21H0rymiSfcECWJAMVXZFO9amyz0sEAAAAAACAsTM/P7+z1vo9tdZfTfJBx2RJMlDRmne+z5TDfbLs9PIAAAAAAABg7PXetyX59iT/JcnbHZYlyUBFl13ts2WvVwYAAAAAAADciOXl5Xsk+ckkf5rkBodmSTJQ0UV3rs+Wg/1Q2eFFAQAAAAAAABdpZWXlDrXWp7bWXp/kU47OkmSgohvtWD9Q9ng9AAAAAAAAwGVIcsta66OS/HqSv3OAliQDFZXeZ8rZPl0meykTXgsAAAAAAACwhubm5ra31vYleVGSv3SMliQDlbFsthztU2W3lwEAAAAAAACss977xGAw+ObW2rOSLDlMS5KByhh0pk+X/V4BAAAAAAAAsEGGw+Gdkzyt1vp7ST7jUC3JQEUj1pE+U3b5jQ8AAAAAAACbxPHjx2+d5HFJXpXkI47WkgxUtIU71afKPr/dAQAAAAAAYBNLctVwOHxwkpcl+WsHbEkGKtoine8z5XCfLDv9NgcAAAAAAIAtpPc+keSeSZ5Za/2TJNc5aEsyUNEmrPbZstdvbgAAAAAAABgBy8vLX9la+4Ekv5HkQ47bkgxUtMGd67PlYD9UdvgtDQAAAAAAACOo975tOBz+iyTPSbKY5AbHbkkGKrqCHesHyh6/kQEAAAAAAGCMDIfD29dan9xae3WSsw7fkgxUtE6d7dNlspcy4bcvAAAAAAAAjLH5+fkdtdYH1Fqfn2TZEVySgYrWpNlytE+V3X7TAgAAAAAAAF/kxIkTd6m1/tskv5PkHxzFJRmo6BI706fLfr9RAQAAAAAAgIuyurp6dWvtQUlelOTtDuSSDFT0ZTrSZ8ouv0EBAAAAAACAm63Wuqe19n8neVOSTzmYSzJQ0YVO9amyz29KAAAAAAAAYE0tLCxcU2t9eGvt5Une7XguyUBlLDvfZ8rhPll2+s0IAAAAAAAArKve+0SSb0xysNb6h0k+65guyUBl5Kt9tuz1WxAAAAAAAADYEMePH791kkcn+W9J3u+wLslAZaQ612fLwX6o7PAbDwAAAAAAANgUeu8TrbV7JfnpJH+a5DqHdkkGKlu2Y/1A2eO3GwAAAAAAALCpJdlVa31Ukl9K8heO7pIMVLZEZ/t0meylTPhNBgAAAAAAAGw5S0tLX9dam0nymiQfcYSXZKCyyZotR/tU2e03FgAAAAAAADAS5ubmttda75fkZ2qtf5LkvKO8JAOVDetMny77/XYCAAAAAAAARtrx48dv3Vr73iQvS/IOB3rJQMVo5Ip1pM+UXX4TAQAAAAAAAGNnMBjcrdb61Frr/0ry9w72koGK1rxTfars8xsHAAAAAAAAoJTSe9/WWrtPkp9K8kdJPuOALxmo6GZ3vs+Uw32y7PQbBgAAAAAAAOBGrKys3KrW+vDW2kuSXOuYLxmo6KKrfbbs9ZsEAAAAAAAA4BKdOHHiLkmekuS3k3zIcV8yUNEXda7PloP9UNnhtwYAAAAAAADAZeq9bxsMBt/aWvsPrbVjST7t2C8ZqIx5x/qBssdvCAAAAAAAAIB1srCwcE2ShyZ5YZIVh3/JQGWMOtuny2QvZcJvAwAAAAAAAIAraDAY3LG19kNJfjPJBw0BJAOVkWy2HO1TZbef+gAAAAAAAAAbrPc+keSeSZ6R5HVJPmIYIBmobPHO9Omy3094AAAAAAAAgE1qbm5ue5JvS/ITSX43yccNBSQDlS3UkT5TdvlpDgAAAAAAALCFzM/P76i13i/JM2utv5fkE4YDkoHKJuxUnyr7/NQGAAAAAAAAGAFJrhoOh/+ytfas1tqxJOcMCSQDlQ3sfJ8ph/tk2eknNAAAAAAAAMCIOn369C1aa/uSPCfJHyX5tGGBZKByhap9tuz1kxgAAAAAAABgzMzPz++stX5Xkucm+T9JPmtoIBmorHHn+mw52A+VHX7qAgAAAAAAAFCS3LLW+pBa6/Nba3+W5LzhgWSgchkd6wfKHj9dAQAAAAAAALhRq6urX9Fae1iSn0uylOR6QwTJQOUiOtuny2QvZcJPUgAAAAAAAAAuyeLi4m2SPCLJi/KPbjBMkAxUPq/ZcrRPld1+YgIAAAAAAACwJpaXl7+y1rq/1voLSU4YKchAZazHKWf6dNnvJyMAAAAAAAAA62ppael2rbXHJnlZkj83WpCByth0pM+UXX4KAgAAAAAAAHDFrays3CHJ45K8NMkwyfWGDDJQGalO9amyz087AAAAAAAAADaNxcXF27TWHpbk/2mt/XGSTxk2yEBlS3a+z5TDfbLs9JMNAAAAAAAAgE1tdXX16uFw+C9ba/+h1vqGJGcNHWSgsumrfbbs9RMMAAAAAAAAgC2p975tMBh8c611NsmrkrzH8EEGKpumc322HOyHyg4/rQAAAAAAAAAYKYPB4G611h9MciTJySQ3GEPIQOWKd6wfKHv8RAIAAAAAAABgLJw8efK2SR6R5OeSHE/yGeMIGaisW2f7dJnspUz46QMAAAAAAADA2FpYWLhmOBw+sLX2rFrr7yX5mLGEDFTWoNlytE+V3X7KAAAAAAAAAMAXmJub2z4YDL611vr0JEeTfMB4QgYql9SZPl32+2kCAAAAAAAAABep9z5Ra91Ta/3hJL+W5B3GFDJQudGO9Jmyy08OAAAAAAAAALhMw+Hw9kkeneTFSZaSXGdgoTEfqJzqU2Wfnw4AAAAAAAAAsE5WVlZu1Vp7UGvtZ1trx5J8wuBCYzJQOd9nyuE+WXb6SQAAAAAAAAAAV9D8/PyO4XC4N8nTkvxGkncaYGgEByq1z5a9/sQDAAAAAAAAwCaxtLR0u1rrw5M8N8kfJPmYUYa26EDlXJ8tB/uhssOfbAAAAAAAAADYxHrv24bD4T+vtf7bJL+W5NokNxhqGKhs8o71A2WPP8EAAAAAAAAAsEUl2VVrfUiSZyd5U5IPG24YqGySzvbpMtlLmfAnFQAAAAAAAABGSO99Ymlp6RtqrT+c5EiS5STXG3MYqFzRZsvRPlV2+xMJAAAAAAAAAGNidXX1K2qt35Xkp5K8LsmHjDsMVNapM3267PenDgAAAAAAAADG3IX/y8rX1Vp/MMnLWmuDJOcNPgxULrMjfabs8icMAAAAAAAAAPiSFhYWrqm1PiDJT7TW/neSMwYgBioX2ak+Vfb5UwQAAAAAAAAAXLLFxcW7JnlckhfXWheSfMYoxEDlczrfZ8rhPll2+tMCAAAAAAAAAKyJ06dP36LWer8kz2itvTrJXxmJjO1ApfbZstefCgAAAAAAAABg3Q0GgzsmeUSt9VCS303yIcORkR6onOuz5WA/VHb4rx8AAAAAAAAA2BC994nBYHC31tpjaq3PT/IHSc4ak4zEQOVYP1D2+K8cAAAAAAAAANh0eu8TtdY9rbXHJ3lhkvkkHzcw2TIDlbN9ukz2Uib81wwAAAAAAAAAbBm9921JvrG19kNJXvr/tWv/rHWXYRyHn0qgxSIVh2Zx0s3BCg7FobrYRaSLm1OUJCcOIkQoOCgFO7m5hA5CwaHSoZNOdjggMRzP831O/C2BcnRQ2k0cHCq01scXoBStxubPdcH9Bu77Hj+tta+T3Bad7LFAZVSu9uWy6GMBAAAAAAAAgANhPB4vtNaerbW+mWSj1lqT3BGiPJRA5VZfKed8JQAAAAAAAABw4M3n86OtteeTrCX5JMm3SX4Tp+xqoLLRV8sJ3wcAAAAAAAAAHFpJHp3NZi8kebu19mmSnSS/C1T+9dzoy+WMDwMAAAAAAAAA+Aubm5uPTafTl5K821r7LMl3ApW/PXf7arnYl8oxnwQAAAAAAAAA8A9sbW09UWt9Ocl7tdZrSX4QqPxpah+VU74FAAAAAAAAAOA/MplMFmutryT5IMnnSW4e0kDldh+V9X6hLPgKAAAAAAAAAIBdNgzDyVrr2Vrr+SRXkuwkuXeAA5Xr/a3ylMsDAAAAAAAAADxEwzAcT3I6yVpr7VKSb5L8us8DlZ/7SlnqpRxxYQAAAAAAAACAPWg8Hi/MZrNnkrxea/2otXY9yU/7IlAZlat9uSy6IgAAAAAAAADAPtN7PzKZTJ5srb2a5P1a67Uk3++hQOVWXynnXAoAAAAAAAAA4IDZ3t5+fDabvZjknSSXk2wnufM/ByobfbWccA0AAAAAAAAAgENiPp8fnU6nz7XW3kjycZKvkvyyC4HKjb5cztg4AAAAAAAAAACl9/5Ikqdrra8l+TDJF0luPmCgcrevlot9qRyzWQAAAAAAAAAA7msYhpO11rO11vNJriTZSXLvPoFK7aNyyuYAAAAAAAAAAHhgwzAcT3I6yVpr7VKSyY+X17/so7LeL5QFGwIAAABgL/oDaD6wdb3v71kAAAAASUVORK5CYII=;" vertex="1" parent="1">
          <mxGeometry x="279" y="170" width="30" height="30" as="geometry" />
        </mxCell>
        <mxCell id="RPptzQqUfsC-ALQ0HFax-14" value="Authentication and authorization" style="text;html=1;align=center;verticalAlign=middle;whiteSpace=wrap;rounded=0;strokeColor=default;dashed=1;" vertex="1" parent="1">
          <mxGeometry x="251" y="80" width="118" height="40" as="geometry" />
        </mxCell>
        <mxCell id="RPptzQqUfsC-ALQ0HFax-16" value="Catalog and inventory management" style="text;html=1;align=center;verticalAlign=middle;whiteSpace=wrap;rounded=0;strokeColor=default;dashed=1;" vertex="1" parent="1">
          <mxGeometry x="260" y="277.5" width="130" height="40" as="geometry" />
        </mxCell>
        <mxCell id="RPptzQqUfsC-ALQ0HFax-18" value="Logs and monitoring" style="text;html=1;align=center;verticalAlign=middle;whiteSpace=wrap;rounded=0;strokeColor=default;dashed=1;" vertex="1" parent="1">
          <mxGeometry x="470" y="33" width="120" height="27.5" as="geometry" />
        </mxCell>
        <mxCell id="RPptzQqUfsC-ALQ0HFax-21" style="edgeStyle=orthogonalEdgeStyle;rounded=1;orthogonalLoop=1;jettySize=auto;html=1;entryX=0.005;entryY=0.583;entryDx=0;entryDy=0;entryPerimeter=0;curved=0;" edge="1" parent="1" source="RPptzQqUfsC-ALQ0HFax-2" target="RPptzQqUfsC-ALQ0HFax-15">
          <mxGeometry relative="1" as="geometry" />
        </mxCell>
        <mxCell id="RPptzQqUfsC-ALQ0HFax-24" style="edgeStyle=orthogonalEdgeStyle;rounded=1;orthogonalLoop=1;jettySize=auto;html=1;entryX=0.005;entryY=0.6;entryDx=0;entryDy=0;entryPerimeter=0;curved=0;" edge="1" parent="1" source="RPptzQqUfsC-ALQ0HFax-1" target="RPptzQqUfsC-ALQ0HFax-17">
          <mxGeometry relative="1" as="geometry">
            <Array as="points">
              <mxPoint x="440" y="85" />
            </Array>
          </mxGeometry>
        </mxCell>
      </root>
    </mxGraphModel>
  </diagram>
  <diagram id="_tNrjqjF-LjzKBodtHml" name="9.2">
    <mxGraphModel dx="790" dy="544" grid="1" gridSize="10" guides="1" tooltips="1" connect="1" arrows="1" fold="1" page="1" pageScale="1" pageWidth="850" pageHeight="1100" math="0" shadow="0">
      <root>
        <mxCell id="0" />
        <mxCell id="1" parent="0" />
        <mxCell id="q_w2-BSLk2-w-cCYekXZ-10" style="edgeStyle=orthogonalEdgeStyle;rounded=1;orthogonalLoop=1;jettySize=auto;html=1;entryX=0;entryY=0.5;entryDx=0;entryDy=0;curved=0;" edge="1" parent="1" source="vqLT8_SoXhe7MJbr6x8X-1" target="3XD_pELlIpMvmLu-8iDF-6">
          <mxGeometry relative="1" as="geometry" />
        </mxCell>
        <mxCell id="q_w2-BSLk2-w-cCYekXZ-12" style="edgeStyle=orthogonalEdgeStyle;rounded=1;orthogonalLoop=1;jettySize=auto;html=1;entryX=0;entryY=0.5;entryDx=0;entryDy=0;curved=0;" edge="1" parent="1" source="vqLT8_SoXhe7MJbr6x8X-1" target="3XD_pELlIpMvmLu-8iDF-7">
          <mxGeometry relative="1" as="geometry" />
        </mxCell>
        <mxCell id="q_w2-BSLk2-w-cCYekXZ-14" style="edgeStyle=orthogonalEdgeStyle;rounded=1;orthogonalLoop=1;jettySize=auto;html=1;entryX=0;entryY=0.5;entryDx=0;entryDy=0;curved=0;" edge="1" parent="1" source="vqLT8_SoXhe7MJbr6x8X-1" target="3XD_pELlIpMvmLu-8iDF-8">
          <mxGeometry relative="1" as="geometry" />
        </mxCell>
        <mxCell id="vqLT8_SoXhe7MJbr6x8X-1" value="" style="sketch=0;aspect=fixed;pointerEvents=1;shadow=0;dashed=0;html=1;strokeColor=none;labelPosition=center;verticalLabelPosition=bottom;verticalAlign=top;align=center;fillColor=#00188D;shape=mxgraph.azure.laptop" vertex="1" parent="1">
          <mxGeometry x="170" y="185" width="50" height="30" as="geometry" />
        </mxCell>
        <mxCell id="q_w2-BSLk2-w-cCYekXZ-16" style="edgeStyle=orthogonalEdgeStyle;rounded=1;orthogonalLoop=1;jettySize=auto;html=1;curved=0;" edge="1" parent="1" source="vqLT8_SoXhe7MJbr6x8X-2" target="q_w2-BSLk2-w-cCYekXZ-1">
          <mxGeometry relative="1" as="geometry">
            <Array as="points">
              <mxPoint x="530" y="30" />
            </Array>
          </mxGeometry>
        </mxCell>
        <mxCell id="q_w2-BSLk2-w-cCYekXZ-21" style="edgeStyle=orthogonalEdgeStyle;rounded=1;orthogonalLoop=1;jettySize=auto;html=1;curved=0;" edge="1" parent="1" source="vqLT8_SoXhe7MJbr6x8X-2" target="q_w2-BSLk2-w-cCYekXZ-6">
          <mxGeometry relative="1" as="geometry">
            <Array as="points">
              <mxPoint x="630" y="110" />
              <mxPoint x="630" y="60" />
            </Array>
          </mxGeometry>
        </mxCell>
        <mxCell id="vqLT8_SoXhe7MJbr6x8X-2" value="Payments API&lt;div&gt;(REST)&lt;/div&gt;&lt;div&gt;[Server 1]&lt;/div&gt;" style="rounded=0;whiteSpace=wrap;html=1;fillColor=#d5e8d4;strokeColor=#82b366;" vertex="1" parent="1">
          <mxGeometry x="480" y="90" width="120" height="60" as="geometry" />
        </mxCell>
        <mxCell id="q_w2-BSLk2-w-cCYekXZ-17" style="edgeStyle=orthogonalEdgeStyle;rounded=1;orthogonalLoop=1;jettySize=auto;html=1;curved=0;" edge="1" parent="1" source="vqLT8_SoXhe7MJbr6x8X-3" target="q_w2-BSLk2-w-cCYekXZ-3">
          <mxGeometry relative="1" as="geometry">
            <Array as="points">
              <mxPoint x="620" y="200" />
              <mxPoint x="620" y="152" />
            </Array>
          </mxGeometry>
        </mxCell>
        <mxCell id="q_w2-BSLk2-w-cCYekXZ-20" style="edgeStyle=orthogonalEdgeStyle;rounded=1;orthogonalLoop=1;jettySize=auto;html=1;curved=0;" edge="1" parent="1" source="vqLT8_SoXhe7MJbr6x8X-3" target="q_w2-BSLk2-w-cCYekXZ-8">
          <mxGeometry relative="1" as="geometry" />
        </mxCell>
        <mxCell id="vqLT8_SoXhe7MJbr6x8X-3" value="Orders API&lt;div&gt;(GraphQL)&lt;/div&gt;&lt;div&gt;[Server 2]&lt;/div&gt;" style="rounded=0;whiteSpace=wrap;html=1;fillColor=#dae8fc;strokeColor=#6c8ebf;" vertex="1" parent="1">
          <mxGeometry x="480" y="170" width="120" height="60" as="geometry" />
        </mxCell>
        <mxCell id="q_w2-BSLk2-w-cCYekXZ-18" style="edgeStyle=orthogonalEdgeStyle;rounded=1;orthogonalLoop=1;jettySize=auto;html=1;curved=0;" edge="1" parent="1" source="vqLT8_SoXhe7MJbr6x8X-4" target="q_w2-BSLk2-w-cCYekXZ-2">
          <mxGeometry relative="1" as="geometry" />
        </mxCell>
        <mxCell id="q_w2-BSLk2-w-cCYekXZ-19" style="edgeStyle=orthogonalEdgeStyle;rounded=1;orthogonalLoop=1;jettySize=auto;html=1;curved=0;" edge="1" parent="1" source="vqLT8_SoXhe7MJbr6x8X-4" target="q_w2-BSLk2-w-cCYekXZ-9">
          <mxGeometry relative="1" as="geometry" />
        </mxCell>
        <mxCell id="vqLT8_SoXhe7MJbr6x8X-4" value="Inventory API&lt;div&gt;(AsyncAPI)&lt;/div&gt;&lt;div&gt;[Serverless]&lt;/div&gt;" style="rounded=0;whiteSpace=wrap;html=1;fillColor=#ffe6cc;strokeColor=#d79b00;" vertex="1" parent="1">
          <mxGeometry x="480" y="250" width="120" height="60" as="geometry" />
        </mxCell>
        <mxCell id="q_w2-BSLk2-w-cCYekXZ-11" style="edgeStyle=orthogonalEdgeStyle;rounded=0;orthogonalLoop=1;jettySize=auto;html=1;entryX=0;entryY=0.5;entryDx=0;entryDy=0;" edge="1" parent="1" source="3XD_pELlIpMvmLu-8iDF-6" target="vqLT8_SoXhe7MJbr6x8X-2">
          <mxGeometry relative="1" as="geometry" />
        </mxCell>
        <mxCell id="3XD_pELlIpMvmLu-8iDF-6" value="Authentication and authorization" style="rounded=0;whiteSpace=wrap;html=1;fillColor=#f5f5f5;fontColor=#333333;strokeColor=#666666;" vertex="1" parent="1">
          <mxGeometry x="310" y="100" width="130" height="40" as="geometry" />
        </mxCell>
        <mxCell id="q_w2-BSLk2-w-cCYekXZ-13" style="edgeStyle=orthogonalEdgeStyle;rounded=0;orthogonalLoop=1;jettySize=auto;html=1;entryX=0;entryY=0.5;entryDx=0;entryDy=0;" edge="1" parent="1" source="3XD_pELlIpMvmLu-8iDF-7" target="vqLT8_SoXhe7MJbr6x8X-3">
          <mxGeometry relative="1" as="geometry" />
        </mxCell>
        <mxCell id="3XD_pELlIpMvmLu-8iDF-7" value="Authentication and authorization" style="rounded=0;whiteSpace=wrap;html=1;fillColor=#f5f5f5;fontColor=#333333;strokeColor=#666666;" vertex="1" parent="1">
          <mxGeometry x="310" y="180" width="130" height="40" as="geometry" />
        </mxCell>
        <mxCell id="q_w2-BSLk2-w-cCYekXZ-15" style="edgeStyle=orthogonalEdgeStyle;rounded=0;orthogonalLoop=1;jettySize=auto;html=1;entryX=0;entryY=0.5;entryDx=0;entryDy=0;" edge="1" parent="1" source="3XD_pELlIpMvmLu-8iDF-8" target="vqLT8_SoXhe7MJbr6x8X-4">
          <mxGeometry relative="1" as="geometry" />
        </mxCell>
        <mxCell id="3XD_pELlIpMvmLu-8iDF-8" value="Authentication and authorization" style="rounded=0;whiteSpace=wrap;html=1;fillColor=#f5f5f5;fontColor=#333333;strokeColor=#666666;" vertex="1" parent="1">
          <mxGeometry x="310" y="260" width="130" height="40" as="geometry" />
        </mxCell>
        <mxCell id="q_w2-BSLk2-w-cCYekXZ-1" value="Catalog and&amp;nbsp;&lt;span style=&quot;background-color: initial;&quot;&gt;inventory&lt;/span&gt;&lt;div&gt;&lt;span style=&quot;background-color: initial;&quot;&gt;managent&lt;/span&gt;&lt;/div&gt;" style="sketch=0;outlineConnect=0;fontColor=#232F3E;gradientColor=none;fillColor=#232F3D;strokeColor=none;dashed=0;verticalLabelPosition=bottom;verticalAlign=top;align=center;html=1;fontSize=12;fontStyle=0;aspect=fixed;pointerEvents=1;shape=mxgraph.aws4.documents3;" vertex="1" parent="1">
          <mxGeometry x="430" y="11" width="27.04" height="37" as="geometry" />
        </mxCell>
        <mxCell id="q_w2-BSLk2-w-cCYekXZ-2" value="Catalog and inventory&lt;div&gt;management&lt;/div&gt;" style="sketch=0;outlineConnect=0;fontColor=#232F3E;gradientColor=none;fillColor=#232F3D;strokeColor=none;dashed=0;verticalLabelPosition=bottom;verticalAlign=top;align=center;html=1;fontSize=12;fontStyle=0;aspect=fixed;pointerEvents=1;shape=mxgraph.aws4.documents3;" vertex="1" parent="1">
          <mxGeometry x="500" y="350" width="27.04" height="37" as="geometry" />
        </mxCell>
        <mxCell id="q_w2-BSLk2-w-cCYekXZ-3" value="Catalog and&amp;nbsp;&lt;span style=&quot;background-color: initial;&quot;&gt;inventory&lt;/span&gt;&lt;div&gt;&lt;span style=&quot;background-color: initial;&quot;&gt;management&lt;/span&gt;&lt;/div&gt;" style="sketch=0;outlineConnect=0;fontColor=#232F3E;gradientColor=none;fillColor=#232F3D;strokeColor=none;dashed=0;verticalLabelPosition=bottom;verticalAlign=top;align=center;html=1;fontSize=12;fontStyle=0;aspect=fixed;pointerEvents=1;shape=mxgraph.aws4.documents3;" vertex="1" parent="1">
          <mxGeometry x="731.48" y="120" width="27.04" height="37" as="geometry" />
        </mxCell>
        <mxCell id="q_w2-BSLk2-w-cCYekXZ-6" value="Logs and monitoring&lt;div&gt;&lt;br&gt;&lt;/div&gt;" style="verticalLabelPosition=bottom;sketch=0;html=1;fillColor=#A153A0;strokeColor=#ffffff;verticalAlign=top;align=center;points=[[0,0.5,0],[0.125,0.25,0],[0.25,0,0],[0.5,0,0],[0.75,0,0],[0.875,0.25,0],[1,0.5,0],[0.875,0.75,0],[0.75,1,0],[0.5,1,0],[0.125,0.75,0]];pointerEvents=1;shape=mxgraph.cisco_safe.compositeIcon;bgIcon=mxgraph.cisco_safe.design.blank_device;resIcon=mxgraph.cisco_safe.design.monitoring_2;" vertex="1" parent="1">
          <mxGeometry x="681.48" y="40" width="50" height="45" as="geometry" />
        </mxCell>
        <mxCell id="q_w2-BSLk2-w-cCYekXZ-8" value="Logs and monitoring&lt;div&gt;&lt;br&gt;&lt;/div&gt;" style="verticalLabelPosition=bottom;sketch=0;html=1;fillColor=#A153A0;strokeColor=#ffffff;verticalAlign=top;align=center;points=[[0,0.5,0],[0.125,0.25,0],[0.25,0,0],[0.5,0,0],[0.75,0,0],[0.875,0.25,0],[1,0.5,0],[0.875,0.75,0],[0.75,1,0],[0.5,1,0],[0.125,0.75,0]];pointerEvents=1;shape=mxgraph.cisco_safe.compositeIcon;bgIcon=mxgraph.cisco_safe.design.blank_device;resIcon=mxgraph.cisco_safe.design.monitoring_2;" vertex="1" parent="1">
          <mxGeometry x="700" y="205" width="50" height="45" as="geometry" />
        </mxCell>
        <mxCell id="q_w2-BSLk2-w-cCYekXZ-9" value="Logs and monitoring&lt;div&gt;&lt;br&gt;&lt;/div&gt;" style="verticalLabelPosition=bottom;sketch=0;html=1;fillColor=#A153A0;strokeColor=#ffffff;verticalAlign=top;align=center;points=[[0,0.5,0],[0.125,0.25,0],[0.25,0,0],[0.5,0,0],[0.75,0,0],[0.875,0.25,0],[1,0.5,0],[0.875,0.75,0],[0.75,1,0],[0.5,1,0],[0.125,0.75,0]];pointerEvents=1;shape=mxgraph.cisco_safe.compositeIcon;bgIcon=mxgraph.cisco_safe.design.blank_device;resIcon=mxgraph.cisco_safe.design.monitoring_2;" vertex="1" parent="1">
          <mxGeometry x="640" y="290" width="50" height="45" as="geometry" />
        </mxCell>
      </root>
    </mxGraphModel>
  </diagram>
  <diagram id="YwL2K3GRSBnpnHFWyEjn" name="9.3">
    <mxGraphModel dx="862" dy="594" grid="1" gridSize="10" guides="1" tooltips="1" connect="1" arrows="1" fold="1" page="1" pageScale="1" pageWidth="850" pageHeight="1100" math="0" shadow="0">
      <root>
        <mxCell id="0" />
        <mxCell id="1" parent="0" />
        <mxCell id="GaGSYaaVI068y9jarkUD-6" style="edgeStyle=orthogonalEdgeStyle;rounded=1;orthogonalLoop=1;jettySize=auto;html=1;entryX=0;entryY=0.5;entryDx=0;entryDy=0;curved=0;" edge="1" parent="1" source="GaGSYaaVI068y9jarkUD-9" target="GaGSYaaVI068y9jarkUD-12">
          <mxGeometry relative="1" as="geometry">
            <Array as="points">
              <mxPoint x="550" y="225" />
              <mxPoint x="550" y="140" />
            </Array>
          </mxGeometry>
        </mxCell>
        <mxCell id="GaGSYaaVI068y9jarkUD-7" style="edgeStyle=orthogonalEdgeStyle;rounded=1;orthogonalLoop=1;jettySize=auto;html=1;entryX=0;entryY=0.5;entryDx=0;entryDy=0;curved=0;" edge="1" parent="1" source="GaGSYaaVI068y9jarkUD-9" target="GaGSYaaVI068y9jarkUD-13">
          <mxGeometry relative="1" as="geometry" />
        </mxCell>
        <mxCell id="GaGSYaaVI068y9jarkUD-8" style="edgeStyle=orthogonalEdgeStyle;rounded=1;orthogonalLoop=1;jettySize=auto;html=1;curved=0;" edge="1" parent="1" source="GaGSYaaVI068y9jarkUD-9" target="GaGSYaaVI068y9jarkUD-14">
          <mxGeometry relative="1" as="geometry">
            <Array as="points">
              <mxPoint x="550" y="225" />
              <mxPoint x="550" y="310" />
            </Array>
          </mxGeometry>
        </mxCell>
        <mxCell id="GaGSYaaVI068y9jarkUD-9" value="" style="rounded=0;whiteSpace=wrap;html=1;fillColor=#e1d5e7;strokeColor=#9673a6;" vertex="1" parent="1">
          <mxGeometry x="420" y="140" width="100" height="170" as="geometry" />
        </mxCell>
        <mxCell id="GaGSYaaVI068y9jarkUD-28" style="edgeStyle=orthogonalEdgeStyle;rounded=0;orthogonalLoop=1;jettySize=auto;html=1;entryX=0;entryY=0.5;entryDx=0;entryDy=0;" edge="1" parent="1" source="GaGSYaaVI068y9jarkUD-11" target="GaGSYaaVI068y9jarkUD-9">
          <mxGeometry relative="1" as="geometry" />
        </mxCell>
        <mxCell id="GaGSYaaVI068y9jarkUD-11" value="API client" style="sketch=0;aspect=fixed;pointerEvents=1;shadow=0;dashed=0;html=1;strokeColor=none;labelPosition=center;verticalLabelPosition=bottom;verticalAlign=top;align=center;fillColor=#00188D;shape=mxgraph.azure.laptop" vertex="1" parent="1">
          <mxGeometry x="290" y="210" width="50" height="30" as="geometry" />
        </mxCell>
        <mxCell id="GaGSYaaVI068y9jarkUD-12" value="Payments API&lt;div&gt;(REST API)&lt;/div&gt;" style="rounded=0;whiteSpace=wrap;html=1;fillColor=#d5e8d4;strokeColor=#82b366;" vertex="1" parent="1">
          <mxGeometry x="690" y="110" width="120" height="60" as="geometry" />
        </mxCell>
        <mxCell id="GaGSYaaVI068y9jarkUD-13" value="Orders API&lt;div&gt;(GrapQL API)&lt;/div&gt;" style="rounded=0;whiteSpace=wrap;html=1;fillColor=#dae8fc;strokeColor=#6c8ebf;" vertex="1" parent="1">
          <mxGeometry x="690" y="195" width="120" height="60" as="geometry" />
        </mxCell>
        <mxCell id="GaGSYaaVI068y9jarkUD-14" value="Inventory API&lt;div&gt;(AsyncAPI)&lt;/div&gt;" style="rounded=0;whiteSpace=wrap;html=1;fillColor=#ffe6cc;strokeColor=#d79b00;" vertex="1" parent="1">
          <mxGeometry x="690" y="280" width="120" height="60" as="geometry" />
        </mxCell>
        <mxCell id="GaGSYaaVI068y9jarkUD-18" value="" style="shape=image;verticalLabelPosition=bottom;verticalAlign=top;imageAspect=0;aspect=fixed;image=data:image/svg+xml,PHN2ZyB4bWxucz0iaHR0cDovL3d3dy53My5vcmcvMjAwMC9zdmciIHdpZHRoPSIyNTAwIiB2aWV3Qm94PSItNDguNTgzMTMxNzQgLTEzNi4yMjg1MzIgODc5LjQ5NTgyMDYyIDc3My45ODI0MTg4OCIgaGVpZ2h0PSIyNDUyIj48cGF0aCBmaWxsPSIjOTNkNTAwIiBkPSJtMTU4LjU3IDM0NC45M2gtMTU4LjI5Yy4wMy43OC4wNSAxLjU1LjA5IDIuMzIuMDYgMS40OS4xNyAyLjk3LjI2IDQuNDYuMDQuNjQuMDcgMS4yOC4xMiAxLjkxLjEyIDEuNzIuMjcgMy40NC40MyA1LjE1LjA0LjM5LjA3Ljc4LjExIDEuMTUuMTggMS45MS4zOSAzLjgyLjYxIDUuNzEuMDEuMTguMDMuMzcuMDYuNTUuMjUgMi4wNC41MSA0LjA5LjgxIDYuMTIgMCAuMDMgMCAuMDYuMDEuMDhhMjY2LjA1IDI2Ni4wNSAwIDAgMCA4LjE4IDM3LjRjLjAyLjA1LjA0LjEuMDUuMTUuNTcgMS45NCAxLjE3IDMuODYgMS43OCA1Ljc3LjA0LjExLjA4LjIzLjExLjM0cy4wNy4yMi4xMS4zNGMuNTYgMS43MyAxLjE1IDMuNDUgMS43NCA1LjE4LjE1LjQzLjMuODcuNDYgMS4zMS41MyAxLjQ5IDEuMDcgMi45OCAxLjYzIDQuNDguMjYuNjcuNTEgMS4zNC43NiAyLjAyLjQ5IDEuMjQuOTYgMi40NyAxLjQ1IDMuNy4zNy45My43NSAxLjg2IDEuMTQgMi43OC40Ljk3LjggMS45MiAxLjIxIDIuODkuNSAxLjE4IDEuMDMgMi4zNSAxLjU1IDMuNTMuMzEuNy42MyAxLjM5Ljk0IDIuMDkuNjQgMS40MSAxLjMgMi44MiAxLjk3IDQuMjIuMjIuNDUuNDMuOS42NSAxLjM0Ljc4IDEuNjIgMS41NyAzLjIxIDIuMzcgNC44LjE0LjI0LjI1LjQ5LjM4LjczLjkgMS43NiAxLjgyIDMuNTEgMi43NyA1LjI1LjA0LjA4LjA5LjE1LjEyLjI0LjIuMzYuNDIuNzEuNjIgMS4wN2wxMzUuMTktODEuNDMuNS0uM2MtNS4zMy0xMS4yNC04LjY1LTIzLjItOS44OS0zNS4zNXoiLz48cGF0aCBmaWxsPSIjNGQ1YTMxIiBkPSJtMTk3LjQ4IDQxNy42LS4zOC4zOC0xMTEuNSAxMTEuNDljLjU3LjUzIDEuMTQgMS4wOCAxLjczIDEuNTkgMS4wNC45NSAyLjEgMS44OCAzLjE1IDIuODEuNTUuNDggMS4wOC45NiAxLjYzIDEuNDQgMS4yNiAxLjA5IDIuNTQgMi4xNSAzLjgxIDMuMjIuMzUuMjkuNjguNTcgMS4wMy44NmEyNTUuNTc2IDI1NS41NzYgMCAwIDAgNC45MSAzLjk0YzEuNTggMS4yNSAzLjE3IDIuNDYgNC43OSAzLjY4LjA3LjA0LjEyLjA4LjE4LjEzYTI2Ni40OCAyNjYuNDggMCAwIDAgMjAuODYgMTQuMWMuMjQuMTYuNDkuMy43NC40NiAxLjM3LjgxIDIuNzMgMS42MiA0LjExIDIuNDJsMi41MiAxLjQ0Yy44LjQ2IDEuNTkuOSAyLjM5IDEuMzQgMS40NS43OSAyLjkgMS41OCA0LjM2IDIuMzUuMi4xMS40LjIyLjYxLjMyIDQuMDUgMi4xMiA4LjE3IDQuMDkgMTIuMzMgNS45OWwzLjk2LTkuNjEgNTYuMDgtMTM2LjE3LjItLjVjLTYuMTItMy4yOC0xMS45OS03LjE2LTE3LjUxLTExLjY4eiIvPjxwYXRoIGZpbGw9IiM2YmE0M2EiIGQ9Im0xODUuODcgNDA2LjQ5YTk1LjQ5MiA5NS40OTIgMCAwIDEgLTMuNDgtNC4xYy0xLTEuMjMtMS45Ni0yLjQ3LTIuODktMy43My0xLjA3LTEuNDQtMi4xMS0yLjktMy4xLTQuMzgtLjk5LTEuNDktMS45Ny0yLjk5LTIuODktNC41MWwtMTM1LjM2IDgxLjUzYzIuMDggMy40NiA0LjI0IDYuODIgNi40NiAxMC4xNC4wNy4xMi4xNC4yNC4yMi4zNS4wMi4wNS4wNS4wOC4wOC4xMy4wNy4xLjE0LjIyLjIxLjMzLjAxLjAxLjAyLjAyLjAyLjA0LjE4LjI2LjM2LjUyLjU0Ljc5LjAxLjAxLjAyLjAzLjA0LjA1cy4wMS4wMS4wMS4wMmMyLjM1IDMuNDcgNC43NyA2Ljg5IDcuMjYgMTAuMjMuMDUuMDcuMTEuMTQuMTYuMjEuMDYuMDcuMTEuMTQuMTYuMjEgMS4wOSAxLjQzIDIuMTcgMi44NiAzLjI5IDQuMjguMTUuMTkuMjkuMzcuNDUuNTUgMS4xNCAxLjQ3IDIuMzEgMi45MiAzLjUgNC4zNS4yOC4zNC41Ny42OC44NSAxLjAzIDEuMDcgMS4yOCAyLjE0IDIuNTUgMy4yMyAzLjgxLjQ3LjU0Ljk1IDEuMDkgMS40MyAxLjYyLjkzIDEuMDYgMS44NSAyLjEyIDIuOCAzLjE2LjUyLjU3IDEuMDYgMS4xNSAxLjU5IDEuNzIuMjQuMjcuNDguNTIuNzMuNzkuNjkuNzUgMS4zOCAxLjUgMi4wOCAyLjI0LjI4LjI5LjU4LjU4Ljg2Ljg4IDEuMjMgMS4yOCAyLjQ4IDIuNTcgMy43NCAzLjgzbDExMS42Ny0xMTEuNjVjLTEuMjgtMS4yOC0yLjQ4LTIuNi0zLjY2LTMuOTJ6Ii8+PHBhdGggZmlsbD0iIzRkNWEzMSIgZD0ibTMzMy44OCA0MTcuNTRjLTEuMjMuOTktMi40NyAxLjk2LTMuNzMgMi44OWwuMjcuNDcgODEuNDIgMTM1LjEzYzMuNzctMi40NiA3LjUtNSAxMS4xNC03LjY3IDcuODgtNS44MSAxNS41LTEyLjExIDIyLjg1LTE4Ljg5bC0xMTEuNTEtMTExLjQ5eiIvPjxwYXRoIGZpbGw9IiM5M2Q1MDAiIGQ9Im00MDAuMDEgNTU3LjE0LTIuNzYtNC41OS03Ni0xMjYuMTNjLTEuNTQuOTItMy4xMSAxLjc2LTQuNjggMi42LTEuNTkuODYtMy4xOCAxLjY1LTQuOCAyLjQyLTE0LjYgNi45Mi0zMC40IDEwLjQ2LTQ2LjIzIDEwLjQ2LTEwLjM3IDAtMjAuNzMtMS41LTMwLjc1LTQuNDktMS43MS0uNTEtMy4zOC0xLjE4LTUuMDYtMS43OC0xLjY5LS41OS0zLjQtMS4xMS01LjA2LTEuNzlsLTU2LjA0IDEzNi4wOC0yLjE5IDUuMzMtMS44OCA0LjU3LS4wMS4wMmMuMTQuMDYuMjkuMTEuNDMuMTcuMTYuMDYuMzEuMTEuNDYuMThoLjAyYy4wNC4wMi4wOC4wMy4xMS4wNCAxLjMyLjU1IDIuNjUgMS4wMSAzLjk4IDEuNTMgMS42Ny42NSAzLjMzIDEuMzEgNSAxLjkyLjg2LjMxIDEuNy42NyAyLjU1Ljk3aC4wMWEyNjcuNDIgMjY3LjQyIDAgMCAwIDU0LjE5IDEyLjk3Yy43My4wOSAxLjQ0LjE5IDIuMTcuMjkuNzUuMDkgMS41MS4xNiAyLjI3LjI1IDEuNDIuMTYgMi44NC4zMiA0LjI3LjQ2bDEuMDYuMDljMS43NS4xNyAzLjUuMzIgNS4yNC40NC42LjA1IDEuMi4wNyAxLjc5LjEyIDEuNTMuMSAzLjA2LjE5IDQuNTkuMjYuOTQuMDYgMS44OC4wOCAyLjgyLjEyIDEuMjIuMDQgMi40My4wOSAzLjY1LjEzIDEuNzUuMDQgMy41Mi4wNSA1LjI4LjA2LjQyIDAgLjgzLjAxIDEuMjUuMDIgMTQuNzUgMCAyOS41LTEuMjMgNDQuMDktMy42OC4yNC0uMDQuNDktLjA4Ljc0LS4xMSAxLjU0LS4yNyAzLjA4LS41NiA0LjYyLS44NC44OC0uMTcgMS43Ny0uMzQgMi42My0uNTEuOS0uMTkgMS44MS0uMzcgMi43MS0uNTcgMS41LS4zMSAzLS42NCA0LjUxLS45OS4yNy0uMDYuNTQtLjExLjgxLS4xOSAyMi4xOC01LjE2IDQzLjYtMTMuMTYgNjMuNzItMjMuNzV2LS4wMWMxLjMyLS42OSAyLjYxLTEuNDggMy45Mi0yLjIgMS41Ni0uODUgMy4xMS0xLjc0IDQuNjctMi42MyAxLjA3LS42MSAyLjE2LTEuMTggMy4yMy0xLjgyLjAxLS4wMS4wMi0uMDIuMDMtLjAyaC4wMWMuMDItLjAxLjAzLS4wMi4wNS0uMDNsLjAyLS4wMi0uMi0uMzMuMi4zM2MuMDEgMCAuMDItLjAxLjAzLS4wMS4wMi0uMDEuMDMtLjAyLjA1LS4wMy4wNi0uMDQuMTItLjA3LjE4LS4xMS4zNC0uMjEuNjktLjQxIDEuMDQtLjYyem0tMjAyLjQ3LTMwNi4yMmMxLjIzLTEgMi40OC0xLjk2IDMuNzMtMi45bC0uMjctLjQ2LTgxLjQyLTEzNS4xNGMtMy43OCAyLjQ3LTcuNTEgNS4wMi0xMS4xNiA3LjY5LTcuODcgNS44LTE1LjUgMTIuMDktMjIuODMgMTguODZsMTExLjUxIDExMS41eiIvPjxwYXRoIGZpbGw9IiM0ZDVhMzEiIGQ9Im03Ny44NiAxNDYuNGMtMS4yNyAxLjI3LTIuNDcgMi41OC0zLjcxIDMuODYtMS4yMyAxLjI5LTIuNDkgMi41Ny0zLjcgMy44N2EyNjYuMTU2IDI2Ni4xNTYgMCAwIDAgLTIyLjU2IDI3Ljk2Yy0uMzMuNDUtLjY1LjkzLS45OCAxLjM5LS43NiAxLjEyLTEuNTIgMi4yMy0yLjI2IDMuMzUtLjc4IDEuMTYtMS41NSAyLjM0LTIuMyAzLjUxLS4yOC40My0uNTYuODctLjgzIDEuMy0yNS42NSA0MC4yMy0zOS4zOSA4NS44Ni00MS4yNCAxMzEuODctLjA3IDEuNzktLjExIDMuNTgtLjE1IDUuMzYtLjAzIDEuNzgtLjA5IDMuNTctLjA5IDUuMzVoMTU3LjkzYzAtMS43OC4xNi0zLjU2LjI2LTUuMzUuMDktMS43OS4xMS0zLjU4LjI5LTUuMzYgMi4wNC0yMC41NiA5Ljk4LTQwLjY0IDIzLjgyLTU3LjUgMS4xMi0xLjM3IDIuMzktMi42NiAzLjYtMy45OCAxLjE5LTEuMzMgMi4zMS0yLjcgMy41OS0zLjk4em0zMjUuODUtMzkuMmMtLjIxLS4xMy0uNDQtLjI2LS42NS0uMzktMS4zOS0uODUtMi43OS0xLjY3LTQuMi0yLjQ5LS44MS0uNDctMS42My0uOTMtMi40NC0xLjM5LS44My0uNDYtMS42NC0uOTItMi40Ny0xLjM3YTkwMS40IDkwMS40IDAgMCAwIC00LjI5LTIuMzJjLS4yMy0uMTEtLjQ1LS4yMy0uNjgtLjM1LTkuMjYtNC44NC0xOC43Ny05LjEtMjguNDgtMTIuOC0uMjUtLjEtLjUtLjItLjc1LS4yOS0yLjEyLS43OS00LjI0LTEuNTgtNi4zOC0yLjMyYTI2Ny4wODQgMjY3LjA4NCAwIDAgMCAtNTMuMjEtMTIuNjNsLTIuMjItLjNjLS43NS0uMDktMS40OS0uMTYtMi4yMy0uMjQtMS40My0uMTctMi44NS0uMzMtNC4yOS0uNDctLjM5LS4wNC0uNzktLjA2LTEuMi0uMTEtMS42OS0uMTUtMy40LS4zLTUuMS0uNDNsLTEuOTktLjEyYy0xLjQ1LS4wOS0yLjkzLS4yLTQuMzgtLjI2LS43OC0uMDQtMS41Ni0uMDctMi4zMy0uMDl2MTU4LjI5YzguMTIuODQgMTYuMTcgMi41NyAyMy45OCA1LjIybDExNi41MS0xMTYuNDljLTQuMzMtMy04LjctNS45Mi0xMy4yLTguNjV6Ii8+PHBhdGggZmlsbD0iIzZiYTQzYSIgZD0ibTI2MC4zNiA2OC43Yy0xLjc5LjA0LTMuNTguMDQtNS4zNi4xMS0xMS4xNy40NS0yMi4zMiAxLjU5LTMzLjM4IDMuNDUtLjI0LjA0LS40OC4wOC0uNzMuMTItMS41NS4yNy0zLjA5LjU1LTQuNjMuODQtLjg3LjE3LTEuNzUuMzMtMi42My41LS45MS4xOC0xLjgxLjM3LTIuNzIuNTctMS41LjMxLTMgLjY0LTQuNDkuOTktLjI4LjA1LS41NS4xMi0uODIuMThhMjY3LjQ2NSAyNjcuNDY1IDAgMCAwIC02My43MyAyMy43NmMtMS4zMS43LTIuNTkgMS40OS0zLjkgMi4yLTEuNTYuODYtMy4xMiAxLjc0LTQuNjcgMi42My0xLjE1LjY3LTIuMzIgMS4yOC0zLjQ3IDEuOTYtLjAxLjAxLS4wMy4wMi0uMDQuMDItLjA4LjA1LS4xNi4xLS4yNC4xNC0uMy4xOS0uNjEuMzQtLjkxLjUybC4wMS4wMiAyLjc3IDQuNTkgNzguNzUgMTMwLjczYzEuNTQtLjkyIDMuMTEtMS43NyA0LjY4LTIuNjEgMS41OC0uODUgMy4xOC0xLjY1IDQuNzktMi40MWExMDcuMjUgMTA3LjI1IDAgMCAxIDM1LjM2LTkuOTFjMS43OC0uMTggMy41Ni0uMzMgNS4zNS0uNDIgMS43OC0uMDkgMy41Ny0uMTggNS4zNi0uMTh2LTE1Ny45MWMtMS43OSAwLTMuNTcuMDgtNS4zNS4xMXoiLz48cGF0aCBmaWxsPSIjNGQ1YTMxIiBkPSJtNTMxLjA1IDMyMS4xN2MtLjA4LTEuNDItLjE2LTIuODMtLjI2LTQuMjZhNzUuNCA3NS40IDAgMCAwIC0uMTQtMi4xMmMtLjExLTEuNjctLjI1LTMuMzQtLjQxLTUuMDEtLjAzLS40My0uMDctLjg2LS4xMS0xLjI5LS4xOC0xLjg3LS4zOC0zLjczLS42LTUuNTktLjAyLS4xNS0uMDMtLjMtLjA1LS40NWwtLjAzLS4yMWMtLjI0LTIuMDEtLjUxLTQuMDItLjc5LTYuMDJsLS4wMy0uMTlhMjY2LjQ1NCAyNjYuNDU0IDAgMCAwIC04LjE2LTM3LjMzYy0uMDMtLjA5LS4wNS0uMTYtLjA4LS4yNC0uNTctMS45MS0xLjE2LTMuOC0xLjc1LTUuNjktLjA5LS4yNS0uMTctLjUtLjI1LS43NS0uNTYtMS43MS0xLjEzLTMuNDEtMS43Mi01LjExbC0uNDgtMS4zOGMtLjUyLTEuNDctMS4wNi0yLjk0LTEuNi00LjQxLS4yNy0uNy0uNTMtMS40LS44MS0yLjA5LS40Ni0xLjIyLS45My0yLjQzLTEuNDItMy42My0uMzgtLjk3LS43Ny0xLjkyLTEuMTYtMi44Ni0uMzktLjk1LS43OS0xLjg4LTEuMTgtMi44Mi0uNTItMS4yLTEuMDUtMi40LTEuNTgtMy41OS0uMy0uNjctLjYtMS4zNS0uOTEtMi4wMy0uNjUtMS40Mi0xLjMyLTIuODUtMS45OS00LjI3LS4yMS0uNDItLjQyLS44Ni0uNjMtMS4yOS0uNzgtMS42Mi0xLjU4LTMuMjUtMi40LTQuODUtLjExLS4yMi0uMjMtLjQ1LS4zNC0uNjctLjkxLTEuNzctMS44NS0zLjU1LTIuNzktNS4zLS4wNC0uMDYtLjA3LS4xMy0uMTEtLjE5YTI2Ni45OSAyNjYuOTkgMCAwIDAgLTE1LjExLTI0LjUybC0xMTYuNTQgMTE2LjU0YzIuNjUgNy44MSA0LjM3IDE1Ljg2IDUuMjEgMjMuOTdoMTU4LjMyYy0uMDQtLjc5LS4wNi0xLjU4LS4xLTIuMzV6Ii8+PHBhdGggZmlsbD0iIzZiYTQzYSIgZD0ibTM3My40NSAzMzQuMjJjMCAxLjc5LS4xNyAzLjU3LS4yNiA1LjM2cy0uMTIgMy41OC0uMyA1LjM1Yy0yLjA0IDIwLjU3LTkuOTcgNDAuNjUtMjMuODEgNTcuNTItMS4xMiAxLjM3LTIuMzkgMi42NS0zLjYgMy45OC0xLjIgMS4zMi0yLjMxIDIuNjktMy41OSAzLjk3bDExMS42NyAxMTEuNjVjMS4yNy0xLjI3IDIuNDYtMi41OCAzLjctMy44N3MyLjUtMi41NiAzLjctMy44N2M4LjI2LTguOTUgMTUuODItMTguMzEgMjIuNjItMjguMDQuMjgtLjM5LjUzLS43Ny44LTEuMTUuODMtMS4xOSAxLjYzLTIuNCAyLjQ1LTMuNi43MS0xLjA4IDEuNDItMi4xNSAyLjExLTMuMjQuMzUtLjUyLjY5LTEuMDYgMS4wMi0xLjU4IDI1LjYxLTQwLjIxIDM5LjMyLTg1Ljc5IDQxLjE2LTEzMS43Ny4wNy0xLjc4LjExLTMuNTcuMTQtNS4zNi4wNC0xLjc4LjA5LTMuNTYuMDktNS4zNXoiLz48cGF0aCBmaWxsPSIjNDI0MTQzIiBkPSJtNTc4LjI3IDIxLjY5Yy0yOC44OS0yOC44OS03NS43My0yOC44OS0xMDQuNjIgMC0yMy4wNSAyMy4wNC0yNy42NiA1Ny40OS0xMy45MyA4NS4xNWwtMTYxLjE2IDE2MS4xNWMtMjcuNjYtMTMuNzItNjIuMTItOS4xMi04NS4xNyAxMy45Mi0yOC44OSAyOC44OS0yOC44OCA3NS43MyAwIDEwNC42MiAyOC45IDI4Ljg5IDc1Ljc1IDI4Ljg4IDEwNC42NCAwIDIzLjA1LTIzLjA1IDI3LjY1LTU3LjUgMTMuOTItODUuMTZsMTYxLjE2LTE2MS4xNGMyNy42NyAxMy43MiA2Mi4xMSA5LjEyIDg1LjE2LTEzLjkzIDI4Ljg5LTI4Ljg4IDI4Ljg5LTc1LjcyIDAtMTA0LjYxeiIvPjwvc3ZnPg==;" vertex="1" parent="1">
          <mxGeometry x="447.06" y="220" width="45.88" height="45" as="geometry" />
        </mxCell>
        <mxCell id="GaGSYaaVI068y9jarkUD-26" value="API gateway" style="text;html=1;align=center;verticalAlign=middle;whiteSpace=wrap;rounded=0;strokeColor=default;dashed=1;" vertex="1" parent="1">
          <mxGeometry x="420" y="140" width="100" height="30" as="geometry" />
        </mxCell>
        <mxCell id="GaGSYaaVI068y9jarkUD-27" value="Unified REST interface" style="text;html=1;align=center;verticalAlign=middle;whiteSpace=wrap;rounded=0;strokeColor=none;dashed=1;" vertex="1" parent="1">
          <mxGeometry x="420" y="190" width="100" height="30" as="geometry" />
        </mxCell>
        <mxCell id="GaGSYaaVI068y9jarkUD-29" value="API style and protocol translation" style="text;html=1;align=center;verticalAlign=middle;whiteSpace=wrap;rounded=0;" vertex="1" parent="1">
          <mxGeometry x="570" y="180" width="100" height="30" as="geometry" />
        </mxCell>
        <mxCell id="GaGSYaaVI068y9jarkUD-30" value="API style and protocol translation" style="text;html=1;align=center;verticalAlign=middle;whiteSpace=wrap;rounded=0;" vertex="1" parent="1">
          <mxGeometry x="570" y="269" width="100" height="30" as="geometry" />
        </mxCell>
      </root>
    </mxGraphModel>
  </diagram>
  <diagram id="9RBA3wNulJB5MTiat3_a" name="9.4">
    <mxGraphModel dx="948" dy="653" grid="1" gridSize="10" guides="1" tooltips="1" connect="1" arrows="1" fold="1" page="1" pageScale="1" pageWidth="850" pageHeight="1100" math="0" shadow="0">
      <root>
        <mxCell id="0" />
        <mxCell id="1" parent="0" />
        <mxCell id="vXtOzeGjNottfkzMu6cM-10" style="edgeStyle=orthogonalEdgeStyle;rounded=0;orthogonalLoop=1;jettySize=auto;html=1;entryX=0;entryY=0.5;entryDx=0;entryDy=0;" edge="1" parent="1" source="8Oehg1lsUmrzpT5i4DpW-1" target="8Oehg1lsUmrzpT5i4DpW-3">
          <mxGeometry relative="1" as="geometry" />
        </mxCell>
        <mxCell id="8Oehg1lsUmrzpT5i4DpW-1" value="" style="sketch=0;aspect=fixed;pointerEvents=1;shadow=0;dashed=0;html=1;strokeColor=none;labelPosition=center;verticalLabelPosition=bottom;verticalAlign=top;align=center;fillColor=#00188D;shape=mxgraph.azure.laptop" vertex="1" parent="1">
          <mxGeometry x="210" y="200" width="50" height="30" as="geometry" />
        </mxCell>
        <mxCell id="vXtOzeGjNottfkzMu6cM-11" style="edgeStyle=orthogonalEdgeStyle;rounded=0;orthogonalLoop=1;jettySize=auto;html=1;" edge="1" parent="1" source="8Oehg1lsUmrzpT5i4DpW-2" target="8Oehg1lsUmrzpT5i4DpW-4">
          <mxGeometry relative="1" as="geometry" />
        </mxCell>
        <mxCell id="8Oehg1lsUmrzpT5i4DpW-2" value="" style="html=1;verticalLabelPosition=bottom;align=center;labelBackgroundColor=#ffffff;verticalAlign=top;strokeWidth=2;strokeColor=#0080F0;shadow=0;dashed=0;shape=mxgraph.ios7.icons.smartphone;" vertex="1" parent="1">
          <mxGeometry x="226" y="370" width="18" height="30" as="geometry" />
        </mxCell>
        <mxCell id="vXtOzeGjNottfkzMu6cM-4" style="edgeStyle=orthogonalEdgeStyle;rounded=1;orthogonalLoop=1;jettySize=auto;html=1;entryX=0;entryY=0.5;entryDx=0;entryDy=0;curved=0;" edge="1" parent="1" source="8Oehg1lsUmrzpT5i4DpW-3" target="vXtOzeGjNottfkzMu6cM-1">
          <mxGeometry relative="1" as="geometry" />
        </mxCell>
        <mxCell id="vXtOzeGjNottfkzMu6cM-5" style="edgeStyle=orthogonalEdgeStyle;rounded=1;orthogonalLoop=1;jettySize=auto;html=1;entryX=0;entryY=0.5;entryDx=0;entryDy=0;curved=0;" edge="1" parent="1" source="8Oehg1lsUmrzpT5i4DpW-3" target="vXtOzeGjNottfkzMu6cM-2">
          <mxGeometry relative="1" as="geometry">
            <Array as="points">
              <mxPoint x="530" y="215" />
              <mxPoint x="530" y="300" />
            </Array>
          </mxGeometry>
        </mxCell>
        <mxCell id="vXtOzeGjNottfkzMu6cM-6" style="edgeStyle=orthogonalEdgeStyle;rounded=1;orthogonalLoop=1;jettySize=auto;html=1;entryX=0;entryY=0.5;entryDx=0;entryDy=0;curved=0;" edge="1" parent="1" source="8Oehg1lsUmrzpT5i4DpW-3" target="vXtOzeGjNottfkzMu6cM-3">
          <mxGeometry relative="1" as="geometry">
            <Array as="points">
              <mxPoint x="500" y="215" />
              <mxPoint x="500" y="385" />
            </Array>
          </mxGeometry>
        </mxCell>
        <mxCell id="8Oehg1lsUmrzpT5i4DpW-3" value="API gateway&lt;div&gt;desktop backend&lt;/div&gt;" style="rounded=0;whiteSpace=wrap;html=1;fillColor=#e1d5e7;strokeColor=#9673a6;" vertex="1" parent="1">
          <mxGeometry x="340" y="185" width="120" height="60" as="geometry" />
        </mxCell>
        <mxCell id="vXtOzeGjNottfkzMu6cM-7" style="edgeStyle=orthogonalEdgeStyle;rounded=1;orthogonalLoop=1;jettySize=auto;html=1;curved=0;" edge="1" parent="1" source="8Oehg1lsUmrzpT5i4DpW-4" target="vXtOzeGjNottfkzMu6cM-3">
          <mxGeometry relative="1" as="geometry" />
        </mxCell>
        <mxCell id="vXtOzeGjNottfkzMu6cM-8" style="edgeStyle=orthogonalEdgeStyle;rounded=1;orthogonalLoop=1;jettySize=auto;html=1;entryX=0;entryY=0.5;entryDx=0;entryDy=0;curved=0;" edge="1" parent="1" source="8Oehg1lsUmrzpT5i4DpW-4" target="vXtOzeGjNottfkzMu6cM-2">
          <mxGeometry relative="1" as="geometry" />
        </mxCell>
        <mxCell id="vXtOzeGjNottfkzMu6cM-9" style="edgeStyle=orthogonalEdgeStyle;rounded=1;orthogonalLoop=1;jettySize=auto;html=1;entryX=0;entryY=0.5;entryDx=0;entryDy=0;curved=0;" edge="1" parent="1" source="8Oehg1lsUmrzpT5i4DpW-4" target="vXtOzeGjNottfkzMu6cM-1">
          <mxGeometry relative="1" as="geometry">
            <Array as="points">
              <mxPoint x="480" y="385" />
              <mxPoint x="480" y="215" />
            </Array>
          </mxGeometry>
        </mxCell>
        <mxCell id="8Oehg1lsUmrzpT5i4DpW-4" value="API gateway&lt;div&gt;mobile backend&lt;/div&gt;" style="rounded=0;whiteSpace=wrap;html=1;fillColor=#e1d5e7;strokeColor=#9673a6;" vertex="1" parent="1">
          <mxGeometry x="340" y="355" width="120" height="60" as="geometry" />
        </mxCell>
        <mxCell id="vXtOzeGjNottfkzMu6cM-1" value="Payments API&lt;div&gt;(REST API)&lt;/div&gt;" style="rounded=0;whiteSpace=wrap;html=1;fillColor=#d5e8d4;strokeColor=#82b366;" vertex="1" parent="1">
          <mxGeometry x="560" y="185" width="120" height="60" as="geometry" />
        </mxCell>
        <mxCell id="vXtOzeGjNottfkzMu6cM-2" value="Orders API&lt;div&gt;(GrapQL API)&lt;/div&gt;" style="rounded=0;whiteSpace=wrap;html=1;fillColor=#dae8fc;strokeColor=#6c8ebf;" vertex="1" parent="1">
          <mxGeometry x="560" y="270" width="120" height="60" as="geometry" />
        </mxCell>
        <mxCell id="vXtOzeGjNottfkzMu6cM-3" value="Inventory API&lt;div&gt;(AsyncAPI)&lt;/div&gt;" style="rounded=0;whiteSpace=wrap;html=1;fillColor=#ffe6cc;strokeColor=#d79b00;" vertex="1" parent="1">
          <mxGeometry x="560" y="355" width="120" height="60" as="geometry" />
        </mxCell>
      </root>
    </mxGraphModel>
  </diagram>
  <diagram id="9MyX2NxqMZ16taih9eMn" name="9.5">
    <mxGraphModel dx="903" dy="622" grid="1" gridSize="10" guides="1" tooltips="1" connect="1" arrows="1" fold="1" page="1" pageScale="1" pageWidth="850" pageHeight="1100" math="0" shadow="0">
      <root>
        <mxCell id="0" />
        <mxCell id="1" parent="0" />
        <mxCell id="MkcWhqLUIjfpnj2JKR2G-12" value="" style="rounded=0;whiteSpace=wrap;html=1;dashed=1;fillColor=#f5f5f5;fontColor=#333333;strokeColor=#666666;" vertex="1" parent="1">
          <mxGeometry x="470" y="105" width="200" height="310" as="geometry" />
        </mxCell>
        <mxCell id="MkcWhqLUIjfpnj2JKR2G-5" style="edgeStyle=orthogonalEdgeStyle;rounded=0;orthogonalLoop=1;jettySize=auto;html=1;entryX=0;entryY=0.5;entryDx=0;entryDy=0;" edge="1" parent="1" source="MkcWhqLUIjfpnj2JKR2G-1" target="MkcWhqLUIjfpnj2JKR2G-2">
          <mxGeometry relative="1" as="geometry" />
        </mxCell>
        <mxCell id="MkcWhqLUIjfpnj2JKR2G-6" style="edgeStyle=orthogonalEdgeStyle;rounded=0;orthogonalLoop=1;jettySize=auto;html=1;entryX=0;entryY=0.5;entryDx=0;entryDy=0;" edge="1" parent="1" source="MkcWhqLUIjfpnj2JKR2G-1" target="MkcWhqLUIjfpnj2JKR2G-3">
          <mxGeometry relative="1" as="geometry" />
        </mxCell>
        <mxCell id="MkcWhqLUIjfpnj2JKR2G-1" value="API gateway" style="rounded=0;whiteSpace=wrap;html=1;fillColor=#e1d5e7;strokeColor=#9673a6;" vertex="1" parent="1">
          <mxGeometry x="330" y="230" width="120" height="60" as="geometry" />
        </mxCell>
        <mxCell id="MkcWhqLUIjfpnj2JKR2G-2" value="Payments API&lt;div&gt;v3&lt;/div&gt;" style="rounded=0;whiteSpace=wrap;html=1;fillColor=#d5e8d4;strokeColor=#82b366;" vertex="1" parent="1">
          <mxGeometry x="520" y="140" width="120" height="60" as="geometry" />
        </mxCell>
        <mxCell id="MkcWhqLUIjfpnj2JKR2G-3" value="Payments API&lt;div&gt;v2&lt;/div&gt;" style="rounded=0;whiteSpace=wrap;html=1;fillColor=#d5e8d4;strokeColor=#82b366;" vertex="1" parent="1">
          <mxGeometry x="520" y="230" width="120" height="60" as="geometry" />
        </mxCell>
        <mxCell id="MkcWhqLUIjfpnj2JKR2G-4" value="Payments API&lt;div&gt;v1&lt;/div&gt;&lt;div&gt;[deprecated]&lt;/div&gt;" style="rounded=0;whiteSpace=wrap;html=1;fillColor=#d5e8d4;strokeColor=#82b366;" vertex="1" parent="1">
          <mxGeometry x="520" y="320" width="120" height="60" as="geometry" />
        </mxCell>
        <mxCell id="MkcWhqLUIjfpnj2JKR2G-8" style="edgeStyle=orthogonalEdgeStyle;rounded=0;orthogonalLoop=1;jettySize=auto;html=1;" edge="1" parent="1" source="MkcWhqLUIjfpnj2JKR2G-7" target="MkcWhqLUIjfpnj2JKR2G-1">
          <mxGeometry relative="1" as="geometry" />
        </mxCell>
        <mxCell id="MkcWhqLUIjfpnj2JKR2G-9" style="edgeStyle=orthogonalEdgeStyle;rounded=0;orthogonalLoop=1;jettySize=auto;html=1;entryX=0;entryY=0.5;entryDx=0;entryDy=0;" edge="1" parent="1" source="MkcWhqLUIjfpnj2JKR2G-11" target="MkcWhqLUIjfpnj2JKR2G-4">
          <mxGeometry relative="1" as="geometry">
            <Array as="points" />
          </mxGeometry>
        </mxCell>
        <mxCell id="MkcWhqLUIjfpnj2JKR2G-7" value="" style="sketch=0;aspect=fixed;pointerEvents=1;shadow=0;dashed=0;html=1;strokeColor=none;labelPosition=center;verticalLabelPosition=bottom;verticalAlign=top;align=center;fillColor=#00188D;shape=mxgraph.azure.laptop" vertex="1" parent="1">
          <mxGeometry x="90" y="245" width="50" height="30" as="geometry" />
        </mxCell>
        <mxCell id="MkcWhqLUIjfpnj2JKR2G-10" value="" style="edgeStyle=orthogonalEdgeStyle;rounded=0;orthogonalLoop=1;jettySize=auto;html=1;entryX=0;entryY=0.5;entryDx=0;entryDy=0;" edge="1" parent="1" source="MkcWhqLUIjfpnj2JKR2G-7" target="MkcWhqLUIjfpnj2JKR2G-11">
          <mxGeometry relative="1" as="geometry">
            <mxPoint x="195" y="275" as="sourcePoint" />
            <mxPoint x="520" y="350" as="targetPoint" />
            <Array as="points">
              <mxPoint x="115" y="350" />
            </Array>
          </mxGeometry>
        </mxCell>
        <mxCell id="MkcWhqLUIjfpnj2JKR2G-11" value="" style="shape=image;html=1;verticalAlign=top;verticalLabelPosition=bottom;labelBackgroundColor=#ffffff;imageAspect=0;aspect=fixed;image=https://cdn2.iconfinder.com/data/icons/crystalproject/16x16/actions/gg_ignored.png" vertex="1" parent="1">
          <mxGeometry x="342" y="342" width="16" height="16" as="geometry" />
        </mxCell>
        <mxCell id="MkcWhqLUIjfpnj2JKR2G-13" value="payments/v3" style="text;html=1;align=center;verticalAlign=middle;whiteSpace=wrap;rounded=0;dashed=1;strokeColor=#d6b656;fillColor=#fff2cc;" vertex="1" parent="1">
          <mxGeometry x="180" y="170" width="110" height="30" as="geometry" />
        </mxCell>
        <mxCell id="MkcWhqLUIjfpnj2JKR2G-14" value="payments/v2" style="text;html=1;align=center;verticalAlign=middle;whiteSpace=wrap;rounded=0;dashed=1;strokeColor=#d6b656;fillColor=#fff2cc;" vertex="1" parent="1">
          <mxGeometry x="180" y="200" width="110" height="30" as="geometry" />
        </mxCell>
        <mxCell id="MkcWhqLUIjfpnj2JKR2G-15" value="payments/v1" style="text;html=1;align=center;verticalAlign=middle;whiteSpace=wrap;rounded=0;dashed=1;strokeColor=#d6b656;fillColor=#fff2cc;" vertex="1" parent="1">
          <mxGeometry x="180" y="230" width="110" height="30" as="geometry" />
        </mxCell>
        <mxCell id="MkcWhqLUIjfpnj2JKR2G-16" value="" style="shape=image;html=1;verticalAlign=top;verticalLabelPosition=bottom;labelBackgroundColor=#ffffff;imageAspect=0;aspect=fixed;image=https://cdn2.iconfinder.com/data/icons/crystalproject/16x16/actions/gg_ignored.png" vertex="1" parent="1">
          <mxGeometry x="282" y="237" width="16" height="16" as="geometry" />
        </mxCell>
        <mxCell id="MkcWhqLUIjfpnj2JKR2G-18" value="" style="shape=image;html=1;verticalAlign=top;verticalLabelPosition=bottom;labelBackgroundColor=#ffffff;imageAspect=0;aspect=fixed;image=https://cdn4.iconfinder.com/data/icons/web-ui-color/128/Checkmark-128.png" vertex="1" parent="1">
          <mxGeometry x="280" y="205" width="20" height="20" as="geometry" />
        </mxCell>
        <mxCell id="MkcWhqLUIjfpnj2JKR2G-19" value="" style="shape=image;html=1;verticalAlign=top;verticalLabelPosition=bottom;labelBackgroundColor=#ffffff;imageAspect=0;aspect=fixed;image=https://cdn4.iconfinder.com/data/icons/web-ui-color/128/Checkmark-128.png" vertex="1" parent="1">
          <mxGeometry x="280" y="175" width="20" height="20" as="geometry" />
        </mxCell>
      </root>
    </mxGraphModel>
  </diagram>
  <diagram id="XVKZCTXhHFHLV52BUvRR" name="9.6">
    <mxGraphModel dx="862" dy="594" grid="1" gridSize="10" guides="1" tooltips="1" connect="1" arrows="1" fold="1" page="1" pageScale="1" pageWidth="850" pageHeight="1100" math="0" shadow="0">
      <root>
        <mxCell id="0" />
        <mxCell id="1" parent="0" />
        <mxCell id="NOwHt_4296MOz6wP8ff5-13" value="" style="rounded=0;whiteSpace=wrap;html=1;fillColor=#f5f5f5;fontColor=#333333;strokeColor=#666666;" vertex="1" parent="1">
          <mxGeometry x="670" y="285" width="150" height="140" as="geometry" />
        </mxCell>
        <mxCell id="NOwHt_4296MOz6wP8ff5-8" style="edgeStyle=orthogonalEdgeStyle;rounded=0;orthogonalLoop=1;jettySize=auto;html=1;entryX=0;entryY=0.5;entryDx=0;entryDy=0;" edge="1" parent="1" source="EKtKAbXPReljt6ruIOC1-1" target="EKtKAbXPReljt6ruIOC1-3">
          <mxGeometry relative="1" as="geometry" />
        </mxCell>
        <mxCell id="EKtKAbXPReljt6ruIOC1-1" value="API gateway" style="rounded=0;whiteSpace=wrap;html=1;fillColor=#e1d5e7;strokeColor=#9673a6;" vertex="1" parent="1">
          <mxGeometry x="410" y="200" width="120" height="60" as="geometry" />
        </mxCell>
        <mxCell id="NOwHt_4296MOz6wP8ff5-2" style="edgeStyle=orthogonalEdgeStyle;rounded=1;orthogonalLoop=1;jettySize=auto;html=1;entryX=0;entryY=0.5;entryDx=0;entryDy=0;curved=0;" edge="1" parent="1" source="EKtKAbXPReljt6ruIOC1-2" target="EKtKAbXPReljt6ruIOC1-4">
          <mxGeometry relative="1" as="geometry" />
        </mxCell>
        <mxCell id="NOwHt_4296MOz6wP8ff5-3" style="edgeStyle=orthogonalEdgeStyle;rounded=1;orthogonalLoop=1;jettySize=auto;html=1;entryX=0;entryY=0.5;entryDx=0;entryDy=0;curved=0;" edge="1" parent="1" source="EKtKAbXPReljt6ruIOC1-2" target="EKtKAbXPReljt6ruIOC1-5">
          <mxGeometry relative="1" as="geometry" />
        </mxCell>
        <mxCell id="NOwHt_4296MOz6wP8ff5-4" style="edgeStyle=orthogonalEdgeStyle;rounded=1;orthogonalLoop=1;jettySize=auto;html=1;entryX=0;entryY=0.5;entryDx=0;entryDy=0;curved=0;" edge="1" parent="1" source="EKtKAbXPReljt6ruIOC1-2" target="EKtKAbXPReljt6ruIOC1-6">
          <mxGeometry relative="1" as="geometry" />
        </mxCell>
        <mxCell id="EKtKAbXPReljt6ruIOC1-2" value="" style="sketch=0;aspect=fixed;pointerEvents=1;shadow=0;dashed=0;html=1;strokeColor=none;labelPosition=center;verticalLabelPosition=bottom;verticalAlign=top;align=center;fillColor=#00188D;shape=mxgraph.azure.laptop" vertex="1" parent="1">
          <mxGeometry x="70" y="215" width="50" height="30" as="geometry" />
        </mxCell>
        <mxCell id="EKtKAbXPReljt6ruIOC1-3" value="Payments API" style="rounded=0;whiteSpace=wrap;html=1;fillColor=#d5e8d4;strokeColor=#82b366;" vertex="1" parent="1">
          <mxGeometry x="600" y="200" width="120" height="60" as="geometry" />
        </mxCell>
        <mxCell id="NOwHt_4296MOz6wP8ff5-5" style="edgeStyle=orthogonalEdgeStyle;rounded=1;orthogonalLoop=1;jettySize=auto;html=1;curved=0;" edge="1" parent="1" source="EKtKAbXPReljt6ruIOC1-4" target="EKtKAbXPReljt6ruIOC1-1">
          <mxGeometry relative="1" as="geometry" />
        </mxCell>
        <mxCell id="EKtKAbXPReljt6ruIOC1-4" value="POST /payments" style="text;html=1;align=center;verticalAlign=middle;whiteSpace=wrap;rounded=0;strokeColor=#d6b656;dashed=1;fillColor=#fff2cc;" vertex="1" parent="1">
          <mxGeometry x="170" y="175" width="140" height="30" as="geometry" />
        </mxCell>
        <mxCell id="NOwHt_4296MOz6wP8ff5-6" style="edgeStyle=orthogonalEdgeStyle;rounded=1;orthogonalLoop=1;jettySize=auto;html=1;entryX=0;entryY=0.5;entryDx=0;entryDy=0;curved=0;" edge="1" parent="1" source="EKtKAbXPReljt6ruIOC1-5" target="EKtKAbXPReljt6ruIOC1-1">
          <mxGeometry relative="1" as="geometry" />
        </mxCell>
        <mxCell id="EKtKAbXPReljt6ruIOC1-5" value="GET /payments" style="text;html=1;align=center;verticalAlign=middle;whiteSpace=wrap;rounded=0;strokeColor=#d6b656;dashed=1;fillColor=#fff2cc;" vertex="1" parent="1">
          <mxGeometry x="170" y="215" width="140" height="30" as="geometry" />
        </mxCell>
        <mxCell id="EKtKAbXPReljt6ruIOC1-6" value="GET /undocumented/all-payments" style="text;html=1;align=center;verticalAlign=middle;whiteSpace=wrap;rounded=0;strokeColor=#d6b656;dashed=1;fillColor=#fff2cc;" vertex="1" parent="1">
          <mxGeometry x="170" y="255" width="200" height="30" as="geometry" />
        </mxCell>
        <mxCell id="WG7agBLW9ykSLp7Uhjg9-1" value="" style="shape=image;html=1;verticalAlign=top;verticalLabelPosition=bottom;labelBackgroundColor=#ffffff;imageAspect=0;aspect=fixed;image=https://cdn4.iconfinder.com/data/icons/web-ui-color/128/Checkmark-128.png" vertex="1" parent="1">
          <mxGeometry x="300" y="180" width="20" height="20" as="geometry" />
        </mxCell>
        <mxCell id="WG7agBLW9ykSLp7Uhjg9-2" value="" style="shape=image;html=1;verticalAlign=top;verticalLabelPosition=bottom;labelBackgroundColor=#ffffff;imageAspect=0;aspect=fixed;image=https://cdn4.iconfinder.com/data/icons/web-ui-color/128/Checkmark-128.png" vertex="1" parent="1">
          <mxGeometry x="300" y="220" width="20" height="20" as="geometry" />
        </mxCell>
        <mxCell id="NOwHt_4296MOz6wP8ff5-9" style="edgeStyle=orthogonalEdgeStyle;rounded=1;orthogonalLoop=1;jettySize=auto;html=1;entryX=0;entryY=0.5;entryDx=0;entryDy=0;curved=0;" edge="1" parent="1" source="NOwHt_4296MOz6wP8ff5-1" target="EKtKAbXPReljt6ruIOC1-1">
          <mxGeometry relative="1" as="geometry">
            <Array as="points">
              <mxPoint x="390" y="269" />
              <mxPoint x="390" y="230" />
            </Array>
          </mxGeometry>
        </mxCell>
        <mxCell id="NOwHt_4296MOz6wP8ff5-1" value="" style="shape=image;html=1;verticalAlign=top;verticalLabelPosition=bottom;labelBackgroundColor=#ffffff;imageAspect=0;aspect=fixed;image=https://cdn2.iconfinder.com/data/icons/crystalproject/16x16/actions/gg_ignored.png" vertex="1" parent="1">
          <mxGeometry x="362" y="261" width="16" height="16" as="geometry" />
        </mxCell>
        <mxCell id="NOwHt_4296MOz6wP8ff5-10" value="" style="shape=image;verticalLabelPosition=bottom;verticalAlign=top;imageAspect=0;aspect=fixed;image=data:image/svg+xml,PHN2ZyB4bWxucz0iaHR0cDovL3d3dy53My5vcmcvMjAwMC9zdmciIHdpZHRoPSIyNTAwIiB2aWV3Qm94PSItNDguNTgzMTMxNzQgLTEzNi4yMjg1MzIgODc5LjQ5NTgyMDYyIDc3My45ODI0MTg4OCIgaGVpZ2h0PSIyNDUyIj48cGF0aCBmaWxsPSIjOTNkNTAwIiBkPSJtMTU4LjU3IDM0NC45M2gtMTU4LjI5Yy4wMy43OC4wNSAxLjU1LjA5IDIuMzIuMDYgMS40OS4xNyAyLjk3LjI2IDQuNDYuMDQuNjQuMDcgMS4yOC4xMiAxLjkxLjEyIDEuNzIuMjcgMy40NC40MyA1LjE1LjA0LjM5LjA3Ljc4LjExIDEuMTUuMTggMS45MS4zOSAzLjgyLjYxIDUuNzEuMDEuMTguMDMuMzcuMDYuNTUuMjUgMi4wNC41MSA0LjA5LjgxIDYuMTIgMCAuMDMgMCAuMDYuMDEuMDhhMjY2LjA1IDI2Ni4wNSAwIDAgMCA4LjE4IDM3LjRjLjAyLjA1LjA0LjEuMDUuMTUuNTcgMS45NCAxLjE3IDMuODYgMS43OCA1Ljc3LjA0LjExLjA4LjIzLjExLjM0cy4wNy4yMi4xMS4zNGMuNTYgMS43MyAxLjE1IDMuNDUgMS43NCA1LjE4LjE1LjQzLjMuODcuNDYgMS4zMS41MyAxLjQ5IDEuMDcgMi45OCAxLjYzIDQuNDguMjYuNjcuNTEgMS4zNC43NiAyLjAyLjQ5IDEuMjQuOTYgMi40NyAxLjQ1IDMuNy4zNy45My43NSAxLjg2IDEuMTQgMi43OC40Ljk3LjggMS45MiAxLjIxIDIuODkuNSAxLjE4IDEuMDMgMi4zNSAxLjU1IDMuNTMuMzEuNy42MyAxLjM5Ljk0IDIuMDkuNjQgMS40MSAxLjMgMi44MiAxLjk3IDQuMjIuMjIuNDUuNDMuOS42NSAxLjM0Ljc4IDEuNjIgMS41NyAzLjIxIDIuMzcgNC44LjE0LjI0LjI1LjQ5LjM4LjczLjkgMS43NiAxLjgyIDMuNTEgMi43NyA1LjI1LjA0LjA4LjA5LjE1LjEyLjI0LjIuMzYuNDIuNzEuNjIgMS4wN2wxMzUuMTktODEuNDMuNS0uM2MtNS4zMy0xMS4yNC04LjY1LTIzLjItOS44OS0zNS4zNXoiLz48cGF0aCBmaWxsPSIjNGQ1YTMxIiBkPSJtMTk3LjQ4IDQxNy42LS4zOC4zOC0xMTEuNSAxMTEuNDljLjU3LjUzIDEuMTQgMS4wOCAxLjczIDEuNTkgMS4wNC45NSAyLjEgMS44OCAzLjE1IDIuODEuNTUuNDggMS4wOC45NiAxLjYzIDEuNDQgMS4yNiAxLjA5IDIuNTQgMi4xNSAzLjgxIDMuMjIuMzUuMjkuNjguNTcgMS4wMy44NmEyNTUuNTc2IDI1NS41NzYgMCAwIDAgNC45MSAzLjk0YzEuNTggMS4yNSAzLjE3IDIuNDYgNC43OSAzLjY4LjA3LjA0LjEyLjA4LjE4LjEzYTI2Ni40OCAyNjYuNDggMCAwIDAgMjAuODYgMTQuMWMuMjQuMTYuNDkuMy43NC40NiAxLjM3LjgxIDIuNzMgMS42MiA0LjExIDIuNDJsMi41MiAxLjQ0Yy44LjQ2IDEuNTkuOSAyLjM5IDEuMzQgMS40NS43OSAyLjkgMS41OCA0LjM2IDIuMzUuMi4xMS40LjIyLjYxLjMyIDQuMDUgMi4xMiA4LjE3IDQuMDkgMTIuMzMgNS45OWwzLjk2LTkuNjEgNTYuMDgtMTM2LjE3LjItLjVjLTYuMTItMy4yOC0xMS45OS03LjE2LTE3LjUxLTExLjY4eiIvPjxwYXRoIGZpbGw9IiM2YmE0M2EiIGQ9Im0xODUuODcgNDA2LjQ5YTk1LjQ5MiA5NS40OTIgMCAwIDEgLTMuNDgtNC4xYy0xLTEuMjMtMS45Ni0yLjQ3LTIuODktMy43My0xLjA3LTEuNDQtMi4xMS0yLjktMy4xLTQuMzgtLjk5LTEuNDktMS45Ny0yLjk5LTIuODktNC41MWwtMTM1LjM2IDgxLjUzYzIuMDggMy40NiA0LjI0IDYuODIgNi40NiAxMC4xNC4wNy4xMi4xNC4yNC4yMi4zNS4wMi4wNS4wNS4wOC4wOC4xMy4wNy4xLjE0LjIyLjIxLjMzLjAxLjAxLjAyLjAyLjAyLjA0LjE4LjI2LjM2LjUyLjU0Ljc5LjAxLjAxLjAyLjAzLjA0LjA1cy4wMS4wMS4wMS4wMmMyLjM1IDMuNDcgNC43NyA2Ljg5IDcuMjYgMTAuMjMuMDUuMDcuMTEuMTQuMTYuMjEuMDYuMDcuMTEuMTQuMTYuMjEgMS4wOSAxLjQzIDIuMTcgMi44NiAzLjI5IDQuMjguMTUuMTkuMjkuMzcuNDUuNTUgMS4xNCAxLjQ3IDIuMzEgMi45MiAzLjUgNC4zNS4yOC4zNC41Ny42OC44NSAxLjAzIDEuMDcgMS4yOCAyLjE0IDIuNTUgMy4yMyAzLjgxLjQ3LjU0Ljk1IDEuMDkgMS40MyAxLjYyLjkzIDEuMDYgMS44NSAyLjEyIDIuOCAzLjE2LjUyLjU3IDEuMDYgMS4xNSAxLjU5IDEuNzIuMjQuMjcuNDguNTIuNzMuNzkuNjkuNzUgMS4zOCAxLjUgMi4wOCAyLjI0LjI4LjI5LjU4LjU4Ljg2Ljg4IDEuMjMgMS4yOCAyLjQ4IDIuNTcgMy43NCAzLjgzbDExMS42Ny0xMTEuNjVjLTEuMjgtMS4yOC0yLjQ4LTIuNi0zLjY2LTMuOTJ6Ii8+PHBhdGggZmlsbD0iIzRkNWEzMSIgZD0ibTMzMy44OCA0MTcuNTRjLTEuMjMuOTktMi40NyAxLjk2LTMuNzMgMi44OWwuMjcuNDcgODEuNDIgMTM1LjEzYzMuNzctMi40NiA3LjUtNSAxMS4xNC03LjY3IDcuODgtNS44MSAxNS41LTEyLjExIDIyLjg1LTE4Ljg5bC0xMTEuNTEtMTExLjQ5eiIvPjxwYXRoIGZpbGw9IiM5M2Q1MDAiIGQ9Im00MDAuMDEgNTU3LjE0LTIuNzYtNC41OS03Ni0xMjYuMTNjLTEuNTQuOTItMy4xMSAxLjc2LTQuNjggMi42LTEuNTkuODYtMy4xOCAxLjY1LTQuOCAyLjQyLTE0LjYgNi45Mi0zMC40IDEwLjQ2LTQ2LjIzIDEwLjQ2LTEwLjM3IDAtMjAuNzMtMS41LTMwLjc1LTQuNDktMS43MS0uNTEtMy4zOC0xLjE4LTUuMDYtMS43OC0xLjY5LS41OS0zLjQtMS4xMS01LjA2LTEuNzlsLTU2LjA0IDEzNi4wOC0yLjE5IDUuMzMtMS44OCA0LjU3LS4wMS4wMmMuMTQuMDYuMjkuMTEuNDMuMTcuMTYuMDYuMzEuMTEuNDYuMThoLjAyYy4wNC4wMi4wOC4wMy4xMS4wNCAxLjMyLjU1IDIuNjUgMS4wMSAzLjk4IDEuNTMgMS42Ny42NSAzLjMzIDEuMzEgNSAxLjkyLjg2LjMxIDEuNy42NyAyLjU1Ljk3aC4wMWEyNjcuNDIgMjY3LjQyIDAgMCAwIDU0LjE5IDEyLjk3Yy43My4wOSAxLjQ0LjE5IDIuMTcuMjkuNzUuMDkgMS41MS4xNiAyLjI3LjI1IDEuNDIuMTYgMi44NC4zMiA0LjI3LjQ2bDEuMDYuMDljMS43NS4xNyAzLjUuMzIgNS4yNC40NC42LjA1IDEuMi4wNyAxLjc5LjEyIDEuNTMuMSAzLjA2LjE5IDQuNTkuMjYuOTQuMDYgMS44OC4wOCAyLjgyLjEyIDEuMjIuMDQgMi40My4wOSAzLjY1LjEzIDEuNzUuMDQgMy41Mi4wNSA1LjI4LjA2LjQyIDAgLjgzLjAxIDEuMjUuMDIgMTQuNzUgMCAyOS41LTEuMjMgNDQuMDktMy42OC4yNC0uMDQuNDktLjA4Ljc0LS4xMSAxLjU0LS4yNyAzLjA4LS41NiA0LjYyLS44NC44OC0uMTcgMS43Ny0uMzQgMi42My0uNTEuOS0uMTkgMS44MS0uMzcgMi43MS0uNTcgMS41LS4zMSAzLS42NCA0LjUxLS45OS4yNy0uMDYuNTQtLjExLjgxLS4xOSAyMi4xOC01LjE2IDQzLjYtMTMuMTYgNjMuNzItMjMuNzV2LS4wMWMxLjMyLS42OSAyLjYxLTEuNDggMy45Mi0yLjIgMS41Ni0uODUgMy4xMS0xLjc0IDQuNjctMi42MyAxLjA3LS42MSAyLjE2LTEuMTggMy4yMy0xLjgyLjAxLS4wMS4wMi0uMDIuMDMtLjAyaC4wMWMuMDItLjAxLjAzLS4wMi4wNS0uMDNsLjAyLS4wMi0uMi0uMzMuMi4zM2MuMDEgMCAuMDItLjAxLjAzLS4wMS4wMi0uMDEuMDMtLjAyLjA1LS4wMy4wNi0uMDQuMTItLjA3LjE4LS4xMS4zNC0uMjEuNjktLjQxIDEuMDQtLjYyem0tMjAyLjQ3LTMwNi4yMmMxLjIzLTEgMi40OC0xLjk2IDMuNzMtMi45bC0uMjctLjQ2LTgxLjQyLTEzNS4xNGMtMy43OCAyLjQ3LTcuNTEgNS4wMi0xMS4xNiA3LjY5LTcuODcgNS44LTE1LjUgMTIuMDktMjIuODMgMTguODZsMTExLjUxIDExMS41eiIvPjxwYXRoIGZpbGw9IiM0ZDVhMzEiIGQ9Im03Ny44NiAxNDYuNGMtMS4yNyAxLjI3LTIuNDcgMi41OC0zLjcxIDMuODYtMS4yMyAxLjI5LTIuNDkgMi41Ny0zLjcgMy44N2EyNjYuMTU2IDI2Ni4xNTYgMCAwIDAgLTIyLjU2IDI3Ljk2Yy0uMzMuNDUtLjY1LjkzLS45OCAxLjM5LS43NiAxLjEyLTEuNTIgMi4yMy0yLjI2IDMuMzUtLjc4IDEuMTYtMS41NSAyLjM0LTIuMyAzLjUxLS4yOC40My0uNTYuODctLjgzIDEuMy0yNS42NSA0MC4yMy0zOS4zOSA4NS44Ni00MS4yNCAxMzEuODctLjA3IDEuNzktLjExIDMuNTgtLjE1IDUuMzYtLjAzIDEuNzgtLjA5IDMuNTctLjA5IDUuMzVoMTU3LjkzYzAtMS43OC4xNi0zLjU2LjI2LTUuMzUuMDktMS43OS4xMS0zLjU4LjI5LTUuMzYgMi4wNC0yMC41NiA5Ljk4LTQwLjY0IDIzLjgyLTU3LjUgMS4xMi0xLjM3IDIuMzktMi42NiAzLjYtMy45OCAxLjE5LTEuMzMgMi4zMS0yLjcgMy41OS0zLjk4em0zMjUuODUtMzkuMmMtLjIxLS4xMy0uNDQtLjI2LS42NS0uMzktMS4zOS0uODUtMi43OS0xLjY3LTQuMi0yLjQ5LS44MS0uNDctMS42My0uOTMtMi40NC0xLjM5LS44My0uNDYtMS42NC0uOTItMi40Ny0xLjM3YTkwMS40IDkwMS40IDAgMCAwIC00LjI5LTIuMzJjLS4yMy0uMTEtLjQ1LS4yMy0uNjgtLjM1LTkuMjYtNC44NC0xOC43Ny05LjEtMjguNDgtMTIuOC0uMjUtLjEtLjUtLjItLjc1LS4yOS0yLjEyLS43OS00LjI0LTEuNTgtNi4zOC0yLjMyYTI2Ny4wODQgMjY3LjA4NCAwIDAgMCAtNTMuMjEtMTIuNjNsLTIuMjItLjNjLS43NS0uMDktMS40OS0uMTYtMi4yMy0uMjQtMS40My0uMTctMi44NS0uMzMtNC4yOS0uNDctLjM5LS4wNC0uNzktLjA2LTEuMi0uMTEtMS42OS0uMTUtMy40LS4zLTUuMS0uNDNsLTEuOTktLjEyYy0xLjQ1LS4wOS0yLjkzLS4yLTQuMzgtLjI2LS43OC0uMDQtMS41Ni0uMDctMi4zMy0uMDl2MTU4LjI5YzguMTIuODQgMTYuMTcgMi41NyAyMy45OCA1LjIybDExNi41MS0xMTYuNDljLTQuMzMtMy04LjctNS45Mi0xMy4yLTguNjV6Ii8+PHBhdGggZmlsbD0iIzZiYTQzYSIgZD0ibTI2MC4zNiA2OC43Yy0xLjc5LjA0LTMuNTguMDQtNS4zNi4xMS0xMS4xNy40NS0yMi4zMiAxLjU5LTMzLjM4IDMuNDUtLjI0LjA0LS40OC4wOC0uNzMuMTItMS41NS4yNy0zLjA5LjU1LTQuNjMuODQtLjg3LjE3LTEuNzUuMzMtMi42My41LS45MS4xOC0xLjgxLjM3LTIuNzIuNTctMS41LjMxLTMgLjY0LTQuNDkuOTktLjI4LjA1LS41NS4xMi0uODIuMThhMjY3LjQ2NSAyNjcuNDY1IDAgMCAwIC02My43MyAyMy43NmMtMS4zMS43LTIuNTkgMS40OS0zLjkgMi4yLTEuNTYuODYtMy4xMiAxLjc0LTQuNjcgMi42My0xLjE1LjY3LTIuMzIgMS4yOC0zLjQ3IDEuOTYtLjAxLjAxLS4wMy4wMi0uMDQuMDItLjA4LjA1LS4xNi4xLS4yNC4xNC0uMy4xOS0uNjEuMzQtLjkxLjUybC4wMS4wMiAyLjc3IDQuNTkgNzguNzUgMTMwLjczYzEuNTQtLjkyIDMuMTEtMS43NyA0LjY4LTIuNjEgMS41OC0uODUgMy4xOC0xLjY1IDQuNzktMi40MWExMDcuMjUgMTA3LjI1IDAgMCAxIDM1LjM2LTkuOTFjMS43OC0uMTggMy41Ni0uMzMgNS4zNS0uNDIgMS43OC0uMDkgMy41Ny0uMTggNS4zNi0uMTh2LTE1Ny45MWMtMS43OSAwLTMuNTcuMDgtNS4zNS4xMXoiLz48cGF0aCBmaWxsPSIjNGQ1YTMxIiBkPSJtNTMxLjA1IDMyMS4xN2MtLjA4LTEuNDItLjE2LTIuODMtLjI2LTQuMjZhNzUuNCA3NS40IDAgMCAwIC0uMTQtMi4xMmMtLjExLTEuNjctLjI1LTMuMzQtLjQxLTUuMDEtLjAzLS40My0uMDctLjg2LS4xMS0xLjI5LS4xOC0xLjg3LS4zOC0zLjczLS42LTUuNTktLjAyLS4xNS0uMDMtLjMtLjA1LS40NWwtLjAzLS4yMWMtLjI0LTIuMDEtLjUxLTQuMDItLjc5LTYuMDJsLS4wMy0uMTlhMjY2LjQ1NCAyNjYuNDU0IDAgMCAwIC04LjE2LTM3LjMzYy0uMDMtLjA5LS4wNS0uMTYtLjA4LS4yNC0uNTctMS45MS0xLjE2LTMuOC0xLjc1LTUuNjktLjA5LS4yNS0uMTctLjUtLjI1LS43NS0uNTYtMS43MS0xLjEzLTMuNDEtMS43Mi01LjExbC0uNDgtMS4zOGMtLjUyLTEuNDctMS4wNi0yLjk0LTEuNi00LjQxLS4yNy0uNy0uNTMtMS40LS44MS0yLjA5LS40Ni0xLjIyLS45My0yLjQzLTEuNDItMy42My0uMzgtLjk3LS43Ny0xLjkyLTEuMTYtMi44Ni0uMzktLjk1LS43OS0xLjg4LTEuMTgtMi44Mi0uNTItMS4yLTEuMDUtMi40LTEuNTgtMy41OS0uMy0uNjctLjYtMS4zNS0uOTEtMi4wMy0uNjUtMS40Mi0xLjMyLTIuODUtMS45OS00LjI3LS4yMS0uNDItLjQyLS44Ni0uNjMtMS4yOS0uNzgtMS42Mi0xLjU4LTMuMjUtMi40LTQuODUtLjExLS4yMi0uMjMtLjQ1LS4zNC0uNjctLjkxLTEuNzctMS44NS0zLjU1LTIuNzktNS4zLS4wNC0uMDYtLjA3LS4xMy0uMTEtLjE5YTI2Ni45OSAyNjYuOTkgMCAwIDAgLTE1LjExLTI0LjUybC0xMTYuNTQgMTE2LjU0YzIuNjUgNy44MSA0LjM3IDE1Ljg2IDUuMjEgMjMuOTdoMTU4LjMyYy0uMDQtLjc5LS4wNi0xLjU4LS4xLTIuMzV6Ii8+PHBhdGggZmlsbD0iIzZiYTQzYSIgZD0ibTM3My40NSAzMzQuMjJjMCAxLjc5LS4xNyAzLjU3LS4yNiA1LjM2cy0uMTIgMy41OC0uMyA1LjM1Yy0yLjA0IDIwLjU3LTkuOTcgNDAuNjUtMjMuODEgNTcuNTItMS4xMiAxLjM3LTIuMzkgMi42NS0zLjYgMy45OC0xLjIgMS4zMi0yLjMxIDIuNjktMy41OSAzLjk3bDExMS42NyAxMTEuNjVjMS4yNy0xLjI3IDIuNDYtMi41OCAzLjctMy44N3MyLjUtMi41NiAzLjctMy44N2M4LjI2LTguOTUgMTUuODItMTguMzEgMjIuNjItMjguMDQuMjgtLjM5LjUzLS43Ny44LTEuMTUuODMtMS4xOSAxLjYzLTIuNCAyLjQ1LTMuNi43MS0xLjA4IDEuNDItMi4xNSAyLjExLTMuMjQuMzUtLjUyLjY5LTEuMDYgMS4wMi0xLjU4IDI1LjYxLTQwLjIxIDM5LjMyLTg1Ljc5IDQxLjE2LTEzMS43Ny4wNy0xLjc4LjExLTMuNTcuMTQtNS4zNi4wNC0xLjc4LjA5LTMuNTYuMDktNS4zNXoiLz48cGF0aCBmaWxsPSIjNDI0MTQzIiBkPSJtNTc4LjI3IDIxLjY5Yy0yOC44OS0yOC44OS03NS43My0yOC44OS0xMDQuNjIgMC0yMy4wNSAyMy4wNC0yNy42NiA1Ny40OS0xMy45MyA4NS4xNWwtMTYxLjE2IDE2MS4xNWMtMjcuNjYtMTMuNzItNjIuMTItOS4xMi04NS4xNyAxMy45Mi0yOC44OSAyOC44OS0yOC44OCA3NS43MyAwIDEwNC42MiAyOC45IDI4Ljg5IDc1Ljc1IDI4Ljg4IDEwNC42NCAwIDIzLjA1LTIzLjA1IDI3LjY1LTU3LjUgMTMuOTItODUuMTZsMTYxLjE2LTE2MS4xNGMyNy42NyAxMy43MiA2Mi4xMSA5LjEyIDg1LjE2LTEzLjkzIDI4Ljg5LTI4Ljg4IDI4Ljg5LTc1LjcyIDAtMTA0LjYxeiIvPjwvc3ZnPg==;" vertex="1" parent="1">
          <mxGeometry x="690" y="295" width="40.78" height="40" as="geometry" />
        </mxCell>
        <mxCell id="NOwHt_4296MOz6wP8ff5-11" value="POST /payments" style="text;html=1;align=center;verticalAlign=middle;whiteSpace=wrap;rounded=0;strokeColor=#d79b00;dashed=1;fillColor=#ffe6cc;" vertex="1" parent="1">
          <mxGeometry x="690" y="344" width="110" height="30" as="geometry" />
        </mxCell>
        <mxCell id="NOwHt_4296MOz6wP8ff5-12" value="GET /payments" style="text;html=1;align=center;verticalAlign=middle;whiteSpace=wrap;rounded=0;strokeColor=#d79b00;dashed=1;fillColor=#ffe6cc;" vertex="1" parent="1">
          <mxGeometry x="690" y="384" width="110" height="30" as="geometry" />
        </mxCell>
        <mxCell id="NOwHt_4296MOz6wP8ff5-14" value="Documented" style="text;html=1;align=center;verticalAlign=middle;whiteSpace=wrap;rounded=0;strokeColor=default;dashed=1;fillColor=default;" vertex="1" parent="1">
          <mxGeometry x="730.78" y="295" width="79" height="30" as="geometry" />
        </mxCell>
        <mxCell id="NOwHt_4296MOz6wP8ff5-15" value="" style="rounded=0;whiteSpace=wrap;html=1;fillColor=#f5f5f5;fontColor=#333333;strokeColor=#666666;" vertex="1" parent="1">
          <mxGeometry x="400" y="300" width="220" height="155" as="geometry" />
        </mxCell>
        <mxCell id="NOwHt_4296MOz6wP8ff5-18" value="POST /payments" style="text;html=1;align=center;verticalAlign=middle;whiteSpace=wrap;rounded=0;strokeColor=#d79b00;dashed=1;fillColor=#ffe6cc;" vertex="1" parent="1">
          <mxGeometry x="410" y="340" width="140" height="30" as="geometry" />
        </mxCell>
        <mxCell id="NOwHt_4296MOz6wP8ff5-19" value="GET /payments" style="text;html=1;align=center;verticalAlign=middle;whiteSpace=wrap;rounded=0;strokeColor=#d79b00;dashed=1;fillColor=#ffe6cc;" vertex="1" parent="1">
          <mxGeometry x="410" y="380" width="140" height="30" as="geometry" />
        </mxCell>
        <mxCell id="NOwHt_4296MOz6wP8ff5-20" value="GET /undocumented/all-payments" style="text;html=1;align=center;verticalAlign=middle;whiteSpace=wrap;rounded=0;strokeColor=#b85450;dashed=1;fillColor=#f8cecc;" vertex="1" parent="1">
          <mxGeometry x="410" y="420" width="200" height="30" as="geometry" />
        </mxCell>
        <mxCell id="NOwHt_4296MOz6wP8ff5-21" value="Implemennted" style="text;html=1;align=center;verticalAlign=middle;whiteSpace=wrap;rounded=0;strokeColor=default;dashed=1;fillColor=default;" vertex="1" parent="1">
          <mxGeometry x="400" y="300" width="220" height="30" as="geometry" />
        </mxCell>
        <mxCell id="NOwHt_4296MOz6wP8ff5-22" style="edgeStyle=orthogonalEdgeStyle;rounded=1;orthogonalLoop=1;jettySize=auto;html=1;curved=0;dashed=1;" edge="1" parent="1" source="NOwHt_4296MOz6wP8ff5-18" target="NOwHt_4296MOz6wP8ff5-11">
          <mxGeometry relative="1" as="geometry">
            <Array as="points">
              <mxPoint x="640" y="355" />
              <mxPoint x="640" y="359" />
            </Array>
          </mxGeometry>
        </mxCell>
        <mxCell id="NOwHt_4296MOz6wP8ff5-24" style="edgeStyle=orthogonalEdgeStyle;rounded=1;orthogonalLoop=1;jettySize=auto;html=1;entryX=0;entryY=0.5;entryDx=0;entryDy=0;curved=0;dashed=1;" edge="1" parent="1" source="NOwHt_4296MOz6wP8ff5-19" target="NOwHt_4296MOz6wP8ff5-12">
          <mxGeometry relative="1" as="geometry">
            <Array as="points">
              <mxPoint x="640" y="395" />
              <mxPoint x="640" y="399" />
            </Array>
          </mxGeometry>
        </mxCell>
        <mxCell id="NOwHt_4296MOz6wP8ff5-25" style="edgeStyle=orthogonalEdgeStyle;rounded=1;orthogonalLoop=1;jettySize=auto;html=1;entryX=0.545;entryY=0.005;entryDx=0;entryDy=0;entryPerimeter=0;curved=0;dashed=1;" edge="1" parent="1" source="EKtKAbXPReljt6ruIOC1-3" target="NOwHt_4296MOz6wP8ff5-21">
          <mxGeometry relative="1" as="geometry" />
        </mxCell>
        <mxCell id="NOwHt_4296MOz6wP8ff5-28" style="edgeStyle=orthogonalEdgeStyle;rounded=1;orthogonalLoop=1;jettySize=auto;html=1;entryX=0;entryY=0.5;entryDx=0;entryDy=0;curved=0;" edge="1" parent="1" source="NOwHt_4296MOz6wP8ff5-26" target="NOwHt_4296MOz6wP8ff5-20">
          <mxGeometry relative="1" as="geometry" />
        </mxCell>
        <mxCell id="NOwHt_4296MOz6wP8ff5-26" value="Shadow endpoint" style="text;html=1;align=center;verticalAlign=middle;whiteSpace=wrap;rounded=0;strokeColor=default;dashed=1;" vertex="1" parent="1">
          <mxGeometry x="210" y="374" width="130" height="36" as="geometry" />
        </mxCell>
      </root>
    </mxGraphModel>
  </diagram>
  <diagram id="Jl8oLuZNE_PTJNrbgwlj" name="9.7">
    <mxGraphModel dx="903" dy="622" grid="1" gridSize="10" guides="1" tooltips="1" connect="1" arrows="1" fold="1" page="1" pageScale="1" pageWidth="850" pageHeight="1100" math="0" shadow="0">
      <root>
        <mxCell id="0" />
        <mxCell id="1" parent="0" />
        <mxCell id="ksIyjWpNSBugwV_jyDsF-8" value="" style="rounded=0;whiteSpace=wrap;html=1;dashed=1;fillColor=#f5f5f5;fontColor=#333333;strokeColor=#666666;" vertex="1" parent="1">
          <mxGeometry x="260" y="290" width="470" height="120" as="geometry" />
        </mxCell>
        <mxCell id="ksIyjWpNSBugwV_jyDsF-21" style="edgeStyle=orthogonalEdgeStyle;rounded=0;orthogonalLoop=1;jettySize=auto;html=1;" edge="1" parent="1" source="ksIyjWpNSBugwV_jyDsF-1" target="ksIyjWpNSBugwV_jyDsF-3">
          <mxGeometry relative="1" as="geometry" />
        </mxCell>
        <mxCell id="ksIyjWpNSBugwV_jyDsF-1" value="" style="sketch=0;aspect=fixed;pointerEvents=1;shadow=0;dashed=0;html=1;strokeColor=none;labelPosition=center;verticalLabelPosition=bottom;verticalAlign=top;align=center;fillColor=#00188D;shape=mxgraph.azure.laptop" vertex="1" parent="1">
          <mxGeometry x="50" y="175" width="50" height="30" as="geometry" />
        </mxCell>
        <mxCell id="ksIyjWpNSBugwV_jyDsF-3" value="API gateway" style="rounded=0;whiteSpace=wrap;html=1;" vertex="1" parent="1">
          <mxGeometry x="213" y="160" width="120" height="60" as="geometry" />
        </mxCell>
        <mxCell id="ksIyjWpNSBugwV_jyDsF-15" style="edgeStyle=orthogonalEdgeStyle;rounded=1;orthogonalLoop=1;jettySize=auto;html=1;curved=0;" edge="1" parent="1" source="ksIyjWpNSBugwV_jyDsF-4" target="ksIyjWpNSBugwV_jyDsF-11">
          <mxGeometry relative="1" as="geometry" />
        </mxCell>
        <mxCell id="ksIyjWpNSBugwV_jyDsF-16" style="edgeStyle=orthogonalEdgeStyle;rounded=1;orthogonalLoop=1;jettySize=auto;html=1;entryX=0.5;entryY=0;entryDx=0;entryDy=0;curved=0;" edge="1" parent="1" source="ksIyjWpNSBugwV_jyDsF-4" target="ksIyjWpNSBugwV_jyDsF-12">
          <mxGeometry relative="1" as="geometry" />
        </mxCell>
        <mxCell id="ksIyjWpNSBugwV_jyDsF-4" value="Request is authenticated?" style="rounded=0;whiteSpace=wrap;html=1;fillColor=#f8cecc;strokeColor=#b85450;" vertex="1" parent="1">
          <mxGeometry x="270" y="338" width="120" height="60" as="geometry" />
        </mxCell>
        <mxCell id="ksIyjWpNSBugwV_jyDsF-5" value="User belongs to the right group or role?" style="rounded=0;whiteSpace=wrap;html=1;" vertex="1" parent="1">
          <mxGeometry x="435" y="338" width="120" height="60" as="geometry" />
        </mxCell>
        <mxCell id="ksIyjWpNSBugwV_jyDsF-6" value="User has access to the resource?" style="rounded=0;whiteSpace=wrap;html=1;" vertex="1" parent="1">
          <mxGeometry x="600" y="338" width="120" height="60" as="geometry" />
        </mxCell>
        <mxCell id="ksIyjWpNSBugwV_jyDsF-9" value="&amp;nbsp; &amp;nbsp; &amp;nbsp; &amp;nbsp; &amp;nbsp; &amp;nbsp; &amp;nbsp; &amp;nbsp; &amp;nbsp; &amp;nbsp; &amp;nbsp; &amp;nbsp; &amp;nbsp; &amp;nbsp; &amp;nbsp; &amp;nbsp; &amp;nbsp;Authentication and authorization process" style="text;html=1;align=center;verticalAlign=middle;whiteSpace=wrap;rounded=0;dashed=1;fillColor=#dae8fc;strokeColor=#6c8ebf;" vertex="1" parent="1">
          <mxGeometry x="260" y="290" width="470" height="30" as="geometry" />
        </mxCell>
        <mxCell id="ksIyjWpNSBugwV_jyDsF-11" value="JWT validation" style="text;html=1;align=center;verticalAlign=middle;whiteSpace=wrap;rounded=0;strokeColor=#d6b656;dashed=1;fillColor=#fff2cc;" vertex="1" parent="1">
          <mxGeometry x="170" y="440" width="110" height="40" as="geometry" />
        </mxCell>
        <mxCell id="ksIyjWpNSBugwV_jyDsF-12" value="Certificate validation" style="text;html=1;align=center;verticalAlign=middle;whiteSpace=wrap;rounded=0;strokeColor=#d6b656;dashed=1;fillColor=#fff2cc;" vertex="1" parent="1">
          <mxGeometry x="312" y="445" width="110" height="40" as="geometry" />
        </mxCell>
        <mxCell id="ksIyjWpNSBugwV_jyDsF-13" value="Cookie validation" style="text;html=1;align=center;verticalAlign=middle;whiteSpace=wrap;rounded=0;strokeColor=#d6b656;dashed=1;fillColor=#fff2cc;" vertex="1" parent="1">
          <mxGeometry x="220" y="500" width="110" height="40" as="geometry" />
        </mxCell>
        <mxCell id="ksIyjWpNSBugwV_jyDsF-17" style="edgeStyle=orthogonalEdgeStyle;rounded=1;orthogonalLoop=1;jettySize=auto;html=1;entryX=0.693;entryY=0.021;entryDx=0;entryDy=0;entryPerimeter=0;curved=0;" edge="1" parent="1" source="ksIyjWpNSBugwV_jyDsF-4" target="ksIyjWpNSBugwV_jyDsF-13">
          <mxGeometry relative="1" as="geometry">
            <Array as="points">
              <mxPoint x="330" y="430" />
              <mxPoint x="296" y="430" />
            </Array>
          </mxGeometry>
        </mxCell>
        <mxCell id="ksIyjWpNSBugwV_jyDsF-19" value="" style="rounded=0;whiteSpace=wrap;html=1;fillColor=none;" vertex="1" parent="1">
          <mxGeometry x="162" y="266" width="265" height="300" as="geometry" />
        </mxCell>
        <mxCell id="ksIyjWpNSBugwV_jyDsF-20" style="edgeStyle=orthogonalEdgeStyle;rounded=0;orthogonalLoop=1;jettySize=auto;html=1;entryX=0.42;entryY=0;entryDx=0;entryDy=0;entryPerimeter=0;" edge="1" parent="1" source="ksIyjWpNSBugwV_jyDsF-3" target="ksIyjWpNSBugwV_jyDsF-19">
          <mxGeometry relative="1" as="geometry" />
        </mxCell>
      </root>
    </mxGraphModel>
  </diagram>
</mxfile>
